<svg id="Layer_1" data-name="Layer 1" xmlns="http://www.w3.org/2000/svg" width="521" height="186" viewBox="0 0 521 186">
  <title>title</title>
  <g>
    <path d="M34.74,153.05l-3-1.24q-5.81-2.44-7.4-3.29L21.5,152l-2.67-2.29L31.49,135l2,1.72a9.56,9.56,0,0,0-2.2,4.22,3.39,3.39,0,0,0,1.39,3,16.74,16.74,0,0,0,4,2.41q5,2.4,11.6,4.9l2.78,1.13,3.72,1.5c1.06.49,2.25,1,3.57,1.49l2.87,1.08q4.32,1.61,6.78,2.66l.1-.12q-3.08-4.76-5.87-9.37Q57.11,141.37,51.52,132q-5.85-9.77-7.38-12l1.67-1.94q3.11,1.41,9.93,4.2l9.87,4q6.78,2.66,9.54,3.87,2.05.91,6.27,2.64c3,1.2,5.6,2.28,7.68,3.21l.16-.18q-3.49-5.52-5.7-9.21Q77.43,116,72.71,108.58c-1.11-1.73-2-3.22-2.72-4.45a49.47,49.47,0,0,1-2.81-5.68l-4,5-2.67-2.29L71.09,88.84l2,1.72a11.2,11.2,0,0,0-1.93,4.09,7.44,7.44,0,0,0,.68,4.06,61.15,61.15,0,0,0,3.77,7.09l6.57,11q10.57,17.52,16.16,27.47l-1.56,1.82L54.57,129.59l23.3,38.56-1.51,1.76Z"/>
    <path d="M119.61,122.84a19.23,19.23,0,0,1-10.15-1.58,20.58,20.58,0,0,1-8.33-6.9,24.22,24.22,0,0,1-4.52-10.71,20.47,20.47,0,0,1,1.16-10.73,18.58,18.58,0,0,1,6.53-8.35,20,20,0,0,1,20-2.19,20.23,20.23,0,0,1,8.23,6.77A23.69,23.69,0,0,1,137,99.78a21,21,0,0,1-1.14,10.82,18.42,18.42,0,0,1-6.51,8.39A20.2,20.2,0,0,1,119.61,122.84Zm12.48-15.75a23.59,23.59,0,0,0-4.77-11.27,29.69,29.69,0,0,0-10.57-9.43q-5.81-2.9-10.66.63a9.82,9.82,0,0,0-4.35,9.2,22.59,22.59,0,0,0,4.63,11.47,31.93,31.93,0,0,0,6.75,6.91,16.66,16.66,0,0,0,7.64,3.29A9.6,9.6,0,0,0,128,116,9.21,9.21,0,0,0,132.09,107.09Z"/>
    <path d="M148.08,101.93a4.19,4.19,0,0,0,2.43-2.54,5.37,5.37,0,0,0-.27-3.18q-.65-1.69-2.38-5.12L139.6,74.83A33,33,0,0,1,137.53,70l-4.95,2.79-1.49-2.92,2.21-1.13A13.18,13.18,0,0,0,137,66.33a7.89,7.89,0,0,0,1.54-2.62l2.07-1.05c1.13,1.75,2.45,4,3.94,6.87A19.44,19.44,0,0,1,147,61.74,13.41,13.41,0,0,1,152.72,56a6.17,6.17,0,0,1,4.15-.67A4.52,4.52,0,0,1,160,57.92a4.23,4.23,0,0,1,.27,2.73,3.39,3.39,0,0,1-2,2.43,3.62,3.62,0,0,1-3.16.13,3.9,3.9,0,0,1-2.22-2.42,9.49,9.49,0,0,0-4.4,4.84,20,20,0,0,0-1.78,8.08l9,17.51a34.23,34.23,0,0,1,2.17,5l4.39-2.49,1.48,2.92-14.62,7.43Z"/>
    <path d="M177.14,87.79a4.16,4.16,0,0,0,2.7-2.26,5.29,5.29,0,0,0,.07-3.19A55.15,55.15,0,0,0,178.1,77L164.7,41.61a50.36,50.36,0,0,1-1.61-5L157.89,39l-1.19-3.14a29.44,29.44,0,0,0,6.2-2.95,7.5,7.5,0,0,0,2.39-2.62l2.17-.82L185.91,78a32.5,32.5,0,0,1,1.56,5.23l4.62-2,1.17,3.07L178,90Z"/>
    <path d="M205,79.15a16.93,16.93,0,0,1-7.59-5.46,23.75,23.75,0,0,1-4.6-9.85,24.75,24.75,0,0,1,0-11.82,19.62,19.62,0,0,1,15-14.66,20.2,20.2,0,0,1,5.11-.5,21,21,0,0,1,4.52.55l-2.49-10.67a48.13,48.13,0,0,1-.95-5.12l-5.46,1.6L207.75,20a28.89,28.89,0,0,0,6.46-2.08,7.4,7.4,0,0,0,2.71-2.28l2.26-.52L231,65.63a49.07,49.07,0,0,1,.92,5.37l5.46-1.6.77,3.27L227,75.27c-.58-1.34-1.08-2.65-1.49-3.93a16,16,0,0,1-4.58,5.18,17.73,17.73,0,0,1-6.65,3A16.23,16.23,0,0,1,205,79.15Zm15.9-6.7a14.88,14.88,0,0,0,3.53-4.73c-.24-.82-.6-2.24-1.07-4.27L218.24,41a14.4,14.4,0,0,0-9.28-.71A11,11,0,0,0,201,47q-2.34,5.43-.56,13.07,1.84,8,6,12.11a9.85,9.85,0,0,0,9.71,2.87A10.93,10.93,0,0,0,220.94,72.45Z"/>
    <path d="M274.62,68.64a24,24,0,0,1-9-10.31,30.86,30.86,0,0,1-2.49-15.14,35.4,35.4,0,0,1,4.08-14.57,27.23,27.23,0,0,1,10.18-10.71,26.14,26.14,0,0,1,15.44-3.39,34.32,34.32,0,0,1,8.67,1.71A28.19,28.19,0,0,1,309.11,20L309,16.1l4.4.28-1.16,18.28-2.87-.18c-.07-4.92-1.59-8.87-4.59-11.83a17.38,17.38,0,0,0-11.59-4.9,17.62,17.62,0,0,0-10.55,2.62,22.76,22.76,0,0,0-8,8.59,30.17,30.17,0,0,0-3.58,12.88A31.8,31.8,0,0,0,273,55.43a22.21,22.21,0,0,0,7,9.74,19.15,19.15,0,0,0,10.89,4,27,27,0,0,0,7.13-.55,22,22,0,0,0,6.77-2.58l1.1-17.49-5.6,0,.22-3.51,18,1.13-.17,2.64q-3.83-.24-5,2.61A21,21,0,0,0,312,58l-.77,12.21-2.16-.13a24.94,24.94,0,0,0-8.75,1.53,28.37,28.37,0,0,1-5.77,1.16,34.7,34.7,0,0,1-6,.18A28.79,28.79,0,0,1,274.62,68.64Z"/>
    <path d="M321.78,74.27a8.65,8.65,0,0,1-1.2-7.45,10,10,0,0,1,5.62-6.61A24,24,0,0,1,336.47,58a40.26,40.26,0,0,1,11.32,1.5l1.28-4.79a17.73,17.73,0,0,0,.63-8.24c-.47-2.14-2.31-3.64-5.5-4.5a11.26,11.26,0,0,0-4.83-.21,6.73,6.73,0,0,0-4,2.16,4.25,4.25,0,0,1,.22,3.21,3.56,3.56,0,0,1-1.43,2,3.14,3.14,0,0,1-2.76.38,3.36,3.36,0,0,1-2.27-1.73,4.09,4.09,0,0,1-.19-3,7,7,0,0,1,3.22-4.15,13.92,13.92,0,0,1,6.39-1.89,24.3,24.3,0,0,1,8.17.86q6.5,1.74,8.66,6c1.45,2.85,1.49,6.73.11,11.67l-4.73,17.36a49.62,49.62,0,0,1-1.71,5.18L354.64,81l-.87,3.24-11-3c0-.82.26-2.34.64-4.55q-7.16,4.13-13.65,2.39Q324.07,77.62,321.78,74.27ZM338.3,75.5a19.56,19.56,0,0,0,5.79-2.14c.16-.79.48-2.11,1-4l2-7.24a29.31,29.31,0,0,0-12-.43q-5.58,1-6.88,5.9a5.84,5.84,0,0,0,.53,4.86,6.39,6.39,0,0,0,3.91,2.7A12.77,12.77,0,0,0,338.3,75.5Z"/>
    <path d="M358,81.72a4.18,4.18,0,0,0,3.48.5,5.31,5.31,0,0,0,2.43-2.07q1-1.52,2.78-4.92L375,59a32.8,32.8,0,0,1,2.68-4.46l-5.19-2.34,1.55-3a26.43,26.43,0,0,0,6,2.52,7.1,7.1,0,0,0,3.38-.09l2.06,1.07c-.27.76-.83,2.06-1.67,3.91a20.27,20.27,0,0,1,6.56-.47,16.21,16.21,0,0,1,6.06,1.7,14.69,14.69,0,0,1,5.28,4.32,10.27,10.27,0,0,1,2,5.49,27,27,0,0,1,7.49-.44,17.29,17.29,0,0,1,6.77,1.8q6.25,3.24,7.15,8.53t-3.55,13.53l-6.92,13.17a35.17,35.17,0,0,1-2.79,4.68l4.58,2.11L414.93,114l-14.49-7.52,1.11-2.13a4.18,4.18,0,0,0,3.48.5,5.31,5.31,0,0,0,2.43-2.07q1-1.52,2.78-4.92l5.16-9.94q3.17-6.11,2.81-10.12t-4.47-6.15a12.51,12.51,0,0,0-4.93-1.34,15.54,15.54,0,0,0-5.25.47,19,19,0,0,1-2,5.55L392.78,93A35.17,35.17,0,0,1,390,97.63l4.58,2.11-1.51,2.91-14.49-7.52L379.68,93a4.18,4.18,0,0,0,3.48.5,5,5,0,0,0,2.36-2q.93-1.45,2.85-5l5.23-9.9q3.27-6.15,3-10.16a7.17,7.17,0,0,0-4.31-6.11A12.36,12.36,0,0,0,387.46,59a13.26,13.26,0,0,0-5,.55l-1.92,3.87-9.47,18.25a35.17,35.17,0,0,1-2.79,4.68l4.58,2.11-1.51,2.91-14.48-7.52Z"/>
    <path d="M424.8,122.26a18.34,18.34,0,0,1-.57-10.2,23.51,23.51,0,0,1,5.23-10.19,22.57,22.57,0,0,1,8.74-6.4,20.34,20.34,0,0,1,10.55-1.41,18.8,18.8,0,0,1,9.89,4.46,17,17,0,0,1,5,6.84,14.61,14.61,0,0,1,.63,8.32,20.1,20.1,0,0,1-4.61,8.82l-21.85-17.77q-6.25,7.29-7.22,13.48t4.23,10.57a17,17,0,0,0,7,3.4,16.33,16.33,0,0,0,7.6.23l.44,2.46a18.63,18.63,0,0,1-10.46.18,22.36,22.36,0,0,1-8.69-4.39A19.23,19.23,0,0,1,424.8,122.26Zm31-6.8a15.27,15.27,0,0,0,3.66-7.7,7.14,7.14,0,0,0-2.75-6.8q-7.59-6.39-16.51,1.36Z"/>
    <path d="M454,151.64a20.57,20.57,0,0,1-1.61-5.69L450.43,148l-2.2-2.53,10.07-9.39,1.63,1.87a11.65,11.65,0,0,0-3.23,5.19,11.84,11.84,0,0,0-.22,5.91,11.67,11.67,0,0,0,2.64,5.29,11.43,11.43,0,0,0,5.25,3.54,5.17,5.17,0,0,0,5.29-1,5.54,5.54,0,0,0,2-3.46,10.6,10.6,0,0,0-.25-4.13c-.35-1.43-1-3.32-1.81-5.69a55.8,55.8,0,0,1-2.2-7.1,13.87,13.87,0,0,1,0-5.81,9.69,9.69,0,0,1,3.38-5.38,12.11,12.11,0,0,1,4.82-2.5,10.81,10.81,0,0,1,6.22.33,15.48,15.48,0,0,1,6.69,4.89,17.53,17.53,0,0,1,2.73,4.36,14.33,14.33,0,0,1,1.18,5.38l2.19-2.11,2.2,2.53-10.57,9.19-1.67-1.94a14.09,14.09,0,0,0,4.2-7.41,8.71,8.71,0,0,0-2.23-7.76,8.59,8.59,0,0,0-5.11-3.14,5.48,5.48,0,0,0-4.63,1.21,5.84,5.84,0,0,0-2,3.63,12.54,12.54,0,0,0,.23,4.41,50.43,50.43,0,0,0,1.81,5.85,61.21,61.21,0,0,1,2.05,7.12,14.29,14.29,0,0,1,0,5.79,9.19,9.19,0,0,1-3.14,5.11,10.56,10.56,0,0,1-6.18,2.77,12,12,0,0,1-6.34-1.27,17.11,17.11,0,0,1-5.43-4.24A22.21,22.21,0,0,1,454,151.64Z"/>
  </g>
</svg>
