<svg id="Layer_1" data-name="Layer 1" xmlns="http://www.w3.org/2000/svg" xmlns:xlink="http://www.w3.org/1999/xlink" width="521" height="186" viewBox="0 0 521 186">
  <defs>
    <linearGradient id="New_Gradient_Swatch_1" data-name="New Gradient Swatch 1" x1="438.15" y1="115.79" x2="446.98" y2="131.08" gradientTransform="translate(74.13 -150.05) rotate(20.88)" gradientUnits="userSpaceOnUse">
      <stop offset="0" stop-color="#3aff2a"/>
      <stop offset="1" stop-color="#003f05" stop-opacity="0.96"/>
    </linearGradient>
    <linearGradient id="linear-gradient" x1="63.14" y1="121.65" x2="65.54" y2="121.65" gradientUnits="userSpaceOnUse">
      <stop offset="0" stop-color="#fff"/>
      <stop offset="1" stop-color="#efe584" stop-opacity="0.96"/>
    </linearGradient>
    <linearGradient id="linear-gradient-2" x1="67.54" y1="120.08" x2="69.94" y2="120.08" xlink:href="#linear-gradient"/>
    <linearGradient id="linear-gradient-3" x1="62.56" y1="168.85" x2="64.96" y2="168.85" gradientTransform="translate(-0.18 -50.09) rotate(1.24)" xlink:href="#linear-gradient"/>
    <linearGradient id="linear-gradient-4" x1="356.4" y1="-20.89" x2="353.72" y2="-32.95" gradientTransform="translate(138.43 -292.29) rotate(65.25)" gradientUnits="userSpaceOnUse">
      <stop offset="0" stop-color="#e6e6e6"/>
      <stop offset="1" stop-color="#666"/>
    </linearGradient>
    <linearGradient id="linear-gradient-5" x1="337.31" y1="65.7" x2="351.93" y2="65.7" gradientTransform="translate(4.54 -19.64) rotate(3.35)" gradientUnits="userSpaceOnUse">
      <stop offset="0" stop-color="#f7931e"/>
      <stop offset="1" stop-color="#e8803a"/>
    </linearGradient>
    <linearGradient id="linear-gradient-6" x1="-573.9" y1="-464.42" x2="-572.98" y2="-464.42" gradientTransform="matrix(0.72, -0.12, -0.22, 0.9, 660.86, 404.55)" xlink:href="#linear-gradient-5"/>
    <linearGradient id="linear-gradient-7" x1="-934.96" y1="-670.21" x2="-934.04" y2="-670.21" gradientTransform="matrix(0.66, -0.16, -0.25, 0.87, 798.88, 493.76)" xlink:href="#linear-gradient-5"/>
    <linearGradient id="linear-gradient-8" x1="-310.09" y1="-316.87" x2="-309.25" y2="-316.87" gradientTransform="matrix(0.77, -0.09, -0.19, 0.92, 531.41, 320.89)" xlink:href="#linear-gradient-5"/>
    <linearGradient id="linear-gradient-9" x1="546.32" y1="167.56" x2="546.94" y2="167.56" gradientTransform="matrix(1.11, 0.13, 0, 1.04, -253.43, -186.38)" xlink:href="#linear-gradient-5"/>
    <linearGradient id="linear-gradient-10" x1="153.76" y1="-53.5" x2="154.52" y2="-53.5" gradientTransform="matrix(0.91, 0, -0.11, 0.97, 205.56, 110.28)" xlink:href="#linear-gradient-5"/>
    <linearGradient id="linear-gradient-11" x1="716.36" y1="264.51" x2="716.95" y2="264.51" gradientTransform="matrix(1.23, 0.21, 0.08, 1.08, -552.53, -379.7)" xlink:href="#linear-gradient-5"/>
    <linearGradient id="linear-gradient-12" x1="-42.07" y1="-163.77" x2="-41.23" y2="-163.77" gradientTransform="matrix(0.85, -0.04, -0.14, 0.94, 363.23, 212.19)" xlink:href="#linear-gradient-5"/>
    <linearGradient id="linear-gradient-13" x1="-18.1" y1="-149.68" x2="-17.35" y2="-149.68" gradientTransform="matrix(0.85, -0.04, -0.14, 0.95, 345.53, 200.75)" xlink:href="#linear-gradient-5"/>
    <linearGradient id="linear-gradient-14" x1="-571.62" y1="-463.76" x2="-570.7" y2="-463.76" gradientTransform="matrix(0.72, -0.12, -0.22, 0.9, 660.03, 404.02)" xlink:href="#linear-gradient-5"/>
    <linearGradient id="linear-gradient-15" x1="343.69" y1="66.45" x2="345.57" y2="66.45" xlink:href="#linear-gradient-5"/>
    <linearGradient id="linear-gradient-16" x1="120.68" y1="114.44" x2="123.05" y2="114.44" gradientTransform="translate(-39.41 85.13) rotate(-32.99)" gradientUnits="userSpaceOnUse">
      <stop offset="0" stop-color="#8c6239"/>
      <stop offset="0.13" stop-color="#724b29" stop-opacity="0.99"/>
      <stop offset="0.28" stop-color="#5d381c" stop-opacity="0.97"/>
      <stop offset="0.43" stop-color="#4e2b12" stop-opacity="0.97"/>
      <stop offset="0.62" stop-color="#45230d" stop-opacity="0.96"/>
      <stop offset="0.88" stop-color="#42210b" stop-opacity="0.96"/>
    </linearGradient>
    <linearGradient id="linear-gradient-17" x1="124.25" y1="114.39" x2="126.62" y2="114.39" xlink:href="#linear-gradient-16"/>
    <linearGradient id="linear-gradient-18" x1="466.03" y1="120.72" x2="471.97" y2="120.72" gradientTransform="matrix(0.45, -0.89, 1.32, 0.67, -254.34, 445.7)" gradientUnits="userSpaceOnUse">
      <stop offset="0" stop-color="#e2ccaf"/>
      <stop offset="0.28" stop-color="#e2caac"/>
      <stop offset="0.5" stop-color="#e3c3a2"/>
      <stop offset="0.7" stop-color="#e3b892"/>
      <stop offset="0.88" stop-color="#e4a77a"/>
      <stop offset="1" stop-color="#e59a67"/>
    </linearGradient>
    <linearGradient id="linear-gradient-19" x1="119.64" y1="108.01" x2="127.67" y2="108.01" xlink:href="#linear-gradient-16"/>
    <linearGradient id="linear-gradient-20" x1="1376.83" y1="123.8" x2="1380.81" y2="121.51" gradientTransform="matrix(-0.81, 0.59, 0.59, 0.81, 1155.15, -803.77)" gradientUnits="userSpaceOnUse">
      <stop offset="0" stop-color="#fff"/>
      <stop offset="1" stop-color="gray"/>
    </linearGradient>
    <linearGradient id="linear-gradient-21" x1="123.79" y1="102.69" x2="123.79" y2="95.46" gradientTransform="translate(-39.41 85.13) rotate(-32.99)" xlink:href="#linear-gradient-18"/>
    <linearGradient id="linear-gradient-22" x1="120.05" y1="96.21" x2="122.71" y2="96.21" gradientTransform="matrix(1, -0.05, 0.05, 1.04, 0.42, 11.63)" gradientUnits="userSpaceOnUse">
      <stop offset="0" stop-color="#666"/>
      <stop offset="0.07" stop-color="#7f7f7f" stop-opacity="0.99"/>
      <stop offset="0.16" stop-color="#969696" stop-opacity="0.99"/>
      <stop offset="0.25" stop-color="#a6a6a6" stop-opacity="0.98"/>
      <stop offset="0.36" stop-color="#b0b0b0" stop-opacity="0.98"/>
      <stop offset="0.51" stop-color="#b3b3b3" stop-opacity="0.98"/>
      <stop offset="0.61" stop-color="#afafaf" stop-opacity="0.98"/>
      <stop offset="0.71" stop-color="#a4a4a4" stop-opacity="0.98"/>
      <stop offset="0.8" stop-color="#909090" stop-opacity="0.97"/>
      <stop offset="0.9" stop-color="#757575" stop-opacity="0.97"/>
      <stop offset="0.99" stop-color="#535353" stop-opacity="0.96"/>
      <stop offset="1" stop-color="#4d4d4d" stop-opacity="0.96"/>
    </linearGradient>
    <linearGradient id="linear-gradient-23" x1="120.6" y1="96.19" x2="122.17" y2="96.19" gradientTransform="matrix(1, -0.05, 0.05, 1.04, 0.41, 11.63)" xlink:href="#linear-gradient-22"/>
    <linearGradient id="linear-gradient-24" x1="126.8" y1="108.45" x2="127.19" y2="108.45" gradientTransform="translate(-6.34 5.28) rotate(-3)" xlink:href="#linear-gradient-22"/>
    <linearGradient id="linear-gradient-25" x1="127.26" y1="108.65" x2="127.65" y2="108.65" gradientTransform="translate(-6.31 5.02) rotate(-3)" xlink:href="#linear-gradient-22"/>
    <linearGradient id="linear-gradient-26" x1="127.81" y1="108.43" x2="128.2" y2="108.43" gradientTransform="matrix(1, -0.05, 0.05, 1, -6.51, 4.78)" xlink:href="#linear-gradient-22"/>
    <linearGradient id="linear-gradient-27" x1="128.25" y1="107.95" x2="128.63" y2="107.95" gradientTransform="translate(-6.81 4.65) rotate(-3)" xlink:href="#linear-gradient-22"/>
    <linearGradient id="linear-gradient-28" x1="128.37" y1="107.16" x2="128.76" y2="107.16" gradientTransform="matrix(1, -0.05, 0.05, 1, -7.23, 4.71)" xlink:href="#linear-gradient-22"/>
    <linearGradient id="linear-gradient-29" x1="128.23" y1="106.42" x2="128.62" y2="106.42" gradientTransform="translate(-7.57 4.9) rotate(-3)" xlink:href="#linear-gradient-22"/>
    <linearGradient id="linear-gradient-30" x1="127.77" y1="105.79" x2="128.16" y2="105.79" gradientTransform="translate(-7.8 5.22) rotate(-3)" xlink:href="#linear-gradient-22"/>
    <linearGradient id="linear-gradient-31" x1="127.23" y1="105.7" x2="127.62" y2="105.7" gradientTransform="translate(-7.76 5.51) rotate(-3)" xlink:href="#linear-gradient-22"/>
    <linearGradient id="linear-gradient-32" x1="126.68" y1="106.02" x2="127.07" y2="106.02" gradientTransform="translate(-7.51 5.73) rotate(-3)" xlink:href="#linear-gradient-22"/>
    <linearGradient id="linear-gradient-33" x1="126.36" y1="106.56" x2="126.75" y2="106.56" gradientTransform="translate(-7.2 5.8) rotate(-3)" xlink:href="#linear-gradient-22"/>
    <linearGradient id="linear-gradient-34" x1="126.27" y1="107.3" x2="126.66" y2="107.3" gradientTransform="translate(-6.82 5.72) rotate(-3)" xlink:href="#linear-gradient-22"/>
    <linearGradient id="linear-gradient-35" x1="126.41" y1="107.93" x2="126.8" y2="107.93" gradientTransform="translate(-6.53 5.55) rotate(-3)" xlink:href="#linear-gradient-22"/>
    <linearGradient id="linear-gradient-36" x1="115.46" y1="106.89" x2="117.97" y2="106.89" gradientTransform="translate(-6.68 12.08) rotate(-3.7)" xlink:href="#linear-gradient-18"/>
    <linearGradient id="linear-gradient-37" x1="209.85" y1="56.72" x2="214.46" y2="56.72" gradientTransform="translate(6.56 7.45) scale(1 1.04)" xlink:href="#linear-gradient-22"/>
    <linearGradient id="linear-gradient-38" x1="210.8" y1="56.69" x2="213.53" y2="56.69" gradientTransform="translate(6.56 7.45) scale(1 1.04)" xlink:href="#linear-gradient-22"/>
    <linearGradient id="linear-gradient-39" x1="216.75" y1="67.96" x2="217.43" y2="67.96" gradientTransform="matrix(1, 0, 0, 1, 0, 0)" xlink:href="#linear-gradient-22"/>
    <linearGradient id="linear-gradient-40" x1="217.57" y1="68.25" x2="218.24" y2="68.25" gradientTransform="matrix(1, 0, 0, 1, 0, 0)" xlink:href="#linear-gradient-22"/>
    <linearGradient id="linear-gradient-41" x1="218.51" y1="67.96" x2="219.19" y2="67.96" gradientTransform="matrix(1, 0, 0, 1, 0, 0)" xlink:href="#linear-gradient-22"/>
    <linearGradient id="linear-gradient-42" x1="219.26" y1="67.32" x2="219.94" y2="67.32" gradientTransform="matrix(1, 0, 0, 1, 0, 0)" xlink:href="#linear-gradient-22"/>
    <linearGradient id="linear-gradient-43" x1="219.46" y1="66.24" x2="220.14" y2="66.24" gradientTransform="matrix(1, 0, 0, 1, 0, 0)" xlink:href="#linear-gradient-22"/>
    <linearGradient id="linear-gradient-44" x1="219.19" y1="65.23" x2="219.87" y2="65.23" gradientTransform="matrix(1, 0, 0, 1, 0, 0)" xlink:href="#linear-gradient-22"/>
    <linearGradient id="linear-gradient-45" x1="218.38" y1="64.37" x2="219.06" y2="64.37" gradientTransform="matrix(1, 0, 0, 1, 0, 0)" xlink:href="#linear-gradient-22"/>
    <linearGradient id="linear-gradient-46" x1="217.43" y1="64.22" x2="218.11" y2="64.22" gradientTransform="matrix(1, 0, 0, 1, 0, 0)" xlink:href="#linear-gradient-22"/>
    <linearGradient id="linear-gradient-47" x1="216.48" y1="64.66" x2="217.16" y2="64.66" gradientTransform="matrix(1, 0, 0, 1, 0, 0)" xlink:href="#linear-gradient-22"/>
    <linearGradient id="linear-gradient-48" x1="215.94" y1="65.38" x2="216.62" y2="65.38" gradientTransform="matrix(1, 0, 0, 1, 0, 0)" xlink:href="#linear-gradient-22"/>
    <linearGradient id="linear-gradient-49" x1="215.8" y1="66.38" x2="216.48" y2="66.38" gradientTransform="matrix(1, 0, 0, 1, 0, 0)" xlink:href="#linear-gradient-22"/>
    <linearGradient id="linear-gradient-50" x1="216.08" y1="67.25" x2="216.75" y2="67.25" gradientTransform="matrix(1, 0, 0, 1, 0, 0)" xlink:href="#linear-gradient-22"/>
    <radialGradient id="radial-gradient" cx="374.68" cy="142.31" r="3.44" gradientTransform="translate(36.49 -38.74) scale(1.14 1.34)" gradientUnits="userSpaceOnUse">
      <stop offset="0" stop-color="#f7931e"/>
      <stop offset="0.05" stop-color="#e98a1d"/>
      <stop offset="0.2" stop-color="#bf711a"/>
      <stop offset="0.35" stop-color="#9d5d17"/>
      <stop offset="0.51" stop-color="#824d15"/>
      <stop offset="0.66" stop-color="#6f4114"/>
      <stop offset="0.83" stop-color="#643a13"/>
      <stop offset="1" stop-color="#603813"/>
    </radialGradient>
    <linearGradient id="linear-gradient-51" x1="465.14" y1="153.62" x2="465.14" y2="144" gradientUnits="userSpaceOnUse">
      <stop offset="0" stop-color="#ed1c24"/>
      <stop offset="0.07" stop-color="#ee2c23"/>
      <stop offset="0.26" stop-color="#f15121"/>
      <stop offset="0.45" stop-color="#f46e20"/>
      <stop offset="0.64" stop-color="#f6821f"/>
      <stop offset="0.82" stop-color="#f78f1e"/>
      <stop offset="1" stop-color="#f7931e"/>
    </linearGradient>
    <linearGradient id="linear-gradient-52" x1="1661.51" y1="751.92" x2="1669.45" y2="751.92" gradientTransform="matrix(-0.36, -0.93, 1.38, -0.53, -25.63, 2009.09)" xlink:href="#linear-gradient-18"/>
    <linearGradient id="linear-gradient-53" x1="414.91" y1="59.01" x2="418" y2="59.01" gradientTransform="matrix(1, 0, 0, 1, 0, 0)" xlink:href="#linear-gradient-18"/>
    <linearGradient id="linear-gradient-54" x1="407.23" y1="65.24" x2="410.08" y2="65.24" gradientUnits="userSpaceOnUse">
      <stop offset="0" stop-color="#b21f02"/>
      <stop offset="0.56" stop-color="#701307" stop-opacity="0.98"/>
      <stop offset="1" stop-color="#3f0b0b" stop-opacity="0.96"/>
    </linearGradient>
    <linearGradient id="linear-gradient-55" x1="411.63" y1="65.24" x2="414.48" y2="65.24" xlink:href="#linear-gradient-54"/>
    <linearGradient id="linear-gradient-56" x1="738.5" y1="187.8" x2="745.57" y2="187.8" gradientTransform="matrix(0.87, -0.5, 0.74, 1.28, -376.6, 185.39)" xlink:href="#linear-gradient-18"/>
    <linearGradient id="linear-gradient-57" x1="405.93" y1="57.75" x2="415.54" y2="57.75" xlink:href="#linear-gradient-54"/>
    <linearGradient id="linear-gradient-58" x1="410.74" y1="51.48" x2="410.74" y2="43.13" gradientUnits="userSpaceOnUse">
      <stop offset="0" stop-color="#f2c88b"/>
      <stop offset="0.25" stop-color="#f2c589"/>
      <stop offset="0.45" stop-color="#f1bb82"/>
      <stop offset="0.63" stop-color="#efab77"/>
      <stop offset="0.8" stop-color="#ec9366"/>
      <stop offset="0.96" stop-color="#e97552"/>
      <stop offset="1" stop-color="#e86c4b"/>
    </linearGradient>
    <linearGradient id="linear-gradient-59" x1="397.72" y1="44.39" x2="415.15" y2="44.39" xlink:href="#linear-gradient"/>
    <linearGradient id="linear-gradient-60" x1="404.89" y1="48.08" x2="405.96" y2="48.08" xlink:href="#linear-gradient"/>
    <linearGradient id="linear-gradient-61" x1="406.47" y1="47.7" x2="407.78" y2="47.7" xlink:href="#linear-gradient"/>
    <linearGradient id="linear-gradient-62" x1="406.01" y1="48.26" x2="406.73" y2="48.26" xlink:href="#linear-gradient"/>
    <linearGradient id="linear-gradient-63" x1="1276.13" y1="51.86" x2="1281.2" y2="51.86" gradientTransform="matrix(-1, 0, 0, 1, 1692.79, 0)" gradientUnits="userSpaceOnUse">
      <stop offset="0" stop-color="#63080d"/>
      <stop offset="1" stop-color="#f15a24" stop-opacity="0.96"/>
    </linearGradient>
    <linearGradient id="linear-gradient-64" x1="1321.67" y1="-246.43" x2="1322.05" y2="-246.43" gradientTransform="matrix(-0.96, -0.27, -0.27, 0.96, 1617.03, 652.09)" xlink:href="#linear-gradient"/>
    <linearGradient id="linear-gradient-65" x1="400.76" y1="56.45" x2="403.85" y2="56.45" gradientTransform="matrix(1, 0, 0, 1, 0, 0)" xlink:href="#linear-gradient-18"/>
    <linearGradient id="linear-gradient-66" x1="285.31" y1="66.85" x2="288.8" y2="66.85" gradientUnits="userSpaceOnUse">
      <stop offset="0" stop-color="#a2ceed"/>
      <stop offset="0.12" stop-color="#99c7e8"/>
      <stop offset="0.32" stop-color="#7fb5da"/>
      <stop offset="0.57" stop-color="#5698c4"/>
      <stop offset="0.86" stop-color="#1d6fa6"/>
      <stop offset="0.99" stop-color="#005b97"/>
    </linearGradient>
    <linearGradient id="linear-gradient-67" x1="290.69" y1="66.85" x2="294.17" y2="66.85" xlink:href="#linear-gradient-66"/>
    <linearGradient id="linear-gradient-68" x1="775.49" y1="165.01" x2="783.63" y2="165.01" gradientTransform="matrix(0.8, -0.6, 0.89, 1.18, -485.41, 330.63)" xlink:href="#linear-gradient-18"/>
    <linearGradient id="linear-gradient-69" x1="284.78" y1="59.28" x2="294.7" y2="59.28" gradientUnits="userSpaceOnUse">
      <stop offset="0" stop-color="#009245"/>
      <stop offset="1" stop-color="#006837" stop-opacity="0.96"/>
    </linearGradient>
    <radialGradient id="radial-gradient-2" cx="755.83" cy="-87.98" r="5.36" gradientTransform="matrix(0.42, 0.9, -0.91, 0.42, -107.08, -600.25)" gradientUnits="userSpaceOnUse">
      <stop offset="0" stop-color="#666"/>
      <stop offset="1"/>
    </radialGradient>
    <linearGradient id="linear-gradient-70" x1="289.6" y1="52.94" x2="289.6" y2="44.5" gradientTransform="matrix(1, 0, 0, 1, 0, 0)" xlink:href="#linear-gradient-18"/>
    <linearGradient id="linear-gradient-71" x1="1179.46" y1="54.33" x2="1190.55" y2="54.33" gradientTransform="matrix(-1, 0, 0, 1, 1467.13, 0)" xlink:href="#linear-gradient-5"/>
    <linearGradient id="linear-gradient-72" x1="1184.3" y1="54.89" x2="1185.73" y2="54.89" gradientTransform="matrix(-1, 0, 0, 1, 1467.13, 0)" xlink:href="#linear-gradient-5"/>
    <linearGradient id="linear-gradient-73" x1="279.97" y1="58.83" x2="283.74" y2="58.83" gradientTransform="matrix(1, 0, 0, 1, 0, 0)" xlink:href="#linear-gradient-18"/>
    <linearGradient id="linear-gradient-74" x1="2070.75" y1="985.26" x2="2076.31" y2="985.26" gradientTransform="matrix(-0.58, -0.82, -0.82, 0.58, 2294.8, 1184.58)" gradientUnits="userSpaceOnUse">
      <stop offset="0" stop-color="#f6ff00"/>
      <stop offset="0.29" stop-color="#eddd00" stop-opacity="0.99"/>
      <stop offset="0.92" stop-color="#d78700" stop-opacity="0.96"/>
      <stop offset="1" stop-color="#d47c00" stop-opacity="0.96"/>
    </linearGradient>
    <linearGradient id="linear-gradient-75" x1="293.56" y1="57.53" x2="297.34" y2="57.53" gradientTransform="matrix(1, 0, 0, 1, 0, 0)" xlink:href="#linear-gradient-18"/>
  </defs>
  <title>title_2</title>
  <path d="M444.85,115.24c.92-1.49,4.38-.18,3.91,1.49s-1.91,5.51-2.14,5.42a11.24,11.24,0,0,1,3.89,1.52c.84,1.11.55,1.8-.8,2.09a10.34,10.34,0,0,1-4-1.53c-1.42,3.3-2.67,6.13-3.67,7.87-1.63.66-1.82.13-2.85-1,1.48-3,2.12-6.52,2.8-8a18.9,18.9,0,0,1-5.78-2.21,14.89,14.89,0,0,1,2.23-5.84c1.22-.53,2.15-.42,2.51,1-.37,1.56-.75,3.1-1.37,3.6a6.45,6.45,0,0,1,3.18,1.21C442.43,120.53,444,116.63,444.85,115.24Z" fill="url(#New_Gradient_Swatch_1)"/>
  <g>
    <path d="M63.75,118.38a5.07,5.07,0,0,0-.59,3A7,7,0,0,0,64.75,125a18.92,18.92,0,0,0,.79-3.85,5.86,5.86,0,0,0-1.19-2.83C64.23,118.48,64,118.45,63.75,118.38Z" fill="url(#linear-gradient)"/>
    <ellipse cx="64.06" cy="113.43" rx="0.74" ry="0.72" fill="#9b1012"/>
    <ellipse cx="64.06" cy="114.86" rx="0.74" ry="0.72" fill="#005e29"/>
    <ellipse cx="64.06" cy="116.29" rx="0.74" ry="0.72" fill="#9b1012"/>
    <ellipse cx="64.06" cy="117.73" rx="0.74" ry="0.72" fill="#005e29"/>
    <path d="M63.29,122.22a1.25,1.25,0,0,1,.53-.88,1.11,1.11,0,0,0,.65.48c.12-.29.28-.46.5-.48a3.33,3.33,0,0,1,.51.56,14.46,14.46,0,0,1-.68,3.1A6.61,6.61,0,0,1,63.29,122.22Z"/>
    <path d="M64,118.47a22.68,22.68,0,0,0,.66,4.94" fill="#fff"/>
  </g>
  <path d="M68.15,116.81a5.1,5.1,0,0,0-.6,3,7.12,7.12,0,0,0,1.59,3.6,18.72,18.72,0,0,0,.8-3.85,5.84,5.84,0,0,0-1.2-2.83C68.63,116.9,68.4,116.88,68.15,116.81Z" fill="url(#linear-gradient-2)"/>
  <path d="M59.39,116.81a5.15,5.15,0,0,0-.66,3,7,7,0,0,0,1.51,3.63,19.06,19.06,0,0,0,.88-3.84A5.81,5.81,0,0,0,60,116.76C59.87,116.92,59.64,116.89,59.39,116.81Z" fill="url(#linear-gradient-3)"/>
  <ellipse cx="68.46" cy="111.86" rx="0.74" ry="0.72" fill="#9b1012"/>
  <ellipse cx="68.46" cy="113.29" rx="0.74" ry="0.72" fill="#005e29"/>
  <ellipse cx="68.46" cy="114.72" rx="0.74" ry="0.72" fill="#9b1012"/>
  <ellipse cx="68.46" cy="116.15" rx="0.74" ry="0.72" fill="#005e29"/>
  <ellipse cx="59.8" cy="111.87" rx="0.74" ry="0.72" fill="#9b1012"/>
  <ellipse cx="59.8" cy="113.3" rx="0.74" ry="0.72" fill="#005e29"/>
  <ellipse cx="59.8" cy="114.74" rx="0.74" ry="0.72" fill="#9b1012"/>
  <ellipse cx="59.8" cy="116.17" rx="0.74" ry="0.72" fill="#005e29"/>
  <ellipse cx="64.14" cy="107.65" rx="5.82" ry="5.65" fill="#754c24"/>
  <ellipse cx="64.21" cy="107.65" rx="5.08" ry="4.99" fill="#fff"/>
  <path d="M67.67,104a8.56,8.56,0,0,0-3.53,3.6,6.67,6.67,0,0,1-3.53,3.61" fill="#42210b"/>
  <path d="M61.15,103.67a9.18,9.18,0,0,1,3,4,11.1,11.1,0,0,0,3.47,3.67" fill="#42210b"/>
  <path d="M67.69,120.65c.11-.41.25-.76.52-.88a1.1,1.1,0,0,0,.66.47c.12-.28.28-.45.49-.47a2.63,2.63,0,0,1,.51.55,15,15,0,0,1-.67,3.11A6.67,6.67,0,0,1,67.69,120.65Z"/>
  <path d="M58.86,120.66a1.28,1.28,0,0,1,.53-.88,1.07,1.07,0,0,0,.65.48c.12-.28.28-.45.5-.48a3.77,3.77,0,0,1,.51.56,14.68,14.68,0,0,1-.68,3.11A6.71,6.71,0,0,1,58.86,120.66Z"/>
  <path d="M68.38,116.9a22.68,22.68,0,0,0,.65,4.94" fill="#fff"/>
  <path d="M59.71,116.92a30.23,30.23,0,0,0,.33,4.61" fill="#fff"/>
  <path d="M319,18.22a.39.39,0,0,1-.62.3l-3.57-3.26L311.2,12a.48.48,0,0,1,.12-.75l4.46-2.11L320.23,7c.27-.14.55.12.49.45l-.87,5.37Z" fill="#cc841b"/>
  <ellipse cx="312.7" cy="17.84" rx="5.46" ry="10.6" transform="translate(107.02 254.05) rotate(-52.22)" fill="#cc841b"/>
  <ellipse cx="311.55" cy="18.87" rx="4.04" ry="8.71" transform="translate(107.83 255.34) rotate(-52.72)" fill="url(#linear-gradient-4)"/>
  <path d="M304,11.86c.93-1.66,2.67-2,4.89-1.7a17.32,17.32,0,0,1,5.65,2.31,20.55,20.55,0,0,1,4.76,4.24,10.92,10.92,0,0,1,2.38,5,4,4,0,0,1-.26,2.06h-.89l.71-1.55-.83-.4.49-1.39-1.05-.23.27-1.22-1.09,0,.14-1.47h-.92l-.3-1.14-1,.22.1-1.26-1.5.09L315.34,14l-1,.22L314,12.65l-1,.42-.52-1-1,.42-.65-1.22-.93.87-1-1.3-.93.87-.87-1.05-.79,1.1-.92-.84-.4,1Z" fill="#cc3e1d"/>
  <g>
    <path d="M34.74,153.05l-3-1.24q-5.81-2.44-7.4-3.29L21.5,152l-2.67-2.29L31.49,135l2,1.72a9.56,9.56,0,0,0-2.2,4.22,3.39,3.39,0,0,0,1.39,3,16.74,16.74,0,0,0,4,2.41q5,2.4,11.6,4.9l2.78,1.13,3.72,1.5c1.06.49,2.25,1,3.57,1.49l2.87,1.08q4.32,1.61,6.78,2.66l.1-.12q-3.08-4.76-5.87-9.37Q57.11,141.37,51.52,132q-5.85-9.77-7.38-12l1.67-1.94q3.11,1.41,9.93,4.2l9.87,4q6.78,2.66,9.54,3.87,2.05.91,6.27,2.64c3,1.2,5.6,2.28,7.68,3.21l.16-.18q-3.49-5.52-5.7-9.21Q77.43,116,72.71,108.58c-1.11-1.73-2-3.22-2.72-4.45a49.47,49.47,0,0,1-2.81-5.68l-4,5-2.67-2.29L71.09,88.84l2,1.72a11.2,11.2,0,0,0-1.93,4.09,7.44,7.44,0,0,0,.68,4.06,61.15,61.15,0,0,0,3.77,7.09l6.57,11q10.57,17.52,16.16,27.47l-1.56,1.82L54.57,129.59l23.3,38.56-1.51,1.76Z"/>
    <path d="M119.61,122.84a19.23,19.23,0,0,1-10.15-1.58,20.58,20.58,0,0,1-8.33-6.9,24.22,24.22,0,0,1-4.52-10.71,20.47,20.47,0,0,1,1.16-10.73,18.58,18.58,0,0,1,6.53-8.35,20,20,0,0,1,20-2.19,20.23,20.23,0,0,1,8.23,6.77A23.69,23.69,0,0,1,137,99.78a21,21,0,0,1-1.14,10.82,18.42,18.42,0,0,1-6.51,8.39A20.2,20.2,0,0,1,119.61,122.84Zm12.48-15.75a23.59,23.59,0,0,0-4.77-11.27,29.69,29.69,0,0,0-10.57-9.43q-5.81-2.9-10.66.63a9.82,9.82,0,0,0-4.35,9.2,22.59,22.59,0,0,0,4.63,11.47,31.93,31.93,0,0,0,6.75,6.91,16.66,16.66,0,0,0,7.64,3.29A9.6,9.6,0,0,0,128,116,9.21,9.21,0,0,0,132.09,107.09Z"/>
    <path d="M148.08,101.93a4.19,4.19,0,0,0,2.43-2.54,5.37,5.37,0,0,0-.27-3.18q-.65-1.69-2.38-5.12L139.6,74.83A33,33,0,0,1,137.53,70l-4.95,2.79-1.49-2.92,2.21-1.13A13.18,13.18,0,0,0,137,66.33a7.89,7.89,0,0,0,1.54-2.62l2.07-1.05c1.13,1.75,2.45,4,3.94,6.87A19.44,19.44,0,0,1,147,61.74,13.41,13.41,0,0,1,152.72,56a6.17,6.17,0,0,1,4.15-.67A4.52,4.52,0,0,1,160,57.92a4.23,4.23,0,0,1,.27,2.73,3.39,3.39,0,0,1-2,2.43,3.62,3.62,0,0,1-3.16.13,3.9,3.9,0,0,1-2.22-2.42,9.49,9.49,0,0,0-4.4,4.84,20,20,0,0,0-1.78,8.08l9,17.51a34.23,34.23,0,0,1,2.17,5l4.39-2.49,1.48,2.92-14.62,7.43Z"/>
    <path d="M177.14,87.79a4.16,4.16,0,0,0,2.7-2.26,5.29,5.29,0,0,0,.07-3.19A55.15,55.15,0,0,0,178.1,77L164.7,41.61a50.36,50.36,0,0,1-1.61-5L157.89,39l-1.19-3.14a29.44,29.44,0,0,0,6.2-2.95,7.5,7.5,0,0,0,2.39-2.62l2.17-.82L185.91,78a32.5,32.5,0,0,1,1.56,5.23l4.62-2,1.17,3.07L178,90Z"/>
    <path d="M205,79.15a16.93,16.93,0,0,1-7.59-5.46,23.75,23.75,0,0,1-4.6-9.85,24.75,24.75,0,0,1,0-11.82,19.62,19.62,0,0,1,15-14.66,20.2,20.2,0,0,1,5.11-.5,21,21,0,0,1,4.52.55l-2.49-10.67a48.13,48.13,0,0,1-.95-5.12l-5.46,1.6L207.75,20a28.89,28.89,0,0,0,6.46-2.08,7.4,7.4,0,0,0,2.71-2.28l2.26-.52L231,65.63a49.07,49.07,0,0,1,.92,5.37l5.46-1.6.77,3.27L227,75.27c-.58-1.34-1.08-2.65-1.49-3.93a16,16,0,0,1-4.58,5.18,17.73,17.73,0,0,1-6.65,3A16.23,16.23,0,0,1,205,79.15Zm15.9-6.7a14.88,14.88,0,0,0,3.53-4.73c-.24-.82-.6-2.24-1.07-4.27L218.24,41a14.4,14.4,0,0,0-9.28-.71A11,11,0,0,0,201,47q-2.34,5.43-.56,13.07,1.84,8,6,12.11a9.85,9.85,0,0,0,9.71,2.87A10.93,10.93,0,0,0,220.94,72.45Z"/>
    <path d="M274.62,68.64a24,24,0,0,1-9-10.31,30.86,30.86,0,0,1-2.49-15.14,35.4,35.4,0,0,1,4.08-14.57,27.23,27.23,0,0,1,10.18-10.71,26.14,26.14,0,0,1,15.44-3.39,34.32,34.32,0,0,1,8.67,1.71A28.19,28.19,0,0,1,309.11,20L309,16.1l4.4.28-1.16,18.28-2.87-.18c-.07-4.92-1.59-8.87-4.59-11.83a17.38,17.38,0,0,0-11.59-4.9,17.62,17.62,0,0,0-10.55,2.62,22.76,22.76,0,0,0-8,8.59,30.17,30.17,0,0,0-3.58,12.88A31.8,31.8,0,0,0,273,55.43a22.21,22.21,0,0,0,7,9.74,19.15,19.15,0,0,0,10.89,4,27,27,0,0,0,7.13-.55,22,22,0,0,0,6.77-2.58l1.1-17.49-5.6,0,.22-3.51,18,1.13-.17,2.64q-3.83-.24-5,2.61A21,21,0,0,0,312,58l-.77,12.21-2.16-.13a24.94,24.94,0,0,0-8.75,1.53,28.37,28.37,0,0,1-5.77,1.16,34.7,34.7,0,0,1-6,.18A28.79,28.79,0,0,1,274.62,68.64Z"/>
    <path d="M321.78,74.27a8.65,8.65,0,0,1-1.2-7.45,10,10,0,0,1,5.62-6.61A24,24,0,0,1,336.47,58a40.26,40.26,0,0,1,11.32,1.5l1.28-4.79a17.73,17.73,0,0,0,.63-8.24c-.47-2.14-2.31-3.64-5.5-4.5a11.26,11.26,0,0,0-4.83-.21,6.73,6.73,0,0,0-4,2.16,4.25,4.25,0,0,1,.22,3.21,3.56,3.56,0,0,1-1.43,2,3.14,3.14,0,0,1-2.76.38,3.36,3.36,0,0,1-2.27-1.73,4.09,4.09,0,0,1-.19-3,7,7,0,0,1,3.22-4.15,13.92,13.92,0,0,1,6.39-1.89,24.3,24.3,0,0,1,8.17.86q6.5,1.74,8.66,6c1.45,2.85,1.49,6.73.11,11.67l-4.73,17.36a49.62,49.62,0,0,1-1.71,5.18L354.64,81l-.87,3.24-11-3c0-.82.26-2.34.64-4.55q-7.16,4.13-13.65,2.39Q324.07,77.62,321.78,74.27ZM338.3,75.5a19.56,19.56,0,0,0,5.79-2.14c.16-.79.48-2.11,1-4l2-7.24a29.31,29.31,0,0,0-12-.43q-5.58,1-6.88,5.9a5.84,5.84,0,0,0,.53,4.86,6.39,6.39,0,0,0,3.91,2.7A12.77,12.77,0,0,0,338.3,75.5Z"/>
    <path d="M358,81.72a4.18,4.18,0,0,0,3.48.5,5.31,5.31,0,0,0,2.43-2.07q1-1.52,2.78-4.92L375,59a32.8,32.8,0,0,1,2.68-4.46l-5.19-2.34,1.55-3a26.43,26.43,0,0,0,6,2.52,7.1,7.1,0,0,0,3.38-.09l2.06,1.07c-.27.76-.83,2.06-1.67,3.91a20.27,20.27,0,0,1,6.56-.47,16.21,16.21,0,0,1,6.06,1.7,14.69,14.69,0,0,1,5.28,4.32,10.27,10.27,0,0,1,2,5.49,27,27,0,0,1,7.49-.44,17.29,17.29,0,0,1,6.77,1.8q6.25,3.24,7.15,8.53t-3.55,13.53l-6.92,13.17a35.17,35.17,0,0,1-2.79,4.68l4.58,2.11L414.93,114l-14.49-7.52,1.11-2.13a4.18,4.18,0,0,0,3.48.5,5.31,5.31,0,0,0,2.43-2.07q1-1.52,2.78-4.92l5.16-9.94q3.17-6.11,2.81-10.12t-4.47-6.15a12.51,12.51,0,0,0-4.93-1.34,15.54,15.54,0,0,0-5.25.47,19,19,0,0,1-2,5.55L392.78,93A35.17,35.17,0,0,1,390,97.63l4.58,2.11-1.51,2.91-14.49-7.52L379.68,93a4.18,4.18,0,0,0,3.48.5,5,5,0,0,0,2.36-2q.93-1.45,2.85-5l5.23-9.9q3.27-6.15,3-10.16a7.17,7.17,0,0,0-4.31-6.11A12.36,12.36,0,0,0,387.46,59a13.26,13.26,0,0,0-5,.55l-1.92,3.87-9.47,18.25a35.17,35.17,0,0,1-2.79,4.68l4.58,2.11-1.51,2.91-14.48-7.52Z"/>
    <path d="M424.8,122.26a18.34,18.34,0,0,1-.57-10.2,23.51,23.51,0,0,1,5.23-10.19,22.57,22.57,0,0,1,8.74-6.4,20.34,20.34,0,0,1,10.55-1.41,18.8,18.8,0,0,1,9.89,4.46,17,17,0,0,1,5,6.84,14.61,14.61,0,0,1,.63,8.32,20.1,20.1,0,0,1-4.61,8.82l-21.85-17.77q-6.25,7.29-7.22,13.48t4.23,10.57a17,17,0,0,0,7,3.4,16.33,16.33,0,0,0,7.6.23l.44,2.46a18.63,18.63,0,0,1-10.46.18,22.36,22.36,0,0,1-8.69-4.39A19.23,19.23,0,0,1,424.8,122.26Zm31-6.8a15.27,15.27,0,0,0,3.66-7.7,7.14,7.14,0,0,0-2.75-6.8q-7.59-6.39-16.51,1.36Z"/>
    <path d="M454,151.64a20.57,20.57,0,0,1-1.61-5.69L450.43,148l-2.2-2.53,10.07-9.39,1.63,1.87a11.65,11.65,0,0,0-3.23,5.19,11.84,11.84,0,0,0-.22,5.91,11.67,11.67,0,0,0,2.64,5.29,11.43,11.43,0,0,0,5.25,3.54,5.17,5.17,0,0,0,5.29-1,5.54,5.54,0,0,0,2-3.46,10.6,10.6,0,0,0-.25-4.13c-.35-1.43-1-3.32-1.81-5.69a55.8,55.8,0,0,1-2.2-7.1,13.87,13.87,0,0,1,0-5.81,9.69,9.69,0,0,1,3.38-5.38,12.11,12.11,0,0,1,4.82-2.5,10.81,10.81,0,0,1,6.22.33,15.48,15.48,0,0,1,6.69,4.89,17.53,17.53,0,0,1,2.73,4.36,14.33,14.33,0,0,1,1.18,5.38l2.19-2.11,2.2,2.53-10.57,9.19-1.67-1.94a14.09,14.09,0,0,0,4.2-7.41,8.71,8.71,0,0,0-2.23-7.76,8.59,8.59,0,0,0-5.11-3.14,5.48,5.48,0,0,0-4.63,1.21,5.84,5.84,0,0,0-2,3.63,12.54,12.54,0,0,0,.23,4.41,50.43,50.43,0,0,0,1.81,5.85,61.21,61.21,0,0,1,2.05,7.12,14.29,14.29,0,0,1,0,5.79,9.19,9.19,0,0,1-3.14,5.11,10.56,10.56,0,0,1-6.18,2.77,12,12,0,0,1-6.34-1.27,17.11,17.11,0,0,1-5.43-4.24A22.21,22.21,0,0,1,454,151.64Z"/>
  </g>
  <path d="M160.75,26l1.55.56a1.87,1.87,0,0,0,2.54-1h0a2.13,2.13,0,0,0-1.51-2.43l-1.54-.57a1.87,1.87,0,0,0-2.54,1h0A2.13,2.13,0,0,0,160.75,26Z" fill="#e8df9a"/>
  <path d="M161.79,22.57s.9-2.69,1-3.39c.39-1.85-1.33-2.66-2.12-.77-.28.64-1.59,5.55-1.59,5.55" fill="#e8df9a"/>
  <path d="M174.77,30.92l-1.54-.56a2.13,2.13,0,0,1-1.51-2.44h0a1.87,1.87,0,0,1,2.54-1l1.54.56A2.15,2.15,0,0,1,177.31,30h0A1.87,1.87,0,0,1,174.77,30.92Z" fill="#e8df9a"/>
  <path d="M167.67,29l-4.73-1.75c1.77-5.82,5.36-9.81,7.95-8.86s3.28,6.52,1.51,12.35Z" fill="#c4c4c4"/>
  <ellipse cx="164" cy="26.28" rx="0.48" ry="0.34" transform="translate(100.01 179.56) rotate(-76.44)" fill="#f9f9f9"/>
  <ellipse cx="165.14" cy="26.7" rx="0.48" ry="0.34" transform="translate(100.47 180.98) rotate(-76.44)" fill="#f9f9f9"/>
  <ellipse cx="166.32" cy="27.13" rx="0.48" ry="0.34" transform="translate(100.95 182.45) rotate(-76.44)" fill="#f9f9f9"/>
  <ellipse cx="167.45" cy="27.55" rx="0.48" ry="0.34" transform="translate(101.42 183.87) rotate(-76.44)" fill="#f9f9f9"/>
  <ellipse cx="168.84" cy="28.06" rx="0.48" ry="0.34" transform="translate(101.99 185.62) rotate(-76.44)" fill="#f9f9f9"/>
  <ellipse cx="169.98" cy="28.47" rx="0.48" ry="0.34" transform="translate(102.45 187.04) rotate(-76.44)" fill="#f9f9f9"/>
  <ellipse cx="171.11" cy="28.88" rx="0.48" ry="0.34" transform="translate(102.92 188.46) rotate(-76.44)" fill="#f9f9f9"/>
  <ellipse cx="172.17" cy="29.27" rx="0.48" ry="0.34" transform="translate(103.35 189.78) rotate(-76.44)" fill="#f9f9f9"/>
  <path d="M175.79,27.53s.76-2.75,1-3.4c.7-1.74,2.52-1.25,2.12.78-.13.69-1.76,5.49-1.76,5.49" fill="#e8df9a"/>
  <line x1="170.94" y1="18.4" x2="167.75" y2="28.9" fill="none"/>
  <ellipse cx="167.88" cy="20.97" rx="2.17" ry="0.73" transform="translate(70.4 159.25) rotate(-61.94)" fill="#fff"/>
  <g>
    <path d="M345,65.59l4.89-5.81a.87.87,0,0,1-.18-.27c-.06-.15.11-.31.11-.31a21,21,0,0,1,1.66-2,1.19,1.19,0,0,1,.35,0,.41.41,0,0,1,.5,0,.38.38,0,0,1,.11.49.67.67,0,0,1,.13.25,17.82,17.82,0,0,1-1.84,2.32.39.39,0,0,1-.31-.09l-4.53,6c.8,1,1.25,2,.8,2.74a1.94,1.94,0,0,1-.87.85l-.82.4c-.32.24-.53.78-.56,1.87a3.71,3.71,0,0,1-1.11,2.45,2.93,2.93,0,0,1-2.88.59c-1.74-.84-2.94-1.86-3.27-3.2a2.77,2.77,0,0,1,1-2.65,4.65,4.65,0,0,1,2.37-1.13,1.3,1.3,0,0,0,.93-1.18,2.34,2.34,0,0,1,.77-1.64A3.23,3.23,0,0,1,345,65.59Z" fill="url(#linear-gradient-5)"/>
    <ellipse cx="344.17" cy="67.68" rx="1.23" ry="1.26" transform="translate(256.52 407.31) rotate(-86.65)" fill="#773b13"/>
    <polygon points="349.97 59.15 349.5 58.85 349.64 58.64 350.11 58.93 349.97 59.15" fill="url(#linear-gradient-6)"/>
    <polygon points="350.59 58.24 350.19 57.98 350.33 57.77 350.74 58.02 350.59 58.24" fill="url(#linear-gradient-7)"/>
    <polygon points="350.91 57.85 350.44 57.5 350.58 57.28 351.05 57.63 350.91 57.85" fill="url(#linear-gradient-8)"/>
    <polygon points="352.87 58.46 352.31 58.07 352.44 57.85 353 58.23 352.87 58.46" fill="url(#linear-gradient-9)"/>
    <polygon points="352.2 59.33 351.66 58.99 351.81 58.77 352.35 59.11 352.2 59.33" fill="url(#linear-gradient-10)"/>
    <polygon points="352.53 58.89 351.94 58.51 352.09 58.3 352.68 58.67 352.53 58.89" fill="url(#linear-gradient-11)"/>
    <polygon points="351.86 59.76 351.32 59.42 351.46 59.2 352.01 59.55 351.86 59.76" fill="url(#linear-gradient-12)"/>
    <polygon points="351.57 60.13 351.08 59.82 351.23 59.61 351.71 59.91 351.57 60.13" fill="url(#linear-gradient-13)"/>
    <polygon points="350.31 58.71 349.84 58.42 349.99 58.2 350.45 58.5 350.31 58.71" fill="url(#linear-gradient-14)"/>
    <path d="M344.29,67.86l-.46-.32a.22.22,0,0,1-.06-.31l1.05-1.43a.21.21,0,0,1,.3,0l.47.33a.21.21,0,0,1,.05.3l-1,1.43A.22.22,0,0,1,344.29,67.86Z" fill="url(#linear-gradient-15)"/>
    <line x1="350.24" y1="60.14" x2="340.88" y2="72" fill="none"/>
    <line x1="350.1" y1="60.03" x2="340.67" y2="71.96" fill="none"/>
    <line x1="349.95" y1="59.91" x2="340.58" y2="71.78" fill="none"/>
    <polygon points="342.13 73.59 338.46 71.03 338.85 70.51 342.51 73.06 342.13 73.59" fill="#773b13"/>
  </g>
  <path d="M126.87,116.62l-.82.56a.65.65,0,0,1-.91-.2l-2-3.15a.68.68,0,0,1,.19-.93l.82-.56a.65.65,0,0,1,.91.2l2,3.14A.69.69,0,0,1,126.87,116.62Z" fill="url(#linear-gradient-16)"/>
  <path d="M129.84,114.63l-.83.55a.62.62,0,0,1-.9-.2l-2-3.14a.7.7,0,0,1,.2-.94l.82-.55a.65.65,0,0,1,.91.2l2,3.14A.69.69,0,0,1,129.84,114.63Z" fill="url(#linear-gradient-17)"/>
  <path d="M117.57,111.6l1.65-4.45a.8.8,0,0,0-.34-.89l-.5-.33a.46.46,0,0,0-.74.19L116,110.57a.8.8,0,0,0,.33.89l.51.34A.48.48,0,0,0,117.57,111.6Z" fill="url(#linear-gradient-18)"/>
  <path d="M128,111.2l-4.37,2.94a1.28,1.28,0,0,1-1.81-.4l-4-6.28a1.39,1.39,0,0,1,.39-1.88l4.37-2.94a1.29,1.29,0,0,1,1.82.4l3.94,6.28A1.39,1.39,0,0,1,128,111.2Z" fill="url(#linear-gradient-19)"/>
  <path d="M118.32,111.34l.05-.13a.82.82,0,0,0-.34-.9l-2.93-2a.46.46,0,0,0-.73.19l-.05.13a.84.84,0,0,0,.34.9l2.93,2A.45.45,0,0,0,118.32,111.34Z" fill="#9e0d0d"/>
  <ellipse cx="118.22" cy="111.22" rx="0.72" ry="0.94" transform="translate(-39.51 72.93) rotate(-29.61)" fill="#700b0b"/>
  <path d="M114,110.86l1.66-3.8a.8.8,0,0,0-.29-.91L113.85,105a.47.47,0,0,0-.75.13l-1.66,3.8a.83.83,0,0,0,.29.91L113.3,111A.46.46,0,0,0,114,110.86Z" fill="url(#linear-gradient-20)"/>
  <path d="M122.34,102.45l-4.16,2.8a1,1,0,0,1-1.33-.3l-2.75-4.39a1,1,0,0,1,.28-1.37l4.16-2.8a1,1,0,0,1,1.33.3l2.76,4.39A1,1,0,0,1,122.34,102.45Z" fill="url(#linear-gradient-21)"/>
  <path d="M112.28,102.81l2.39-1.6a.71.71,0,0,0,.19-.95l-.53-.85a.65.65,0,0,0-.92-.2l-2.38,1.6a.7.7,0,0,0-.2.94l.54.86A.65.65,0,0,0,112.28,102.81Z" fill="#e8df9a"/>
  <path d="M111.74,100.33s-1-1.64-1.25-2c-.76-1-1.92-.34-1.33.89.21.43,2.1,3.22,2.1,3.22" fill="#e8df9a"/>
  <path d="M122.37,95.9,120,97.51a.65.65,0,0,1-.91-.2l-.54-.86a.69.69,0,0,1,.19-.94l2.39-1.61a.65.65,0,0,1,.91.2l.54.86A.69.69,0,0,1,122.37,95.9Z" fill="#e8df9a"/>
  <path d="M117.57,99.64l-3,2c-2.15-3.43-2.58-7.15-1-8.24s4.73.84,6.89,4.28Z" fill="#c4c4c4"/>
  <ellipse cx="114.59" cy="100.61" rx="0.24" ry="0.32" transform="translate(-34.76 69.85) rotate(-29.65)" fill="#9b9b9b"/>
  <ellipse cx="115.3" cy="100.13" rx="0.24" ry="0.32" transform="translate(-34.44 70.14) rotate(-29.65)" fill="#9b9b9b"/>
  <ellipse cx="116.03" cy="99.64" rx="0.24" ry="0.32" transform="translate(-34.1 70.44) rotate(-29.65)" fill="#9b9b9b"/>
  <ellipse cx="116.74" cy="99.16" rx="0.24" ry="0.32" transform="translate(-33.77 70.73) rotate(-29.65)" fill="#9b9b9b"/>
  <ellipse cx="117.61" cy="98.58" rx="0.24" ry="0.32" transform="translate(-33.36 71.08) rotate(-29.65)" fill="#9b9b9b"/>
  <ellipse cx="118.32" cy="98.1" rx="0.24" ry="0.32" transform="translate(-33.04 71.37) rotate(-29.65)" fill="#9b9b9b"/>
  <ellipse cx="119.03" cy="97.62" rx="0.24" ry="0.32" transform="translate(-32.71 71.66) rotate(-29.65)" fill="#9b9b9b"/>
  <ellipse cx="119.69" cy="97.18" rx="0.24" ry="0.32" transform="translate(-32.4 71.93) rotate(-29.65)" fill="#9b9b9b"/>
  <path d="M120.4,94.38s-1.05-1.57-1.26-2c-.57-1.13.48-2,1.33-.9.29.37,2,3.3,2,3.3" fill="#e8df9a"/>
  <line x1="113.67" y1="93.36" x2="117.55" y2="99.55" fill="none"/>
  <ellipse cx="113.61" cy="96.18" rx="0.51" ry="1.48" transform="matrix(0.94, -0.34, 0.34, 0.94, -25.78, 43.95)" fill="#fff"/>
  <ellipse cx="116.97" cy="101.68" rx="0.34" ry="0.43" transform="translate(-34.8 70.24) rotate(-29.3)"/>
  <ellipse cx="119.6" cy="99.99" rx="0.34" ry="0.43" transform="translate(-33.63 71.32) rotate(-29.3)"/>
  <ellipse cx="119.02" cy="101.9" rx="0.72" ry="0.93" transform="translate(-34.64 71.28) rotate(-29.3)"/>
  <path d="M116.25,105.5a.72.72,0,0,0,.09,1,.57.57,0,0,0,.74.17s.35.76.72.52a1.17,1.17,0,0,0,.41-.78.45.45,0,0,0,.49.17c.34-.06.48-.66.48-.66s.49.18.76,0,.23-.65.23-.65c.39,0,.66.23,1-.13s.14-.6.14-.6l.67,0a.87.87,0,0,0,.56-.54c.21-.48.43-.13.61-.25s.14-.59.14-.59a4.06,4.06,0,0,0,.47-.48.65.65,0,0,0,.15-.78s.31-.53.09-.89-1-.16-1-.16a2,2,0,0,0-.83.19c-.27.18,0,1,0,1a1.11,1.11,0,0,0-1,0,.72.72,0,0,0-.24.84s-.66-.23-1,.13a1.31,1.31,0,0,0-.24.83s-.64-.4-.91-.22.1.77.1.77a2,2,0,0,0-1.26-.16c-.52.18,0,.65,0,.65s-1-.52-1.17-.22.26.83.26.83S116.36,105.26,116.25,105.5Z" fill="#fff"/>
  <g>
    <path d="M124.88,106.46l-1.74,1.17c-1.64-2.68-1.36-4.88.32-5.94L125,104C124.33,104.53,124.17,105.29,124.88,106.46Z" fill="#ad0202"/>
    <path d="M123.46,101.67c1.88-1,3.82-.2,5.31,2L127,104.9c-.74-.91-1.43-1.26-2-.93Z" fill="#ad0202"/>
    <path d="M124.88,106.46l-1.74,1.17c2,3,3.77,3.33,5.37,2.11l-1.63-2.59C126.24,107.45,125.58,107.38,124.88,106.46Z" fill="#ad0202"/>
    <path d="M127,104.89l1.74-1.17c1.68,2.74,1.62,4.77-.26,6l-1.63-2.59A1.72,1.72,0,0,0,127,104.89Z" fill="#ad0202"/>
    <path d="M123,102.08a1.5,1.5,0,0,1,1-.61l1.57,2.49,3.44,5.48a2.09,2.09,0,0,1-.95.63Z" fill="#fff"/>
    <path d="M128.38,103.21a3.06,3.06,0,0,1,.77,1.15l-1.79,1.24-3.8,2.64a3.13,3.13,0,0,1-.73-1.18Z" fill="#fff"/>
    <ellipse cx="125.89" cy="105.6" rx="1.32" ry="1.87" transform="translate(-36.09 77.99) rotate(-30.32)" fill="url(#linear-gradient-22)"/>
    <ellipse cx="125.89" cy="105.57" rx="0.78" ry="1.11" transform="translate(-36.08 77.98) rotate(-30.32)" fill="url(#linear-gradient-23)"/>
    <ellipse cx="126.15" cy="106.94" rx="0.19" ry="0.26" transform="translate(-36.57 77.39) rotate(-30)" fill="url(#linear-gradient-24)"/>
    <ellipse cx="126.65" cy="106.86" rx="0.19" ry="0.26" transform="translate(-36.46 77.63) rotate(-30)" fill="url(#linear-gradient-25)"/>
    <ellipse cx="126.99" cy="106.38" rx="0.19" ry="0.26" transform="translate(-36.17 77.73) rotate(-30)" fill="url(#linear-gradient-26)"/>
    <ellipse cx="127.1" cy="105.73" rx="0.19" ry="0.26" transform="translate(-35.84 77.7) rotate(-30)" fill="url(#linear-gradient-27)"/>
    <ellipse cx="126.77" cy="105" rx="0.19" ry="0.26" transform="translate(-35.51 77.44) rotate(-30)" fill="url(#linear-gradient-28)"/>
    <ellipse cx="126.25" cy="104.46" rx="0.19" ry="0.26" transform="translate(-35.31 77.11) rotate(-30)" fill="url(#linear-gradient-29)"/>
    <ellipse cx="125.52" cy="104.18" rx="0.19" ry="0.26" transform="translate(-35.27 76.71) rotate(-30)" fill="url(#linear-gradient-30)"/>
    <ellipse cx="125.02" cy="104.4" rx="0.19" ry="0.26" transform="translate(-35.45 76.48) rotate(-30)" fill="url(#linear-gradient-31)"/>
    <ellipse cx="124.73" cy="104.97" rx="0.19" ry="0.26" transform="translate(-35.77 76.42) rotate(-30)" fill="url(#linear-gradient-32)"/>
    <ellipse cx="124.75" cy="105.59" rx="0.19" ry="0.26" transform="translate(-36.08 76.51) rotate(-30)" fill="url(#linear-gradient-33)"/>
    <ellipse cx="125.08" cy="106.26" rx="0.19" ry="0.26" transform="translate(-36.37 76.76) rotate(-30)" fill="url(#linear-gradient-34)"/>
    <ellipse cx="125.55" cy="106.71" rx="0.19" ry="0.26" transform="translate(-36.53 77.06) rotate(-30)" fill="url(#linear-gradient-35)"/>
  </g>
  <ellipse cx="116.68" cy="111.22" rx="1.25" ry="1.6" transform="translate(-39.5 71.33) rotate(-29.3)" fill="url(#linear-gradient-36)"/>
  <path d="M215.67,66.45H212c.06-4.27,2.51-6.55,6-6.47l.07,3.73A2.43,2.43,0,0,0,215.67,66.45Z" fill="#ad0202"/>
  <path d="M218,60c3.72.27,5.81,2.69,5.93,6.36h-3.68c-.25-1.58-.94-2.51-2.14-2.59Z" fill="#ad0202"/>
  <path d="M215.67,66.45H212c.18,5,2.48,6.63,6,6.48V68.76A2.35,2.35,0,0,1,215.67,66.45Z" fill="#ad0202"/>
  <path d="M220.27,66.31h3.66c-.07,4.38-2,6.62-6,6.62V68.76A2.43,2.43,0,0,0,220.27,66.31Z" fill="#ad0202"/>
  <path d="M216.87,60a3.35,3.35,0,0,1,2,0V72.89a4.41,4.41,0,0,1-2,0Z" fill="#fff"/>
  <path d="M223.83,65.44a3.32,3.32,0,0,1,.06,1.88l-3.78,0-8,.1a3.34,3.34,0,0,1,0-1.88Z" fill="#fff"/>
  <ellipse cx="217.95" cy="66.25" rx="2.3" ry="2.54" fill="url(#linear-gradient-37)"/>
  <ellipse cx="217.96" cy="66.22" rx="1.36" ry="1.5" fill="url(#linear-gradient-38)"/>
  <ellipse cx="217.09" cy="67.96" rx="0.34" ry="0.36" fill="url(#linear-gradient-39)"/>
  <ellipse cx="217.9" cy="68.25" rx="0.34" ry="0.36" fill="url(#linear-gradient-40)"/>
  <ellipse cx="218.85" cy="67.96" rx="0.34" ry="0.36" fill="url(#linear-gradient-41)"/>
  <ellipse cx="219.6" cy="67.32" rx="0.34" ry="0.36" fill="url(#linear-gradient-42)"/>
  <ellipse cx="219.8" cy="66.24" rx="0.34" ry="0.36" fill="url(#linear-gradient-43)"/>
  <ellipse cx="219.53" cy="65.23" rx="0.34" ry="0.36" fill="url(#linear-gradient-44)"/>
  <ellipse cx="218.72" cy="64.37" rx="0.34" ry="0.36" fill="url(#linear-gradient-45)"/>
  <ellipse cx="217.77" cy="64.22" rx="0.34" ry="0.36" fill="url(#linear-gradient-46)"/>
  <ellipse cx="216.82" cy="64.66" rx="0.34" ry="0.36" fill="url(#linear-gradient-47)"/>
  <ellipse cx="216.28" cy="65.38" rx="0.34" ry="0.36" fill="url(#linear-gradient-48)"/>
  <ellipse cx="216.14" cy="66.38" rx="0.34" ry="0.36" fill="url(#linear-gradient-49)"/>
  <ellipse cx="216.41" cy="67.25" rx="0.34" ry="0.36" fill="url(#linear-gradient-50)"/>
  <ellipse cx="465.15" cy="151.48" rx="4.64" ry="3.59" fill="url(#radial-gradient)"/>
  <g>
    <ellipse cx="462.07" cy="154.81" rx="1.1" ry="1.28" fill="#757372"/>
    <ellipse cx="460.63" cy="153.31" rx="1.1" ry="1.28" fill="#757372"/>
    <ellipse cx="460.1" cy="151.1" rx="1.1" ry="1.28" fill="#757372"/>
    <ellipse cx="461.08" cy="148.88" rx="1.1" ry="1.28" fill="#757372"/>
    <ellipse cx="462.83" cy="147.56" rx="1.1" ry="1.28" fill="#757372"/>
    <ellipse cx="464.87" cy="147.2" rx="1.1" ry="1.28" fill="#757372"/>
    <ellipse cx="466.92" cy="147.56" rx="1.1" ry="1.28" fill="#757372"/>
    <ellipse cx="468.89" cy="148.53" rx="1.1" ry="1.28" fill="#757372"/>
    <ellipse cx="469.8" cy="150.74" rx="1.1" ry="1.28" fill="#757372"/>
    <ellipse cx="469.57" cy="153.22" rx="1.1" ry="1.28" fill="#757372"/>
    <ellipse cx="468.06" cy="154.81" rx="1.1" ry="1.28" fill="#757372"/>
    <ellipse cx="466.01" cy="155.43" rx="1.1" ry="1.28" fill="#757372"/>
    <ellipse cx="464.04" cy="155.43" rx="1.1" ry="1.28" fill="#757372"/>
  </g>
  <path d="M463.46,153.11a12.36,12.36,0,0,1-.65-1.86c-.05-.22-.09-.44-.12-.65a7.14,7.14,0,0,1,.92-3.14,5.93,5.93,0,0,0-.54-3.46,2.62,2.62,0,0,1,1.46,1.57l.08-1.15c.38.83.61,1.82.77,2,0-.26.54-.79,1-1.26a6.07,6.07,0,0,0,0,2.83l.39-.94a15.76,15.76,0,0,1,.84,3.77,3.56,3.56,0,0,1-.75,2.21A2.9,2.9,0,0,1,463.46,153.11Z" fill="url(#linear-gradient-51)"/>
  <path d="M462.84,151.36a12.18,12.18,0,0,0,.63,1.79,3,3,0,0,0,3.24,0,3.23,3.23,0,0,0,.88-2,4.48,4.48,0,0,0-.92-1.77c-.26.43-.34,1.41-.57,1.53a3.54,3.54,0,0,1-.91-1.82c-.28.11-.23,1.08-.16,1.82a2,2,0,0,1-1.15-1.53A4.42,4.42,0,0,0,462.84,151.36Z" fill="none"/>
  <path d="M417.3,58.65l-1.91-6.06a.62.62,0,0,0-.84-.46l-.58.27a.88.88,0,0,0-.38,1l1.91,6.06a.64.64,0,0,0,.85.46l.58-.28A.85.85,0,0,0,417.3,58.65Z" fill="url(#linear-gradient-52)"/>
  <ellipse cx="416.46" cy="59.01" rx="1.54" ry="1.87" fill="url(#linear-gradient-53)"/>
  <rect x="407.23" y="62.28" width="2.85" height="5.9" rx="0.52" fill="url(#linear-gradient-54)"/>
  <rect x="411.63" y="62.28" width="2.85" height="5.9" rx="0.52" fill="url(#linear-gradient-55)"/>
  <path d="M403,57.39l4.63-3.24a.89.89,0,0,0,.24-1.08l-.31-.66a.6.6,0,0,0-.89-.29L402,55.36a.9.9,0,0,0-.24,1.09l.31.65A.59.59,0,0,0,403,57.39Z" fill="url(#linear-gradient-56)"/>
  <rect x="405.93" y="51.9" width="9.61" height="11.69" rx="0.61" fill="url(#linear-gradient-57)"/>
  <rect x="406.46" y="43.13" width="8.55" height="8.35" rx="0.48" fill="url(#linear-gradient-58)"/>
  <path d="M412.6,49.47a10.57,10.57,0,0,1-3.68,0v-.58a7.28,7.28,0,0,0,3.68,0Z"/>
  <rect x="412.11" y="47.31" width="1.87" height="0.28" fill="red"/>
  <rect x="407.55" y="47.31" width="1.87" height="0.28" fill="red"/>
  <rect x="407.55" y="47.88" width="1.87" height="0.28" fill="red"/>
  <rect x="412.11" y="47.88" width="1.87" height="0.28" fill="red"/>
  <path d="M407,46.6c.34-2.15,2-3,4.43-3.19A7,7,0,0,1,415,44c.78-1.48-2.62-6-4.86-6.23-2.23-1.09-5.46-.12-7.72.21,2.37.09,4.19.55,3.89,2-2.26-1.09-4.45-.72-6.63,0,2.76.23,5.15.61,5.47,1.83-2.1-1.06-4.32-.34-6.56.63,2.5-.16,5-.33,5.95.42-2.61-.49-4.75,1.43-6.86,3.5,2.8-1.26,5.58-2.5,6.68-1.93-2.35.45-4.07,2.61-5.53,5.39,2.28-2.09,4.58-4,7-4.19a3.88,3.88,0,0,0-1.4,3.9,7.93,7.93,0,0,0,.61,1.91,15.84,15.84,0,0,1,.66-1.74c.31-.64.42-1.11,1-1.14Z" fill="url(#linear-gradient-59)"/>
  <path d="M405.42,50.06a6.38,6.38,0,0,1-.37-4,.81.81,0,0,0,.91.36A8.33,8.33,0,0,0,405.42,50.06Z" fill="url(#linear-gradient-60)"/>
  <path d="M407.09,46a6.53,6.53,0,0,1,.69,3.45,7.31,7.31,0,0,0-1.31-3Z" fill="url(#linear-gradient-61)"/>
  <path d="M406.08,46.45a7.27,7.27,0,0,0,.49,3.71,11.54,11.54,0,0,0,0-3.8Z" fill="url(#linear-gradient-62)"/>
  <path d="M406.41,44.46c.17-.21.35-.41.53-.6,1.69-1.71,4.09-2.52,7.95-1.63l-1,1.38L413,42a7.86,7.86,0,0,1-1.22,1.42L410.63,42a3.29,3.29,0,0,1-.68,1.66l-2-.62.27,1.28C407.14,44.15,406.58,44.21,406.41,44.46Z" fill="#9b1012"/>
  <path d="M415,44a3.41,3.41,0,0,0-.15-1.73l-1,1.31L413,42l-1.09,1.44-1.16-1.26-.59,1.47-2.2-.55.41,1.3a4.41,4.41,0,0,0-1.84-.06l.84,1.25A13.64,13.64,0,0,1,415,44Z" fill="#005e29"/>
  <path d="M401.43,46.3c.65-.17,1,.05.92.73a21.68,21.68,0,0,0-3.9,3.34A18.32,18.32,0,0,1,401.43,46.3Z" fill="#191919"/>
  <path d="M402.21,46.4A27.78,27.78,0,0,0,399,49.56" fill="#f9f7e5"/>
  <path d="M400.28,44.07c.71.12,1.12.35,1.11.73-1.34.53-2.68,1.07-4,1.62A15.07,15.07,0,0,1,400.28,44.07Z" fill="#191919"/>
  <path d="M400.71,41.55c.4.27.48.53.24.79a26.27,26.27,0,0,0-3.22.26Z" fill="#191919"/>
  <path d="M402.18,39.3c.36.27.4.59-.08,1a9.07,9.07,0,0,0-3-.24A7.4,7.4,0,0,1,402.18,39.3Z" fill="#191919"/>
  <path d="M404.9,37.59c.11.22,0,.45-.31.67l-2.65-.21A15.84,15.84,0,0,1,404.9,37.59Z" fill="#191919"/>
  <path d="M404.41,49.22a1.2,1.2,0,0,1,1.43.29,8.68,8.68,0,0,0-.83,2.43A7.87,7.87,0,0,1,404.41,49.22Z" fill="#191919"/>
  <path d="M405.22,48.88a11.84,11.84,0,0,0-.18,3.4" fill="none"/>
  <path d="M402.37,46.16c-1.29,1.23-2.64,2.69-4,4.29" fill="none"/>
  <path d="M401.38,44.22A34,34,0,0,0,397,46.79" fill="none"/>
  <path d="M401,41.87a21,21,0,0,0-3.55.73" fill="none"/>
  <path d="M402.45,39.71a11.72,11.72,0,0,0-3.61.38" fill="none"/>
  <path d="M404.9,37.92c-.69,0-1.86,0-3.14.13" fill="none"/>
  <path d="M404.81,48.07h.08l.61.11a13.1,13.1,0,0,0-.08,2" fill="#191919"/>
  <path d="M406.08,48.26h.65l-.13,1.93A7,7,0,0,1,406.08,48.26Z" fill="#191919"/>
  <polygon points="407.33 47.62 407.6 47.29 407.81 49.56 407.33 47.62" fill="#191919"/>
  <path d="M414.76,42.08l-.57-1c-3.66-1.5-10.56,1.9-8.91,4.69l.56-.15a1,1,0,0,1,.57-1.19A6.83,6.83,0,0,1,410.47,42,23,23,0,0,1,414.76,42.08Z" fill="#d34802"/>
  <path d="M407.3,45.54a1.15,1.15,0,0,1-1.22,1.05,1.31,1.31,0,0,1-.82-.28,1,1,0,0,1-.4-.77,1.24,1.24,0,0,1,2.44,0Z" fill="#9b1012"/>
  <path d="M404.93,45.66l.6-.42.55.61.67-.61.36.53c.28-.62.15-1.13-.86-1.42C405.08,44.42,404.83,45,404.93,45.66Z" fill="#005e29"/>
  <path d="M411.82,49.32c1.31,1.62,2.8,3.7,3.43,3.6l.13-1.05a.88.88,0,0,0,1.28,0,3.68,3.68,0,0,1-.64,2c-.59.61-1,.78-1.6.17a42.56,42.56,0,0,1-2.83-4.6Z" fill="url(#linear-gradient-63)"/>
  <ellipse cx="416.02" cy="51.89" rx="0.64" ry="0.31" fill="#282828"/>
  <polygon points="414.2 52.2 413.54 52.81 413.26 52.36 413.88 51.86 414.2 52.2" fill="#005e29"/>
  <polygon points="413.91 51.9 413.28 52.36 412.98 51.86 413.59 51.52 413.91 51.9" fill="#d34802"/>
  <g>
    <path d="M413.16,53a1.37,1.37,0,0,1,0,.62,1.48,1.48,0,0,1-.4.61,5.78,5.78,0,0,1,0-.79,1.17,1.17,0,0,1,.31-.48S413.12,53,413.16,53Z" fill="url(#linear-gradient-64)"/>
    <ellipse cx="413.28" cy="52.33" rx="0.14" ry="0.11" transform="matrix(0.04, -1, 1, 0.04, 344.78, 463.23)" fill="#005e29"/>
    <ellipse cx="413.21" cy="52.6" rx="0.14" ry="0.11" transform="translate(344.44 463.43) rotate(-87.75)" fill="#9b1012"/>
    <ellipse cx="413.15" cy="52.88" rx="0.14" ry="0.11" transform="translate(344.1 463.63) rotate(-87.75)" fill="#005e29"/>
    <path d="M413.06,53.79c0-.09,0-.16,0-.2a.17.17,0,0,1-.12.06.14.14,0,0,0,0-.12c-.05,0-.08,0-.1.08a4.31,4.31,0,0,0,0,.64A1.43,1.43,0,0,0,413.06,53.79Z"/>
    <path d="M413.13,53a9.87,9.87,0,0,0-.38,1.16" fill="#fff"/>
  </g>
  <ellipse cx="414.47" cy="47.37" rx="0.8" ry="0.97" fill="#666" opacity="0.5"/>
  <ellipse cx="416.07" cy="47.65" rx="0.8" ry="0.97" opacity="0.5"/>
  <ellipse cx="415.13" cy="49.01" rx="0.55" ry="0.67" fill="#666" opacity="0.5"/>
  <ellipse cx="415.95" cy="50.79" rx="0.37" ry="0.44" fill="#666" opacity="0.5"/>
  <ellipse cx="413.99" cy="48.73" rx="0.37" ry="0.44" opacity="0.5"/>
  <ellipse cx="415.4" cy="46.35" rx="0.37" ry="0.44" fill="#666" opacity="0.5"/>
  <ellipse cx="417.28" cy="48.73" rx="0.68" ry="0.83" fill="#666" opacity="0.5"/>
  <ellipse cx="416.8" cy="50.2" rx="0.62" ry="0.75" opacity="0.5"/>
  <line x1="401.82" y1="46.17" x2="408.72" y2="61.54" fill="none" stroke="#000" stroke-miterlimit="10" stroke-width="0.25"/>
  <path d="M402,46.13s-1.95,6,.39,10.51a9.31,9.31,0,0,0,6.56,5.08" fill="none" stroke="#603813" stroke-miterlimit="10"/>
  <ellipse cx="402.3" cy="56.45" rx="1.54" ry="1.87" fill="url(#linear-gradient-65)"/>
  <rect x="412.31" y="46.24" width="1.29" height="0.31"/>
  <rect x="407.99" y="46.24" width="1.29" height="0.31"/>
  <rect x="285.31" y="63.86" width="3.49" height="5.97" rx="1.09" fill="url(#linear-gradient-66)"/>
  <rect x="290.69" y="63.86" width="3.49" height="5.97" rx="0.69" fill="url(#linear-gradient-67)"/>
  <path d="M282.3,59.89,287.52,56a.81.81,0,0,0,.16-1.12l-.46-.61a.79.79,0,0,0-1.12-.16L280.88,58a.8.8,0,0,0-.16,1.12l.46.61A.81.81,0,0,0,282.3,59.89Z" fill="url(#linear-gradient-68)"/>
  <rect x="284.78" y="53.24" width="9.91" height="12.07" rx="2.16" fill="url(#linear-gradient-69)"/>
  <path d="M293.65,43c.12.15,0,.32-.25.3L289.62,43l-3.79-.29c-.23,0-.39-.21-.28-.34l1.77-2.16L289.09,38a.39.39,0,0,1,.53,0l2,2.45Z" fill="#cc841b"/>
  <ellipse cx="289.52" cy="45.49" rx="4.31" ry="8.33" transform="translate(238.35 334.06) rotate(-88.87)" fill="#cc841b"/>
  <ellipse cx="289.28" cy="46.69" rx="3.18" ry="6.85" transform="matrix(0.01, -1, 1, 0.01, 239.47, 335.45)" fill="url(#radial-gradient-2)"/>
  <path d="M281.24,45.8c-.19-1.48.72-2.55,2.28-3.38a13.66,13.66,0,0,1,4.65-1.2,16.39,16.39,0,0,1,5,.45,8.35,8.35,0,0,1,3.82,2,3.16,3.16,0,0,1,.81,1.43l-.57.41-.28-1.32-.71.14-.34-1.11-.77.35-.4-.9-.71.49-.59-1-.58.44-.72-.58-.51.59-.53-.84-.9.76-.79-.73-.51.59-1-.82-.44.74-.78-.37-.45.74-1-.46-.17,1-1.24-.35-.18,1-1-.25,0,1.07-1-.1.21.81Z" fill="#cc3e1d"/>
  <rect x="284.37" y="44.5" width="10.46" height="8.44" rx="2.07" fill="url(#linear-gradient-70)"/>
  <circle cx="287.13" cy="48.65" r="0.51"/>
  <circle cx="291.85" cy="48.72" r="0.51"/>
  <path d="M289.71,44.5a9,9,0,0,1-3.8,3,6,6,0,0,0-3.14.86c-.15-1.57,1.94-4.32,3.13-3.86A7.31,7.31,0,0,1,289.71,44.5Z"/>
  <path d="M289.2,44.48a9,9,0,0,0,3.8,3,6,6,0,0,1,3.14.87c.15-1.58-1.94-4.33-3.13-3.87A11.36,11.36,0,0,0,289.2,44.48Z"/>
  <path d="M282,54l-3.44-4.64a.59.59,0,0,0,.15-.19c.05-.11-.07-.24-.07-.24a17.27,17.27,0,0,0-1.17-1.63.83.83,0,0,0-.27,0,.29.29,0,0,0-.37,0,.31.31,0,0,0-.11.37.51.51,0,0,0-.11.18,13.81,13.81,0,0,0,1.3,1.85.28.28,0,0,0,.23,0l3.16,4.77c-.65.75-1,1.46-.72,2.05a1.5,1.5,0,0,0,.62.69l.6.33c.23.2.37.62.34,1.45a2.82,2.82,0,0,0,.73,1.91,2.23,2.23,0,0,0,2.16.58,4.08,4.08,0,0,0,2.61-2.29A2.13,2.13,0,0,0,287,57a3.55,3.55,0,0,0-1.74-1,1,1,0,0,1-.66-.94,1.76,1.76,0,0,0-.51-1.27A2.39,2.39,0,0,0,282,54Z" fill="url(#linear-gradient-71)"/>
  <ellipse cx="282.48" cy="55.58" rx="0.95" ry="0.94" fill="#773b13"/>
  <path d="M282.39,55.72l.36-.23a.17.17,0,0,0,.06-.23l-.73-1.13a.18.18,0,0,0-.23-.06l-.37.23a.16.16,0,0,0-.05.23l.72,1.13A.19.19,0,0,0,282.39,55.72Z" fill="url(#linear-gradient-72)"/>
  <line x1="278.22" y1="49.58" x2="284.78" y2="59.01" fill="none"/>
  <line x1="278.34" y1="49.5" x2="284.94" y2="58.99" fill="none"/>
  <line x1="278.46" y1="49.43" x2="285.02" y2="58.85" fill="none"/>
  <polygon points="283.77 60.16 286.65 58.38 286.39 57.97 283.5 59.75 283.77 60.16" fill="#773b13"/>
  <circle cx="281.85" cy="58.83" r="1.89" fill="url(#linear-gradient-73)"/>
  <path d="M291.28,51c.28.58,1.08.78,2,.9-1.19.39-2.39.78-3.74-.55C289,50,290.9,49.57,291.28,51Z"/>
  <path d="M287.7,51c-.28.58-1.08.78-2,.9,1.19.39,2.39.78,3.74-.55C290,50,288.08,49.57,287.7,51Z"/>
  <g>
    <path d="M297.68,54.38s.08-.57-.31-.71-.41.09-.41.09c-.22-.32-.44-.61-.72-.62l-.47,0s-.18-.39-.48-.28a.29.29,0,0,0-.22.36s-.59-.3-1,0-.29.41-.29.41a2,2,0,0,0-.61.22,1.57,1.57,0,0,0-.36.56,3.33,3.33,0,0,0-.67.27c-.19.14-.08.57-.08.57s-.39.39-.26.71a2,2,0,0,1,.14.61s-.21-.16-.25.59a1,1,0,0,0,.68,1c.06.57-.11.41,0,.59a7.17,7.17,0,0,1,.58.83,3.75,3.75,0,0,0,.58.82c.36.37.77,0,.77,0Z" fill="#119800"/>
    <ellipse cx="295.9" cy="53.89" rx="0.7" ry="0.76" transform="translate(20 173.64) rotate(-33.78)" fill="#d20005"/>
    <ellipse cx="293.97" cy="54.53" rx="0.7" ry="0.76" transform="translate(19.32 172.68) rotate(-33.78)" fill="#d20005"/>
    <ellipse cx="292.83" cy="56.16" rx="0.7" ry="0.76" transform="translate(18.22 172.32) rotate(-33.78)" fill="#d20005"/>
    <ellipse cx="293.17" cy="58.4" rx="0.7" ry="0.76" transform="translate(17.03 172.88) rotate(-33.78)" fill="#d20005"/>
    <path d="M298,54.9l-3.33,5.58c-1.77-.69-3.16-3.76-1.71-5.43s3.52-2,4.89-.34Z" fill="url(#linear-gradient-74)"/>
  </g>
  <circle cx="295.45" cy="57.53" r="1.89" fill="url(#linear-gradient-75)"/>
</svg>
