<svg id="Layer_1" data-name="Layer 1" xmlns="http://www.w3.org/2000/svg" xmlns:xlink="http://www.w3.org/1999/xlink" width="427" height="117" viewBox="0 0 427 117">
  <defs>
    <linearGradient id="linear-gradient" y1="58.5" x2="427.46" y2="58.5" gradientUnits="userSpaceOnUse">
      <stop offset="0.04" stop-color="#006837"/>
      <stop offset="0.51" stop-color="#39b54a"/>
      <stop offset="1" stop-color="#006837"/>
    </linearGradient>
  </defs>
  <title>indiginous_button</title>
  <rect width="427.46" height="117" fill="url(#linear-gradient)"/>
  <g>
    <path d="M104.88,44.21V74.53H101V44.21Z" fill="#fff"/>
    <path d="M111.72,74.53V44.21H116l9.72,15.34a85.94,85.94,0,0,1,5.45,9.85l.09,0c-.36-4-.45-7.74-.45-12.46V44.21h3.69V74.53h-4L120.9,59.14A96.35,96.35,0,0,1,115.23,49l-.13,0c.22,3.82.32,7.47.32,12.51v13Z" fill="#fff"/>
    <path d="M141.33,44.61a56,56,0,0,1,8.33-.63c5.62,0,9.63,1.3,12.28,3.78s4.27,6,4.27,10.89-1.53,9-4.36,11.79-7.51,4.36-13.41,4.36a63.31,63.31,0,0,1-7.11-.36Zm3.92,26.82a24.76,24.76,0,0,0,4,.22c8.37,0,12.91-4.68,12.91-12.87,0-7.16-4-11.7-12.28-11.7a22.27,22.27,0,0,0-4.59.41Z" fill="#fff"/>
    <path d="M175.21,44.21V74.53H171.3V44.21Z" fill="#fff"/>
    <path d="M205.14,73.18a28.26,28.26,0,0,1-9.31,1.67c-4.59,0-8.37-1.17-11.34-4-2.61-2.52-4.23-6.57-4.23-11.29,0-9,6.25-15.66,16.42-15.66a18.76,18.76,0,0,1,7.56,1.39l-.95,3.2a15.73,15.73,0,0,0-6.71-1.3c-7.38,0-12.19,4.59-12.19,12.19s4.63,12.24,11.7,12.24a12.78,12.78,0,0,0,5.22-.81v-9h-6.17V58.6h10Z" fill="#fff"/>
    <path d="M215,44.21V74.53h-3.91V44.21Z" fill="#fff"/>
    <path d="M221.88,74.53V44.21h4.27l9.72,15.34a85.77,85.77,0,0,1,5.44,9.85l.09,0c-.36-4-.45-7.74-.45-12.46V44.21h3.69V74.53h-4l-9.63-15.39A96.17,96.17,0,0,1,225.39,49l-.13,0c.22,3.82.31,7.47.31,12.51v13Z" fill="#fff"/>
    <path d="M277.41,59.05c0,10.44-6.34,16-14.08,16-8,0-13.63-6.21-13.63-15.39,0-9.63,6-15.93,14.08-15.93C272,43.71,277.41,50.05,277.41,59.05Zm-23.53.5c0,6.48,3.51,12.28,9.67,12.28s9.72-5.71,9.72-12.6c0-6-3.15-12.33-9.67-12.33S253.87,52.89,253.87,59.55Z" fill="#fff"/>
    <path d="M286.41,44.21v18c0,6.79,3,9.67,7.07,9.67,4.5,0,7.38-3,7.38-9.67v-18h4V61.89c0,9.31-4.9,13.14-11.47,13.14-6.21,0-10.89-3.55-10.89-13V44.21Z" fill="#fff"/>
    <path d="M311.07,69.76a13.87,13.87,0,0,0,7,2c4,0,6.34-2.12,6.34-5.17,0-2.83-1.62-4.46-5.71-6-5-1.75-8-4.32-8-8.59,0-4.72,3.92-8.24,9.81-8.24a13.79,13.79,0,0,1,6.71,1.49l-1.08,3.2A12.08,12.08,0,0,0,320.38,47c-4.14,0-5.71,2.47-5.71,4.54,0,2.83,1.84,4.23,6,5.85,5.13,2,7.74,4.46,7.74,8.91,0,4.68-3.46,8.73-10.62,8.73A15.67,15.67,0,0,1,310.08,73Z" fill="#fff"/>
  </g>
</svg>
