<svg id="Layer_1" data-name="Layer 1" xmlns="http://www.w3.org/2000/svg" xmlns:xlink="http://www.w3.org/1999/xlink" viewBox="0 0 427 117"><defs><style>.cls-1{fill:url(#linear-gradient);}.cls-2{isolation:isolate;}.cls-3{fill:#fff;}</style><linearGradient id="linear-gradient" y1="67.5" x2="427" y2="67.5" gradientTransform="matrix(1, 0, 0, -1, 0, 126)" gradientUnits="userSpaceOnUse"><stop offset="0.04" stop-color="#006837"/><stop offset="0.51" stop-color="#39b54a"/><stop offset="1" stop-color="#006837"/></linearGradient></defs><title>indiginous_button</title><rect class="cls-1" width="427" height="117"/><g class="cls-2"><path class="cls-3" d="M104.43,44.2V74.53h-3.94V44.2Z"/><path class="cls-3" d="M111.25,74.53V44.2h4.3l9.72,15.33a86.82,86.82,0,0,1,5.41,9.88l.1,0c-.35-4-.43-7.75-.43-12.45V44.2H134V74.53h-4l-9.64-15.37A102.08,102.08,0,0,1,114.78,49l-.13,0c.23,3.84.29,7.5.29,12.51v13Z"/><path class="cls-3" d="M140.86,44.62a52.51,52.51,0,0,1,8.33-.66c5.61,0,9.64,1.34,12.29,3.81s4.29,6,4.29,10.86-1.55,9-4.36,11.79S153.86,74.8,148,74.8a62.71,62.71,0,0,1-7.12-.34Zm3.93,26.83a28.26,28.26,0,0,0,3.94.18c8.4,0,12.92-4.65,12.92-12.85,0-7.17-4-11.69-12.27-11.69a23.6,23.6,0,0,0-4.59.4Z"/><path class="cls-3" d="M174.76,44.2V74.53h-3.93V44.2Z"/><path class="cls-3" d="M204.7,73.17a27.66,27.66,0,0,1-9.33,1.66c-4.59,0-8.39-1.16-11.34-4-2.61-2.52-4.22-6.54-4.21-11.26,0-9,6.23-15.67,16.39-15.67a19.14,19.14,0,0,1,7.59,1.39l-1,3.19a15.57,15.57,0,0,0-6.7-1.29c-7.36,0-12.18,4.57-12.18,12.17s4.61,12.24,11.7,12.24a12.51,12.51,0,0,0,5.21-.82v-9h-6.14V58.61h10Z"/><path class="cls-3" d="M214.59,44.2V74.53h-3.94V44.2Z"/><path class="cls-3" d="M221.41,74.53V44.2h4.3l9.72,15.33a88.42,88.42,0,0,1,5.41,9.88l.1,0c-.36-4-.43-7.75-.43-12.45V44.2h3.69V74.53h-4l-9.64-15.37A100.09,100.09,0,0,1,224.94,49l-.13,0c.23,3.84.28,7.5.28,12.51v13Z"/><path class="cls-3" d="M277,59.06c0,10.41-6.34,16-14.07,16-8,0-13.63-6.23-13.63-15.4,0-9.61,5.95-15.92,14-15.92C271.58,43.71,277,50.05,277,59.06Zm-23.56.48c0,6.49,3.53,12.3,9.7,12.3s9.72-5.71,9.72-12.61c0-6-3.15-12.34-9.67-12.34S253.39,52.91,253.39,59.54Z"/><path class="cls-3" d="M285.94,44.2v18c0,6.76,3,9.63,7.09,9.63,4.47,0,7.38-3,7.38-9.63v-18h3.94V61.9c0,9.32-4.9,13.13-11.48,13.13-6.19,0-10.87-3.54-10.87-13V44.2Z"/><path class="cls-3" d="M310.63,69.76a13.71,13.71,0,0,0,7,2c4,0,6.36-2.09,6.36-5.16,0-2.81-1.65-4.47-5.74-6-4.95-1.76-8-4.36-8-8.61,0-4.72,3.93-8.22,9.83-8.22a13.78,13.78,0,0,1,6.69,1.47l-1.09,3.21A11.44,11.44,0,0,0,319.93,47c-4.16,0-5.74,2.46-5.74,4.53,0,2.82,1.85,4.21,6,5.82,5.14,2,7.73,4.49,7.73,8.94,0,4.65-3.43,8.74-10.61,8.74a15.47,15.47,0,0,1-7.75-2Z"/></g></svg>