<svg id="Layer_1" data-name="Layer 1" xmlns="http://www.w3.org/2000/svg" xmlns:xlink="http://www.w3.org/1999/xlink" width="451" height="149" viewBox="0 0 451 149">
  <defs>
    <linearGradient id="linear-gradient" x1="12.96" y1="74.5" x2="439.96" y2="74.5" gradientUnits="userSpaceOnUse">
      <stop offset="0.04" stop-color="#006837"/>
      <stop offset="0.51" stop-color="#39b54a"/>
      <stop offset="1" stop-color="#006837"/>
    </linearGradient>
  </defs>
  <title>indiginous_button</title>
  <rect x="12.96" y="16" width="427" height="117" fill="url(#linear-gradient)"/>
  <g>
    <path d="M111.69,57.38V87.71h-3.92V57.38Z" fill="#fff"/>
    <path d="M118.53,87.71V57.38h4.27l9.72,15.34A86,86,0,0,1,138,82.58l.09,0c-.36-4-.45-7.74-.45-12.46V57.38h3.69V87.71h-4l-9.63-15.39A95.43,95.43,0,0,1,122,62.19l-.14.05c.23,3.82.32,7.47.32,12.51v13Z" fill="#fff"/>
    <path d="M148.14,57.78a56,56,0,0,1,8.32-.63c5.62,0,9.63,1.31,12.28,3.78s4.28,6,4.28,10.89-1.53,9-4.37,11.79S161.14,88,155.25,88a64.4,64.4,0,0,1-7.11-.36Zm3.91,26.82a24.65,24.65,0,0,0,4,.23c8.37,0,12.91-4.68,12.91-12.87.05-7.16-4-11.7-12.28-11.7a22.75,22.75,0,0,0-4.59.4Z" fill="#fff"/>
    <path d="M182,57.38V87.71h-3.91V57.38Z" fill="#fff"/>
    <path d="M211.94,86.36A28.25,28.25,0,0,1,202.63,88c-4.59,0-8.37-1.17-11.34-4-2.61-2.52-4.23-6.57-4.23-11.3.05-9,6.25-15.66,16.42-15.66a18.71,18.71,0,0,1,7.56,1.4l-.94,3.19a15.76,15.76,0,0,0-6.71-1.3c-7.37,0-12.19,4.59-12.19,12.19s4.63,12.24,11.7,12.24a12.79,12.79,0,0,0,5.22-.81v-9H202V71.78h10Z" fill="#fff"/>
    <path d="M233.63,73.49H221.84V84.42H235v3.29h-17V57.38h16.38v3.28H221.84v9.59h11.79Z" fill="#fff"/>
    <path d="M240.07,87.71V57.38h4.27l9.72,15.34a86,86,0,0,1,5.45,9.86l.09,0c-.36-4-.45-7.74-.45-12.46V57.38h3.69V87.71h-4l-9.63-15.39a95.43,95.43,0,0,1-5.67-10.13l-.14.05c.23,3.82.32,7.47.32,12.51v13Z" fill="#fff"/>
    <path d="M295.6,72.23c0,10.44-6.35,16-14.09,16-8,0-13.63-6.21-13.63-15.39,0-9.63,6-15.93,14.08-15.93C290.24,56.88,295.6,63.23,295.6,72.23Zm-23.54.49c0,6.48,3.51,12.29,9.68,12.29s9.72-5.72,9.72-12.6c0-6-3.15-12.33-9.68-12.33S272.06,66.06,272.06,72.72Z" fill="#fff"/>
    <path d="M304.6,57.38V75.33c0,6.8,3,9.68,7.06,9.68,4.5,0,7.38-3,7.38-9.68V57.38h4V75.06c0,9.32-4.9,13.14-11.47,13.14-6.21,0-10.89-3.55-10.89-13V57.38Z" fill="#fff"/>
    <path d="M329.26,82.94a13.86,13.86,0,0,0,7,2c4,0,6.34-2.12,6.34-5.18,0-2.83-1.62-4.45-5.71-6-5-1.75-8-4.32-8-8.59,0-4.73,3.91-8.24,9.81-8.24a13.71,13.71,0,0,1,6.7,1.49l-1.08,3.19a12.06,12.06,0,0,0-5.76-1.44c-4.14,0-5.71,2.48-5.71,4.55,0,2.83,1.84,4.23,6,5.85,5.13,2,7.74,4.45,7.74,8.91,0,4.68-3.47,8.73-10.62,8.73a15.66,15.66,0,0,1-7.74-1.94Z" fill="#fff"/>
  </g>
</svg>
