<svg id="Layer_1" data-name="Layer 1" xmlns="http://www.w3.org/2000/svg" width="939" height="66" viewBox="0 0 939 66">
  <title>lights_on</title>
  <circle cx="34.5" cy="33" r="23" fill="#ffe600" stroke="#000" stroke-miterlimit="10" stroke-width="0.75"/>
  <circle cx="30" cy="26" r="11.5" fill="#fff"/>
  <circle cx="101.5" cy="33" r="23" fill="#ffe600" stroke="#000" stroke-miterlimit="10" stroke-width="0.75"/>
  <circle cx="97" cy="26" r="11.5" fill="#fff"/>
  <circle cx="168.5" cy="34" r="23" fill="#ffe600" stroke="#000" stroke-miterlimit="10" stroke-width="0.75"/>
  <circle cx="164" cy="27" r="11.5" fill="#fff"/>
  <circle cx="235.5" cy="34" r="23" fill="#ffe600" stroke="#000" stroke-miterlimit="10" stroke-width="0.75"/>
  <circle cx="231" cy="27" r="11.5" fill="#fff"/>
  <circle cx="302.5" cy="34" r="23" fill="#ffe600" stroke="#000" stroke-miterlimit="10" stroke-width="0.75"/>
  <circle cx="298" cy="27" r="11.5" fill="#fff"/>
  <circle cx="369.5" cy="34" r="23" fill="#ffe600" stroke="#000" stroke-miterlimit="10" stroke-width="0.75"/>
  <circle cx="365" cy="27" r="11.5" fill="#fff"/>
  <circle cx="436.5" cy="34" r="23" fill="#ffe600" stroke="#000" stroke-miterlimit="10" stroke-width="0.75"/>
  <circle cx="432" cy="27" r="11.5" fill="#fff"/>
  <circle cx="503.5" cy="34" r="23" fill="#ffe600" stroke="#000" stroke-miterlimit="10" stroke-width="0.75"/>
  <circle cx="499" cy="27" r="11.5" fill="#fff"/>
  <circle cx="570.5" cy="34" r="23" fill="#ffe600" stroke="#000" stroke-miterlimit="10" stroke-width="0.75"/>
  <circle cx="566" cy="27" r="11.5" fill="#fff"/>
  <circle cx="637.5" cy="34" r="23" fill="#ffe600" stroke="#000" stroke-miterlimit="10" stroke-width="0.75"/>
  <circle cx="633" cy="27" r="11.5" fill="#fff"/>
  <circle cx="704.5" cy="34" r="23" fill="#ffe600" stroke="#000" stroke-miterlimit="10" stroke-width="0.75"/>
  <circle cx="700" cy="27" r="11.5" fill="#fff"/>
  <circle cx="771.5" cy="34" r="23" fill="#ffe600" stroke="#000" stroke-miterlimit="10" stroke-width="0.75"/>
  <circle cx="767" cy="27" r="11.5" fill="#fff"/>
  <circle cx="838.5" cy="34" r="23" fill="#ffe600" stroke="#000" stroke-miterlimit="10" stroke-width="0.75"/>
  <circle cx="834" cy="27" r="11.5" fill="#fff"/>
  <circle cx="905.5" cy="34" r="23" fill="#ffe600" stroke="#000" stroke-miterlimit="10" stroke-width="0.75"/>
  <circle cx="901" cy="27" r="11.5" fill="#fff"/>
</svg>
