<svg id="Layer_1" data-name="Layer 1" xmlns="http://www.w3.org/2000/svg" xmlns:xlink="http://www.w3.org/1999/xlink" viewBox="0 0 808 148"><defs><style>.cls-1,.cls-2,.cls-3,.cls-4,.cls-5,.cls-6,.cls-7{stroke:#000;stroke-miterlimit:10;stroke-width:2px;}.cls-1{fill:url(#linear-gradient);}.cls-2{fill:url(#linear-gradient-2);}.cls-3{fill:url(#linear-gradient-3);}.cls-4{fill:url(#linear-gradient-4);}.cls-5{fill:url(#linear-gradient-5);}.cls-6{fill:url(#linear-gradient-6);}.cls-7{fill:url(#linear-gradient-7);}.cls-8{isolation:isolate;}</style><linearGradient id="linear-gradient" x1="700.16" y1="16.72" x2="765.42" y2="129.75" gradientTransform="matrix(1, 0, 0, -1, 0, 150)" gradientUnits="userSpaceOnUse"><stop offset="0" stop-color="#29abe2"/><stop offset="1" stop-color="#1a45c3"/></linearGradient><linearGradient id="linear-gradient-2" x1="729.21" y1="122.7" x2="739.27" y2="140.12" gradientTransform="matrix(1, 0, 0, -1, 0, 150)" gradientUnits="userSpaceOnUse"><stop offset="0" stop-color="#00aa27"/><stop offset="0.19" stop-color="#009420" stop-opacity="0.99"/><stop offset="0.74" stop-color="#00570d" stop-opacity="0.97"/><stop offset="1" stop-color="#003f05" stop-opacity="0.96"/></linearGradient><linearGradient id="linear-gradient-3" x1="745.4" y1="121.75" x2="748.23" y2="126.64" xlink:href="#linear-gradient-2"/><linearGradient id="linear-gradient-4" x1="678.8" y1="36.82" x2="733.14" y2="130.95" gradientTransform="matrix(1, 0, 0, -1, 0, 150)" gradientUnits="userSpaceOnUse"><stop offset="0" stop-color="#3aff2a"/><stop offset="0.04" stop-color="#37f528"/><stop offset="0.52" stop-color="#1a9415" stop-opacity="0.98"/><stop offset="0.84" stop-color="#07570a" stop-opacity="0.96"/><stop offset="1" stop-color="#003f05" stop-opacity="0.96"/></linearGradient><linearGradient id="linear-gradient-5" x1="703.15" y1="93.61" x2="705.71" y2="98.04" xlink:href="#linear-gradient-2"/><linearGradient id="linear-gradient-6" x1="705.84" y1="88.33" x2="708.3" y2="92.6" xlink:href="#linear-gradient-4"/><linearGradient id="linear-gradient-7" x1="746.64" y1="37.68" x2="790.92" y2="114.38" gradientTransform="matrix(1, 0, 0, -1, 0, 150)" gradientUnits="userSpaceOnUse"><stop offset="0" stop-color="#3aff2a"/><stop offset="0.13" stop-color="#39fa29"/><stop offset="0.27" stop-color="#35ed27"/><stop offset="0.42" stop-color="#2ed722" stop-opacity="0.99"/><stop offset="0.58" stop-color="#25b81c" stop-opacity="0.99"/><stop offset="0.74" stop-color="#199015" stop-opacity="0.98"/><stop offset="0.9" stop-color="#0a610b" stop-opacity="0.97"/><stop offset="1" stop-color="#003f05" stop-opacity="0.96"/></linearGradient></defs><title>logo_nav</title><path class="cls-1" d="M798,76.75a65.18,65.18,0,1,1-52.63-64A65.18,65.18,0,0,1,798,76.75Z"/><path class="cls-2" d="M734.87,30.42a2,2,0,0,0,.89-2.65c-1-2.86,1.57-5.26,1.94-5.13,2.51.15,5.48-.89,6.37-2.12s-.77-2.74.37-3.41,1-2.18,1-3.67c-4.86-2.13-11.34-2.17-18.2-1.71-.87,1.94-.3,4,2.64,6.31a6.26,6.26,0,0,1-.35,3.89c1,.53.6,1.28,1.27,3.11C731.42,26.64,733.93,30.69,734.87,30.42Z"/><path class="cls-3" d="M742.12,26.35c1.19-1.53.75-3.53,2.12-3.18s5,.7,6.72,1.77c.46.86.58,1.62-.35,2.12-2.49,1.82-7.85.19-7.07-.71A1.35,1.35,0,0,0,742.12,26.35Z"/><path class="cls-4" d="M721.61,12.91c1.75.53,3.49,1.08,4.6,2.83.95,1.7,1.43,3.29.7,4.6-.27,1.16-1.19,1.2-2.82,0-.16,1.24-.46,2.34-1.42,2.83a6.28,6.28,0,0,1-2.47-.35c-.15.89-.49,1.45-1.42,1.06-4.31-1.87-5.84.35-6.72,3.53.42,1.67,1.8,2.51,4.6,2.12.72-1.09,1.43-1.82,2.12-1.76a6.76,6.76,0,0,0,2.66-.89c.57-.57,1.11-.86,1.58-.53a2.13,2.13,0,0,1,1.07,2.12l1.06,2.13.7,5.65a53.92,53.92,0,0,0-7.07-.35l-1.77.71a15.35,15.35,0,0,0-4.59,0A4.45,4.45,0,0,1,709.59,38l-3.19,1.06-1.06,1.77-1.41.71c-.2,4.37-.31,8.41.7,8.49a3,3,0,0,1-1.76-2.13c-.72-.81-1.56-1.77-2.48-2.83s-1.48-1.69-2.12-1.76A9,9,0,0,0,694,44.39c-2.49.78-4.1,1.7-4.25,2.83-1.33,3-2.41,5.88-1.06,6.72a19,19,0,0,0,5.66,1.41c1,.32,1.38,1.31.71,3.54-1.37,1-2.59,1.92-1.77,3.18,1.46,3.79,3.15,7.12,5.66,8.84l1.76-.71,1.77-.35,1.42-1.06c.92,0,1.77.79,2.47,2.83l3.54,2.47L712,77.28a4.21,4.21,0,0,0,1.06,2.47l3.19,3.18c.23,1.82.63,3.26,1.41,3.89,1.22.21,2.27.67,2.48,1.42l2.12.35,1.8,1.41,1.06.71a4.66,4.66,0,0,1,0,4.24l-2.48,2.83-1.77,3.89-2.47,2.12A6.3,6.3,0,0,0,715.6,107a2.93,2.93,0,0,1,0,3.19l-1.42,1.06-.35,1.41-1.77,1.77a7.93,7.93,0,0,1-2.47,3.89l-1.07,1.77-1.06,3.53,1.77,2.48h0c-.12,1,.44,2.4,2.12,4.24a5,5,0,0,1-2.83,0,23.81,23.81,0,0,0-5.65-3.53,9.11,9.11,0,0,1-4.25-2.83l-1.77-2.48-1.06-1.41a25.93,25.93,0,0,1-1.06-8.49,6.53,6.53,0,0,1-1.06-3.54l.36-3.18a16.81,16.81,0,0,1,0-5.66c-.87-.78-1.39-2.35-1.77-4.24a5,5,0,0,1-2.83.71l-.71-2.13a1.81,1.81,0,0,1-.71-2.12c-1.78-.57-2.79-1.49-2.83-2.83a7.14,7.14,0,0,1-1.41-3.53,4.59,4.59,0,0,1-.35-2.48c.1-1,1.41-2.12,1.41-3.18a4.3,4.3,0,0,0-.35-1.77,7.94,7.94,0,0,1,1.76-2.83L689.43,73a7.57,7.57,0,0,0,2.47-2.83,5.59,5.59,0,0,0,.36-3.18l-1.42-2.12a18.09,18.09,0,0,0-1.41-5,11.62,11.62,0,0,0-4.25-1.06c-.58-2.07-1.3-3-2.12-3.19l-2.12-.35a3.64,3.64,0,0,0-1.41-2.12,10.41,10.41,0,0,1-3.19-2.48l-.7-.35-1.07-1.77c1.06-4.6,4.64-9.59,8.94-14.69,5.62-6.73,12.94-12,21.39-16.21C711.15,14.93,717,12.92,721.61,12.91Z"/><path class="cls-5" d="M700.74,50.75c-1.39,1.56-1.74,3,0,4.25a3,3,0,0,0,1.77-.36,4.41,4.41,0,0,1,2.12.36h1.77a4.42,4.42,0,0,0,3.19.35c.33-.49-.21-1.11-1.07-1.77a14.21,14.21,0,0,0-2.47-.71,4,4,0,0,0-2.48-1.41A4.55,4.55,0,0,0,700.74,50.75Z"/><path class="cls-6" d="M708.88,57.83c1.12.31,1.75,1.2,1.77,2.83a5,5,0,0,1-3.19,1.06,8.11,8.11,0,0,0-2.83-1.42l-1.76-.3c-.06-.92.52-1.3,1.41-1.42a2,2,0,0,0,2.12,0C707.45,57.86,708.29,57.59,708.88,57.83Z"/><path class="cls-7" d="M769.35,23.17c-.36,1.2-2.4,1.14-5,.71a4,4,0,0,0-2.12,1.41,9.24,9.24,0,0,1-3.18.35c-2-.13-3.56,0-3.89,1.07.22,1.1,2.07,1.71,4.59,2.12,0,1.71.08,3.11.71,3.53A4.39,4.39,0,0,1,763,33.78,3.29,3.29,0,0,0,764.76,37c.37.44.1.91-.71,1.42a8.88,8.88,0,0,0-4.6,1.06,26.19,26.19,0,0,0-5-.36c-2.32,1.12-4.61,2.25-4.6,4.25.16.44-.17,1.11,1.33,1.62s.69.54,1.15.85a13.46,13.46,0,0,1,1.41,5c-.63,1.17,1.52,1.37,4.16,1.41h.1c.55-.21.72-.74.7-1.42a5.21,5.21,0,0,1,.71-3.18l2.83-1.06A2.57,2.57,0,0,1,764,45.17a12.52,12.52,0,0,1,3.89,2.48,29.22,29.22,0,0,1,5,0,6.17,6.17,0,0,0,2.48,2.48c2.19.61,3.87,1.6,4.24,3.53.85,1.49.78,2.82-.71,3.89-2.63-.81-4.84-1.4-5.3-1.06-1.32-.14-2.12-2.12-3.89-2.12a10,10,0,0,1-2.83-.35A5.32,5.32,0,0,0,763.65,53a9.06,9.06,0,0,1-3.18,1.77l-4.24,2.48c-1,1.78-2.13,3.17-4.11,3.08l-.14.1A11.39,11.39,0,0,0,749.9,66a9.5,9.5,0,0,1,.71,5.66,7.74,7.74,0,0,1,3.54,2.47c.51,1.67-.36,2.65-2.13,3.19.37,1.63,1.79,3.29,4.25,5a12.78,12.78,0,0,1,2.47,5.3A8.82,8.82,0,0,1,763,90a16.33,16.33,0,0,1,5.66-1.42,9.6,9.6,0,0,0,4.59-2.12c1.5.51,2.81,1.1,3.19,2.12l.35,2.13,2.12,1.41c.62,1.44-.59,2.85-2.83,4.24V99.9a9.23,9.23,0,0,0-3.18,4.24l-1.06,2.13a2.91,2.91,0,0,0-.35,2.82,3.42,3.42,0,0,0,1.76,1.77c-.48,1.15-1.06,2.33-.35,3.19a4,4,0,0,1-.35,3.18l-.71,2.12c-.52,2.12-.72,3.77-.35,4.6l1.41,3.53c7-4.65,13-11.43,17.81-20.74,4.59-8.18,6.89-18.24,7.3-29.83a65.22,65.22,0,0,0-5.08-25.45C786.94,39.15,779.58,29,769.35,23.17Z"/><g class="cls-8"><g class="cls-8"><path d="M94.51,87a22.29,22.29,0,0,1-1.75,8.77,22.35,22.35,0,0,1-12,12,22.73,22.73,0,0,1-16.81.29A21.66,21.66,0,0,1,57,103.77a21.68,21.68,0,0,1-7,4.29A22.54,22.54,0,0,1,42,109.53a22.12,22.12,0,0,1-8.77-1.76,22.37,22.37,0,0,1-12-12A22.12,22.12,0,0,1,19.45,87V33.37h15V87A7.68,7.68,0,0,0,35.06,90a7.26,7.26,0,0,0,1.6,2.41,7.53,7.53,0,0,0,10.63,0A7.41,7.41,0,0,0,48.89,90,7.67,7.67,0,0,0,49.46,87V33.37h15V87A7.67,7.67,0,0,0,65.07,90a7.55,7.55,0,0,0,9.85,4,7.34,7.34,0,0,0,2.38-1.6A7.65,7.65,0,0,0,78.93,90a7.34,7.34,0,0,0,.6-2.95V33.37h15Z"/></g><g class="cls-8"><path d="M159.88,79.93a30.2,30.2,0,0,1-2.25,11.71A29.6,29.6,0,0,1,151.5,101a28.91,28.91,0,0,1-9.09,6.23,28.43,28.43,0,0,1-22.31,0,28.64,28.64,0,0,1-15.27-15.61,30.2,30.2,0,0,1-2.25-11.71,30.66,30.66,0,0,1,2.25-11.83A29.07,29.07,0,0,1,111,58.69a28.63,28.63,0,0,1,9.12-6.2,27.75,27.75,0,0,1,11.13-2.25,29.24,29.24,0,0,1,11.18,2.12,27.08,27.08,0,0,1,9.09,6,28.73,28.73,0,0,1,6.13,9.38A31.71,31.71,0,0,1,159.88,79.93Zm-14.41,0a16.6,16.6,0,0,0-1.12-6.25,14.68,14.68,0,0,0-3.07-4.82,13.05,13.05,0,0,0-4.53-3.09,14.67,14.67,0,0,0-11,0,12.75,12.75,0,0,0-4.5,3.09,14.54,14.54,0,0,0-3,4.82,16.8,16.8,0,0,0-1.1,6.25,16.08,16.08,0,0,0,1.1,6,15.07,15.07,0,0,0,3,4.82A14.09,14.09,0,0,0,125.7,94a13.3,13.3,0,0,0,5.53,1.18A13.92,13.92,0,0,0,141.28,91a14.47,14.47,0,0,0,3.07-4.82A16.74,16.74,0,0,0,145.47,79.93Z"/><path d="M182.09,108.48h-14.3V52.38h3.45L176,59a25.26,25.26,0,0,1,17-6.55h12.62V66.73H192.93a11,11,0,0,0-4.24.84,10.67,10.67,0,0,0-5.77,5.76,11,11,0,0,0-.83,4.25Z"/><path d="M226.61,108.48H212.2V30.07h14.41Z"/><path d="M291.71,108.48h-3.45l-5.55-7.7a46.58,46.58,0,0,1-4.33,3.43,31.76,31.76,0,0,1-4.79,2.78,30.31,30.31,0,0,1-5.16,1.86,21.6,21.6,0,0,1-5.37.68,28.25,28.25,0,0,1-20.24-8.41,29.11,29.11,0,0,1-6.15-9.37,31.94,31.94,0,0,1,0-23.6,29.38,29.38,0,0,1,6.15-9.43,28.46,28.46,0,0,1,9.11-6.23,27.82,27.82,0,0,1,11.13-2.25,25.39,25.39,0,0,1,3.91.31,20.36,20.36,0,0,1,3.92,1,16.09,16.09,0,0,1,3.59,1.86,10.88,10.88,0,0,1,2.83,2.83V30.07h14.4Zm-14.4-28.55a14.87,14.87,0,0,0-1.13-5.68,16.33,16.33,0,0,0-3.06-4.87,15.15,15.15,0,0,0-4.53-3.4,12.25,12.25,0,0,0-5.53-1.29,14.58,14.58,0,0,0-5.52,1,13.08,13.08,0,0,0-4.51,3,14.16,14.16,0,0,0-3,4.79,17.62,17.62,0,0,0-1.1,6.39A16,16,0,0,0,253,90.67a14,14,0,0,0,4.51,3.3,12.85,12.85,0,0,0,5.52,1.21,12.25,12.25,0,0,0,5.53-1.29,15.15,15.15,0,0,0,4.53-3.4,16.45,16.45,0,0,0,3.06-4.87A14.92,14.92,0,0,0,277.31,79.93Z"/><path d="M393.9,100.88a38.54,38.54,0,0,1-25.09,9.22,37.75,37.75,0,0,1-10.29-1.39,38.29,38.29,0,0,1-9.24-3.92,39.91,39.91,0,0,1-7.86-6.08,38.2,38.2,0,0,1-6.08-7.85,40.1,40.1,0,0,1-3.9-9.3,38.47,38.47,0,0,1-1.39-10.32A37.94,37.94,0,0,1,331.44,61a40.2,40.2,0,0,1,3.9-9.24,38.26,38.26,0,0,1,6.08-7.86,39,39,0,0,1,17.1-9.95,38.72,38.72,0,0,1,35.38,7.83l-7.85,13.1a25.15,25.15,0,0,0-7.86-5.43,23.48,23.48,0,0,0-18.62-.07,24.51,24.51,0,0,0-7.57,5.1A24.22,24.22,0,0,0,346.87,62a23.75,23.75,0,0,0,0,18.57,24.15,24.15,0,0,0,12.7,12.73,22.8,22.8,0,0,0,9.24,1.89,21.87,21.87,0,0,0,5.5-.69,25.1,25.1,0,0,0,5.08-1.88V71.24H393.9Z"/><path d="M458.28,108.48h-3.46l-5.55-7.7a45.29,45.29,0,0,1-4.33,3.43,31.28,31.28,0,0,1-4.79,2.78,30,30,0,0,1-5.16,1.86,21.6,21.6,0,0,1-5.37.68,31,31,0,0,1-11.12-2,26.48,26.48,0,0,1-9.12-5.79,27.07,27.07,0,0,1-6.15-9.3A32.8,32.8,0,0,1,401,79.93a31.34,31.34,0,0,1,2.26-12,28.71,28.71,0,0,1,6.15-9.4,27.73,27.73,0,0,1,9.12-6.1,28.56,28.56,0,0,1,11.12-2.17,21.49,21.49,0,0,1,5.4.68,27.69,27.69,0,0,1,5.18,1.88,33,33,0,0,1,4.8,2.83,39.26,39.26,0,0,1,4.27,3.51l5.55-6.65h3.46ZM443.87,79.93a14.86,14.86,0,0,0-1.12-5.68,16.56,16.56,0,0,0-3.07-4.87,15.15,15.15,0,0,0-4.53-3.4,12.25,12.25,0,0,0-5.53-1.29,15.15,15.15,0,0,0-5.52,1,12.61,12.61,0,0,0-4.51,2.93,13.93,13.93,0,0,0-3,4.79,19.9,19.9,0,0,0,0,13,13.93,13.93,0,0,0,3,4.79,12.61,12.61,0,0,0,4.51,2.93,15.36,15.36,0,0,0,5.52,1,12.25,12.25,0,0,0,5.53-1.29,15.15,15.15,0,0,0,4.53-3.4,16.69,16.69,0,0,0,3.07-4.87A14.91,14.91,0,0,0,443.87,79.93Z"/><path d="M540.51,108.48H526.26V72.86a7.19,7.19,0,0,0-2.09-5.08,7.19,7.19,0,0,0-2.31-1.54,7,7,0,0,0-2.77-.55,7,7,0,0,0-5,2.09,7.33,7.33,0,0,0-1.51,2.31,7,7,0,0,0-.56,2.77v35.62H497.72V72.86a7.14,7.14,0,0,0-2.1-5.08,7.14,7.14,0,0,0-5.08-2.09,6.86,6.86,0,0,0-2.75.55,6.73,6.73,0,0,0-2.25,1.54A7.36,7.36,0,0,0,484,70.09a7,7,0,0,0-.55,2.77v35.62h-14.3V52.38h3.46l3.87,4.3a22.76,22.76,0,0,1,6.58-3.9,20.4,20.4,0,0,1,7.46-1.39,21,21,0,0,1,7.67,1.46,15.6,15.6,0,0,1,6.58,5.09,14.34,14.34,0,0,1,3-3,17,17,0,0,1,3.54-2,17.71,17.71,0,0,1,3.85-1.12,22.85,22.85,0,0,1,3.93-.34,21.07,21.07,0,0,1,8.35,1.67,21.37,21.37,0,0,1,11.39,11.42,21.12,21.12,0,0,1,1.68,8.38Z"/><path d="M573.25,94.76a8.84,8.84,0,0,0,1.67.34c.56.05,1.12.08,1.68.08a14.23,14.23,0,0,0,4-.58A14.4,14.4,0,0,0,584.27,93a13.71,13.71,0,0,0,5.21-6L600,97.43a28.77,28.77,0,0,1-10.19,8.9,27.83,27.83,0,0,1-6.34,2.38,28.52,28.52,0,0,1-27.08-7.51,28.8,28.8,0,0,1-6.15-9.35A30.79,30.79,0,0,1,548,79.93a31.82,31.82,0,0,1,2.25-12.15,27.47,27.47,0,0,1,15.27-15.4,28.92,28.92,0,0,1,11.13-2.14,28.63,28.63,0,0,1,6.86.83,29.37,29.37,0,0,1,6.36,2.41,28.8,28.8,0,0,1,5.63,3.85,28.31,28.31,0,0,1,4.61,5.11Zm7.33-29.49a8,8,0,0,0-2-.47,18.61,18.61,0,0,0-2-.11,14.23,14.23,0,0,0-5.53,1.08,12.94,12.94,0,0,0-4.5,3.06,14.48,14.48,0,0,0-3,4.79,17.26,17.26,0,0,0-1.09,6.31c0,.53,0,1.12.07,1.78s.14,1.34.26,2,.28,1.34.45,2a7.67,7.67,0,0,0,.68,1.67Z"/><path d="M638,108.48H605.35V94.23H638a3.57,3.57,0,0,0,3.56-3.56,2,2,0,0,0-1.05-2,6.18,6.18,0,0,0-2.51-.47H623.16a17.09,17.09,0,0,1-7-1.42A17.83,17.83,0,0,1,610.54,83a18.19,18.19,0,0,1-3.8-5.69,18.15,18.15,0,0,1,0-13.93,18,18,0,0,1,3.8-5.66,17.7,17.7,0,0,1,5.66-3.79,17.41,17.41,0,0,1,7-1.39h29V66.73h-29a3.4,3.4,0,0,0-2.51,1,3.44,3.44,0,0,0-1,2.52,3.58,3.58,0,0,0,1,2.59A3.38,3.38,0,0,0,623.16,74H638A19.33,19.33,0,0,1,645,75.19a17.61,17.61,0,0,1,5.66,3.44,16.07,16.07,0,0,1,5.23,12,17.12,17.12,0,0,1-1.41,6.94,18.7,18.7,0,0,1-3.82,5.66,17.56,17.56,0,0,1-5.66,3.82A17.31,17.31,0,0,1,638,108.48Z"/></g></g></svg>