<svg id="Layer_1" data-name="Layer 1" xmlns="http://www.w3.org/2000/svg" xmlns:xlink="http://www.w3.org/1999/xlink" width="808" height="148" viewBox="0 0 808 148">
  <defs>
    <linearGradient id="linear-gradient" x1="700.12" y1="133.26" x2="765.38" y2="20.23" gradientUnits="userSpaceOnUse">
      <stop offset="0" stop-color="#29abe2"/>
      <stop offset="1" stop-color="#1a45c3"/>
    </linearGradient>
    <linearGradient id="linear-gradient-2" x1="729.22" y1="27.31" x2="739.29" y2="9.87" gradientUnits="userSpaceOnUse">
      <stop offset="0" stop-color="#00aa27"/>
      <stop offset="0.19" stop-color="#009420" stop-opacity="0.99"/>
      <stop offset="0.74" stop-color="#00570d" stop-opacity="0.97"/>
      <stop offset="1" stop-color="#003f05" stop-opacity="0.96"/>
    </linearGradient>
    <linearGradient id="linear-gradient-3" x1="745.4" y1="28.25" x2="748.23" y2="23.36" xlink:href="#linear-gradient-2"/>
    <linearGradient id="linear-gradient-4" x1="678.82" y1="113.17" x2="733.15" y2="19.06" gradientUnits="userSpaceOnUse">
      <stop offset="0" stop-color="#3aff2a"/>
      <stop offset="0.04" stop-color="#37f528"/>
      <stop offset="0.52" stop-color="#1a9415" stop-opacity="0.98"/>
      <stop offset="0.84" stop-color="#07570a" stop-opacity="0.96"/>
      <stop offset="1" stop-color="#003f05" stop-opacity="0.96"/>
    </linearGradient>
    <linearGradient id="linear-gradient-5" x1="703.15" y1="56.39" x2="705.71" y2="51.96" xlink:href="#linear-gradient-2"/>
    <linearGradient id="linear-gradient-6" x1="705.83" y1="61.66" x2="708.29" y2="57.39" xlink:href="#linear-gradient-4"/>
    <linearGradient id="linear-gradient-7" x1="746.64" y1="112.34" x2="790.93" y2="35.63" gradientUnits="userSpaceOnUse">
      <stop offset="0" stop-color="#3aff2a"/>
      <stop offset="0.13" stop-color="#39fa29"/>
      <stop offset="0.27" stop-color="#35ed27"/>
      <stop offset="0.42" stop-color="#2ed722" stop-opacity="0.99"/>
      <stop offset="0.58" stop-color="#25b81c" stop-opacity="0.99"/>
      <stop offset="0.74" stop-color="#199015" stop-opacity="0.98"/>
      <stop offset="0.9" stop-color="#0a610b" stop-opacity="0.97"/>
      <stop offset="1" stop-color="#003f05" stop-opacity="0.96"/>
    </linearGradient>
  </defs>
  <title>Artboard 8</title>
  <path d="M798,76.75a65.18,65.18,0,1,1-52.63-64A65.24,65.24,0,0,1,798,76.75Z" stroke="#000" stroke-miterlimit="10" stroke-width="2" fill="url(#linear-gradient)"/>
  <path d="M734.87,30.42a2,2,0,0,0,.89-2.65c-1-2.86,1.57-5.26,1.94-5.13,2.51.15,5.48-.89,6.37-2.12s-.77-2.74.37-3.41,1-2.18,1-3.67c-4.86-2.13-11.34-2.17-18.2-1.71-.87,1.94-.3,4,2.64,6.31a6.24,6.24,0,0,1-.35,3.89c1,.53.6,1.28,1.27,3.11C731.42,26.64,733.93,30.69,734.87,30.42Z" stroke="#000" stroke-miterlimit="10" stroke-width="2" fill="url(#linear-gradient-2)"/>
  <path d="M742.12,26.35c1.19-1.53.75-3.53,2.12-3.18s5,.7,6.72,1.77c.46.86.58,1.62-.35,2.12-2.49,1.82-7.85.19-7.07-.71A1.35,1.35,0,0,0,742.12,26.35Z" stroke="#000" stroke-miterlimit="10" stroke-width="2" fill="url(#linear-gradient-3)"/>
  <path d="M721.61,12.91c1.75.53,3.49,1.08,4.6,2.83.95,1.7,1.43,3.29.7,4.6-.27,1.16-1.19,1.2-2.82,0-.16,1.24-.46,2.34-1.42,2.83a6.21,6.21,0,0,1-2.47-.35c-.15.89-.49,1.45-1.42,1.06-4.31-1.87-5.84.35-6.72,3.53.42,1.67,1.8,2.51,4.6,2.12.72-1.09,1.43-1.82,2.12-1.76a6.73,6.73,0,0,0,2.66-.89c.57-.57,1.11-.86,1.58-.53a2.13,2.13,0,0,1,1.07,2.12l1.06,2.13.7,5.65a55,55,0,0,0-7.07-.35l-1.77.71a15.05,15.05,0,0,0-4.59,0A4.43,4.43,0,0,1,709.59,38l-3.19,1.06-1.06,1.77-1.41.71c-.2,4.37-.31,8.41.7,8.49a3,3,0,0,1-1.76-2.13c-.72-.81-1.56-1.77-2.48-2.83s-1.48-1.69-2.12-1.76A9,9,0,0,0,694,44.39c-2.49.78-4.1,1.7-4.25,2.83-1.33,3-2.41,5.88-1.06,6.72a19.17,19.17,0,0,0,5.66,1.41c1,.32,1.38,1.31.71,3.54-1.37,1-2.59,1.92-1.77,3.18,1.46,3.79,3.15,7.12,5.66,8.84l1.76-.71,1.77-.35,1.42-1.06c.92,0,1.77.79,2.47,2.83l3.54,2.47,2.12,3.19a4.21,4.21,0,0,0,1.06,2.47l3.19,3.18c.23,1.82.63,3.26,1.41,3.89,1.22.21,2.27.67,2.48,1.42l2.12.35L724.09,90l1.06.71a4.69,4.69,0,0,1,0,4.24l-2.48,2.83-1.77,3.89-2.47,2.12A6.35,6.35,0,0,0,715.6,107a2.91,2.91,0,0,1,0,3.19l-1.42,1.06-.35,1.41-1.77,1.77a7.9,7.9,0,0,1-2.47,3.89l-1.07,1.77-1.06,3.53,1.77,2.48h0c-.12,1,.44,2.4,2.12,4.24a5,5,0,0,1-2.83,0,23.81,23.81,0,0,0-5.65-3.53,9.21,9.21,0,0,1-4.25-2.83l-1.77-2.48-1.06-1.41a25.79,25.79,0,0,1-1.06-8.49,6.56,6.56,0,0,1-1.06-3.54l.36-3.18a17,17,0,0,1,0-5.66c-.87-.78-1.39-2.35-1.77-4.24a5,5,0,0,1-2.83.71l-.71-2.13a1.81,1.81,0,0,1-.71-2.12c-1.78-.57-2.79-1.49-2.83-2.83a7.12,7.12,0,0,1-1.41-3.53,4.6,4.6,0,0,1-.35-2.48c.1-1,1.41-2.12,1.41-3.18a4.35,4.35,0,0,0-.35-1.77,7.89,7.89,0,0,1,1.76-2.83L689.43,73a7.64,7.64,0,0,0,2.47-2.83,5.57,5.57,0,0,0,.36-3.18l-1.42-2.12a18.31,18.31,0,0,0-1.41-5,11.71,11.71,0,0,0-4.25-1.06c-.58-2.07-1.3-3-2.12-3.19l-2.12-.35a3.65,3.65,0,0,0-1.41-2.12,10.45,10.45,0,0,1-3.19-2.48l-.7-.35-1.07-1.77c1.06-4.6,4.64-9.59,8.94-14.69,5.62-6.73,12.94-12,21.39-16.21C711.15,14.93,717,12.92,721.61,12.91Z" stroke="#000" stroke-miterlimit="10" stroke-width="2" fill="url(#linear-gradient-4)"/>
  <path d="M700.74,50.75c-1.39,1.56-1.74,3,0,4.25a2.93,2.93,0,0,0,1.77-.36,4.41,4.41,0,0,1,2.12.36h1.77a4.44,4.44,0,0,0,3.19.35c.33-.49-.21-1.11-1.07-1.77a14.46,14.46,0,0,0-2.47-.71,4,4,0,0,0-2.48-1.41A4.53,4.53,0,0,0,700.74,50.75Z" stroke="#000" stroke-miterlimit="10" stroke-width="2" fill="url(#linear-gradient-5)"/>
  <path d="M708.88,57.83c1.12.31,1.75,1.2,1.77,2.83a5,5,0,0,1-3.19,1.06,8.1,8.1,0,0,0-2.83-1.42L702.87,60c-.06-.92.52-1.3,1.41-1.42a2,2,0,0,0,2.12,0C707.45,57.86,708.29,57.59,708.88,57.83Z" stroke="#000" stroke-miterlimit="10" stroke-width="2" fill="url(#linear-gradient-6)"/>
  <path d="M769.35,23.17c-.36,1.2-2.4,1.14-5,.71a4,4,0,0,0-2.12,1.41,9.44,9.44,0,0,1-3.18.35c-2-.13-3.56,0-3.89,1.07.22,1.1,2.07,1.71,4.59,2.12,0,1.71.08,3.11.71,3.53A4.39,4.39,0,0,1,763,33.78,3.29,3.29,0,0,0,764.76,37c.37.44.1.91-.71,1.42a8.92,8.92,0,0,0-4.6,1.06,25.67,25.67,0,0,0-5-.36c-2.32,1.12-4.61,2.25-4.6,4.25.16.44-.17,1.11,1.33,1.62s.69.54,1.15.85a13.54,13.54,0,0,1,1.41,5c-.63,1.17,1.52,1.37,4.16,1.41H758c.55-.21.72-.74.7-1.42a5.17,5.17,0,0,1,.71-3.18l2.83-1.06a2.58,2.58,0,0,1,1.77-1.42,12.44,12.44,0,0,1,3.89,2.48,29.22,29.22,0,0,1,4.95,0,6.2,6.2,0,0,0,2.48,2.48c2.19.61,3.87,1.6,4.24,3.53.85,1.49.78,2.82-.71,3.89-2.63-.81-4.84-1.4-5.3-1.06-1.32-.14-2.12-2.12-3.89-2.12a9.88,9.88,0,0,1-2.83-.35,5.28,5.28,0,0,0-3.19-1.07,9.22,9.22,0,0,1-3.18,1.77l-4.24,2.48c-1,1.78-2.13,3.17-4.11,3.08l-.14.1A11.39,11.39,0,0,0,749.9,66a9.52,9.52,0,0,1,.71,5.66,7.72,7.72,0,0,1,3.54,2.47c.51,1.67-.36,2.65-2.13,3.19q.56,2.44,4.25,5a12.83,12.83,0,0,1,2.47,5.3A8.79,8.79,0,0,1,763,90a16.53,16.53,0,0,1,5.66-1.42,9.59,9.59,0,0,0,4.59-2.12c1.5.51,2.81,1.1,3.19,2.12l.35,2.13,2.12,1.41c.62,1.44-.59,2.85-2.83,4.24v3.54a9.21,9.21,0,0,0-3.18,4.24l-1.06,2.13a2.9,2.9,0,0,0-.35,2.82,3.42,3.42,0,0,0,1.76,1.77c-.48,1.15-1.06,2.33-.35,3.19a4,4,0,0,1-.35,3.18l-.71,2.12c-.52,2.12-.72,3.77-.35,4.6l1.41,3.53c7-4.65,13-11.43,17.81-20.74,4.59-8.18,6.89-18.24,7.3-29.83a65.18,65.18,0,0,0-5.08-25.45C786.94,39.15,779.58,29,769.35,23.17Z" stroke="#000" stroke-miterlimit="10" stroke-width="2" fill="url(#linear-gradient-7)"/>
  <text transform="translate(-17 108.48)" font-size="107.27" font-family="Righteous-Regular, Righteous"> <tspan x="30.01" y="0" letter-spacing="-0.01em">W</tspan><tspan x="117.22" y="0" letter-spacing="0em">orld Games</tspan></text>
</svg>
