<svg id="Layer_1" data-name="Layer 1" xmlns="http://www.w3.org/2000/svg" xmlns:xlink="http://www.w3.org/1999/xlink" width="451" height="138" viewBox="0 0 451 138">
  <defs>
    <linearGradient id="linear-gradient" x1="10.13" y1="69.5" x2="437.13" y2="69.5" gradientUnits="userSpaceOnUse">
      <stop offset="0.04" stop-color="#ed1c24"/>
      <stop offset="0.51" stop-color="#f15a24"/>
      <stop offset="1" stop-color="#ed1c24"/>
    </linearGradient>
  </defs>
  <title>maxicans_button</title>
  <rect x="10.13" y="11" width="427" height="117" fill="url(#linear-gradient)"/>
  <g>
    <path d="M152.42,69.39c-.23-4.23-.5-9.32-.46-13.1h-.13c-1,3.56-2.29,7.34-3.83,11.52l-5.35,14.72h-3l-4.9-14.45c-1.44-4.27-2.66-8.19-3.51-11.79h-.09c-.09,3.78-.32,8.87-.59,13.41l-.81,13h-3.73l2.11-30.33h5l5.17,14.67c1.26,3.73,2.3,7.06,3.06,10.21h.14c.76-3.06,1.84-6.39,3.19-10.21l5.4-14.67h5L157,82.71h-3.82Z" fill="#fff"/>
    <path d="M178.74,68.49H167V79.42h13.14v3.29H163V52.38h16.37v3.28H167v9.59h11.79Z" fill="#fff"/>
    <path d="M201.78,82.71,197.91,76c-1.58-2.56-2.57-4.23-3.51-6h-.09c-.86,1.75-1.71,3.37-3.29,6l-3.64,6.66h-4.5l9.27-15.35-8.91-15h4.54l4,7.11c1.12,2,2,3.51,2.79,5.13h.13c.86-1.8,1.62-3.2,2.75-5.13l4.14-7.11h4.5l-9.23,14.76,9.45,15.57Z" fill="#fff"/>
    <path d="M214.78,52.38V82.71h-3.91V52.38Z" fill="#fff"/>
    <path d="M242.82,81.72a19.43,19.43,0,0,1-8,1.44c-8.55,0-15-5.4-15-15.35,0-9.49,6.44-15.93,15.84-15.93a16.24,16.24,0,0,1,7.2,1.35l-.94,3.2a14.28,14.28,0,0,0-6.12-1.26c-7.11,0-11.84,4.54-11.84,12.51,0,7.42,4.28,12.19,11.66,12.19A15.62,15.62,0,0,0,242,78.61Z" fill="#fff"/>
    <path d="M252.81,73.17l-3.15,9.54h-4l10.3-30.33h4.73L271,82.71H266.8l-3.24-9.54Zm9.94-3.06-3-8.73c-.67-2-1.12-3.78-1.57-5.54h-.09c-.45,1.8-.95,3.65-1.53,5.49l-3,8.78Z" fill="#fff"/>
    <path d="M275.44,82.71V52.38h4.28l9.72,15.34a85.8,85.8,0,0,1,5.44,9.86l.09,0c-.36-4-.45-7.74-.45-12.46V52.38h3.69V82.71h-4l-9.63-15.39A97.23,97.23,0,0,1,279,57.19l-.13.05c.22,3.82.31,7.47.31,12.51v13Z" fill="#fff"/>
    <path d="M304.51,77.94a13.89,13.89,0,0,0,7,2c4,0,6.35-2.12,6.35-5.18,0-2.83-1.62-4.45-5.72-6-5-1.75-8-4.32-8-8.59,0-4.73,3.92-8.24,9.81-8.24a13.72,13.72,0,0,1,6.71,1.49l-1.08,3.19a12.1,12.1,0,0,0-5.76-1.44c-4.14,0-5.72,2.48-5.72,4.55,0,2.83,1.85,4.23,6,5.85,5.13,2,7.74,4.45,7.74,8.91,0,4.68-3.46,8.73-10.62,8.73a15.69,15.69,0,0,1-7.74-1.94Z" fill="#fff"/>
  </g>
</svg>
