<svg id="Layer_1" data-name="Layer 1" xmlns="http://www.w3.org/2000/svg" width="149" height="24" viewBox="0 0 149 24">
  <title>price_4</title>
  <g>
    <path d="M5,9.67v-2H19v2Zm0,4v-2H19v2Z"/>
    <path d="M45,17.67v-4H37v-4h2v-2h2v-2h2v-2h6v8h2v2H49v4Zm-4-6h4v-4H43v2H41Z"/>
    <path d="M71,17.67v-2H69v-6h2v-2H83v2H73v6H83v2Z"/>
    <path d="M87,17.67v-2H85v-6h2v-2H97v2h2v6H97v2Zm2-2h6v-6H89Z"/>
    <path d="M103,17.67v-2h4v-6h-2v-2h6v8h4v2Zm4-12v-2h4v2Z"/>
    <path d="M117,17.67v-10h12v2h2v8h-4v-8h-6v8Z"/>
    <path d="M133,17.67v-2h10v-2h-8v-2h-2v-2h2v-2h10v2h-8v2h8v2h2v2h-2v2Z"/>
  </g>
</svg>
