<svg id="Layer_1" data-name="Layer 1" xmlns="http://www.w3.org/2000/svg" width="1921" height="1483" viewBox="0 0 1921 1483">
  <title>slot_machine</title>
  <text transform="matrix(0.9, 0.06, -0.07, 1, -1150.75, -452.6)" font-size="161.42" fill="#8643ef" stroke="#000" stroke-miterlimit="10" stroke-width="4" font-family="BubbleGum">S</text>
  <text transform="matrix(0.9, 0.08, -0.09, 1, -1070.81, -447.14)" font-size="161.42" fill="#8643ef" stroke="#000" stroke-miterlimit="10" stroke-width="4" font-family="BubbleGum">e</text>
  <text transform="matrix(0.9, 0.1, -0.12, 0.99, -998.12, -440.88)" font-size="161.42" fill="#8643ef" stroke="#000" stroke-miterlimit="10" stroke-width="4" font-family="BubbleGum">r</text>
  <text transform="matrix(0.9, 0.12, -0.14, 0.99, -908.45, -430.92)" font-size="161.42" fill="#8643ef" stroke="#000" stroke-miterlimit="10" stroke-width="4" font-family="BubbleGum">p</text>
  <text transform="matrix(0.89, 0.15, -0.17, 0.99, -827.86, -419.83)" font-size="161.42" fill="#8643ef" stroke="#000" stroke-miterlimit="10" stroke-width="4" font-family="BubbleGum">e</text>
  <text transform="matrix(0.89, 0.17, -0.2, 0.98, -756.05, -408.32)" font-size="161.42" fill="#8643ef" stroke="#000" stroke-miterlimit="10" stroke-width="4" font-family="BubbleGum">n</text>
  <text transform="matrix(0.88, 0.2, -0.23, 0.98, -663.09, -390.25)" font-size="161.42" fill="#8643ef" stroke="#000" stroke-miterlimit="10" stroke-width="4" font-family="BubbleGum">t</text>
  <text transform="matrix(0.88, 0.23, -0.25, 0.97, -580.2, -370.87)" font-size="161.42" fill="#8643ef" stroke="#000" stroke-miterlimit="10" stroke-width="4" font-family="BubbleGum"> </text>
  <text transform="matrix(0.87, 0.25, -0.28, 0.96, -541.95, -361.3)" font-size="161.42" fill="#8643ef" stroke="#000" stroke-miterlimit="10" stroke-width="4" font-family="BubbleGum">s</text>
  <text transform="matrix(0.86, 0.28, -0.31, 0.95, -465.48, -339.41)" font-size="161.42" fill="#8643ef" stroke="#000" stroke-miterlimit="10" stroke-width="4" font-family="BubbleGum">e</text>
  <text transform="matrix(0.85, 0.32, -0.35, 0.94, -396.54, -317.29)" font-size="161.42" fill="#8643ef" stroke="#000" stroke-miterlimit="10" stroke-width="4" font-family="BubbleGum">a</text>
  <text transform="matrix(0.84, 0.35, -0.39, 0.92, -309.56, -284.63)" font-size="161.42" fill="#8643ef" stroke="#000" stroke-miterlimit="10" stroke-width="4" font-family="BubbleGum">!</text>
  <rect width="530" height="1484" fill="#d3d3d3"/>
  <line x1="61" y1="763" x2="474" y2="763" fill="none" stroke="#000" stroke-miterlimit="10" stroke-width="12"/>
  <g>
    <path d="M55.64,101.12V96.74H51.26V92.37H46.89V79.24h4.37V74.87h4.38V70.49h17.5v4.38h4.37v4.37H68.76V74.87H60v4.37H55.64V92.37H60v4.37h8.75V92.37h8.75v4.37H73.14v4.38Z"/>
    <path d="M81.89,101.12V70.49h8.75V83.62h13.12V70.49h8.75v30.63h-8.75V88H90.64v13.13Z"/>
    <path d="M116.89,101.12V79.24h4.37V74.87h4.38V70.49h13.12v4.38h4.38v4.37h4.37v21.88h-8.75V92.37H125.64v8.75ZM125.64,88h13.12V79.24h-4.37V74.87H130v4.37h-4.37Z"/>
    <path d="M151.89,101.12V70.49h8.75v4.38H165v4.37h4.38v4.38h4.37V70.49h8.75v30.63h-8.75V92.37h-4.37V88H165V83.62h-4.37v17.5Z"/>
    <path d="M195.64,101.12V96.74h-4.38V92.37h-4.37V79.24h4.37V74.87h4.38V70.49h21.87v4.38H200v4.37h-4.37V92.37H200v4.37h8.75V88h-4.37V83.62h13.12v17.5Z"/>
    <path d="M221.89,101.12V70.49h30.62v4.38H230.64v8.75h17.5V88h-17.5v8.75h21.87v4.38Z"/>
    <path d="M305,101.12V74.87h-8.75V70.49h26.25v4.38h-8.75v26.25Z"/>
    <path d="M326.89,101.12V70.49h8.75V83.62h13.12V70.49h8.75v30.63h-8.75V88H335.64v13.13Z"/>
    <path d="M361.89,101.12V70.49h30.62v4.38H370.64v8.75h17.5V88h-17.5v8.75h21.87v4.38Z"/>
    <path d="M396.89,101.12V70.49h8.75v4.38H410v4.37h4.38V74.87h4.37V70.49h8.75v30.63h-8.75V83.62h-4.37v8.75H410V83.62h-4.37v17.5Z"/>
    <path d="M431.89,101.12V70.49h30.62v4.38H440.64v8.75h17.5V88h-17.5v8.75h21.87v4.38Z"/>
    <path d="M475.64,83.62V74.87h8.75v8.75Zm0,13.12V88h8.75v8.75Z"/>
  </g>
  <path d="M1088.53,219.47H949.58C966.41,187,987.46,171,1014.5,193.85c-1.45-31,55.9-39.59,62.64.56,0,0-8-48.4,35.31-37s13.66,62.07,13.66,62.07Z" fill="#fff" stroke="#000" stroke-miterlimit="10"/>
  <rect x="699.64" y="367.93" width="1004.7" height="642.2" fill="#7f190b" stroke="#000" stroke-miterlimit="10" stroke-width="2"/>
  <polygon points="1831.36 1268.14 1704.86 1010.92 700.16 1010.92 618.57 1273.22 618.57 1481.86 1831.36 1481.86 1831.36 1268.14" fill="#7f190b" stroke="#000" stroke-miterlimit="10" stroke-width="5"/>
  <line x1="1832" y1="1482.5" x2="618.57" y2="1482.5" fill="none" stroke="#000" stroke-miterlimit="10" stroke-width="3"/>
  <rect x="737.23" y="427.08" width="720.27" height="536.22" fill="#fff" stroke="#000" stroke-miterlimit="10"/>
  <line x1="981.65" y1="425.37" x2="981.65" y2="963.84" fill="none" stroke="#7f190b" stroke-miterlimit="10" stroke-width="9"/>
  <line x1="1226.31" y1="425.37" x2="1226.31" y2="963.84" fill="none" stroke="#7f190b" stroke-miterlimit="10" stroke-width="9"/>
  <rect x="1487.83" y="482.34" width="188.41" height="61.25" fill="#d3d3d3" stroke="#000" stroke-miterlimit="10"/>
  <rect x="1487.83" y="707.15" width="188.41" height="61.25" fill="#d3d3d3" stroke="#000" stroke-miterlimit="10"/>
  <text transform="translate(1490.5 467.01) scale(0.59 1)" font-size="31" fill="#fff" font-family="PressStart2P-Regular, "Press Start 2P"">Coins won:</text>
  <text transform="translate(1490.5 691.82) scale(0.59 1)" font-size="27" fill="#fff" font-family="PressStart2P-Regular, "Press Start 2P"">Spins left:</text>
  <rect x="620.11" y="1273.21" width="1212.89" height="207.68" fill="#540d05" stroke="#000" stroke-miterlimit="10" stroke-width="2"/>
  <path d="M1704.61,368.63S1556.88,101,1184.34,101,700.47,368.63,700.47,368.63" fill="#7f190b" stroke="#000" stroke-miterlimit="10" stroke-width="2"/>
  <text transform="translate(935.37 271.92) rotate(-24.83) scale(0.78 1)" font-size="100" fill="#fff" font-family="Righteous-Regular, Righteous">W</text>
  <text transform="translate(990.87 246.58) rotate(-15.76) scale(0.78 1)" font-size="100" fill="#fff" font-family="Righteous-Regular, Righteous">O</text>
  <text transform="matrix(0.76, -0.14, 0.17, 0.98, 1047.44, 230.91)" font-size="100" fill="#fff" font-family="Righteous-Regular, Righteous">R</text>
  <text transform="matrix(0.77, -0.08, 0.11, 0.99, 1096.11, 222.38)" font-size="100" fill="#fff" font-family="Righteous-Regular, Righteous">L</text>
  <text transform="matrix(0.78, -0.03, 0.04, 1, 1138.47, 217.76)" font-size="100" fill="#fff" font-family="Righteous-Regular, Righteous">D</text>
  <text transform="translate(1188.41 215.97) rotate(0.22) scale(0.78 1)" font-size="100" fill="#fff" font-family="Righteous-Regular, Righteous"> </text>
  <text transform="matrix(0.77, 0.04, -0.05, 1, 1209.31, 215.67)" font-size="100" fill="#fff" font-family="Righteous-Regular, Righteous">G</text>
  <text transform="translate(1259.65 218.16) rotate(7.06) scale(0.78 1)" font-size="100" fill="#fff" font-family="Righteous-Regular, Righteous">A</text>
  <text transform="matrix(0.76, 0.17, -0.22, 0.98, 1310.08, 223.97)" font-size="100" fill="#fff" font-family="Righteous-Regular, Righteous">M</text>
  <text transform="translate(1370.3 237.49) rotate(18.94) scale(0.78 1)" font-size="100" fill="#fff" font-family="Righteous-Regular, Righteous">E</text>
  <text transform="matrix(0.69, 0.35, -0.45, 0.89, 1410.21, 250.66)" font-size="100" fill="#fff" font-family="Righteous-Regular, Righteous">S</text>
</svg>
