<svg id="Layer_1" data-name="Layer 1" xmlns="http://www.w3.org/2000/svg" width="1245" height="1400" viewBox="600 83 1245 1400">
  <title>slot_machine</title>
  <path d="M1088.53,219.47H949.58C966.41,187,987.46,171,1014.5,193.85c-1.45-31,55.9-39.59,62.64.56,0,0-8-48.4,35.31-37s13.66,62.07,13.66,62.07Z" fill="#fff" stroke="#000" stroke-miterlimit="10"/>
  <rect x="699.64" y="367.93" width="1004.7" height="642.2" fill="#7f190b" stroke="#000" stroke-miterlimit="10" stroke-width="2"/>
  <polygon points="1831.36 1268.14 1704.86 1010.92 700.16 1010.92 618.57 1273.22 618.57 1481.86 1831.36 1481.86 1831.36 1268.14" fill="#7f190b" stroke="#000" stroke-miterlimit="10" stroke-width="5"/>
  <line x1="1832" y1="1482.5" x2="618.57" y2="1482.5" fill="none" stroke="#000" stroke-miterlimit="10" stroke-width="3"/>
<!--  <rect x="737.23" y="427.08" width="720.27" height="536.22" fill="#fff" stroke="#000" stroke-miterlimit="10"/>-->
  <rect x="737.23" y="427.08" width="720.27" height="450" fill="#2b1e14"/>
<!--  <line x1="981.65" y1="425.37" x2="981.65" y2="963.84" fill="none" stroke="#7f190b" stroke-miterlimit="10" stroke-width="9"/>-->
<!--  <line x1="1226.31" y1="425.37" x2="1226.31" y2="963.84" fill="none" stroke="#7f190b" stroke-miterlimit="10" stroke-width="9"/>-->
  <rect x="1487.83" y="482.34" width="188.41" height="61.25" fill="#d3d3d3" stroke="#000" stroke-miterlimit="10"/>
  <rect x="1487.83" y="707.15" width="188.41" height="61.25" fill="#d3d3d3" stroke="#000" stroke-miterlimit="10"/>
  <text transform="translate(1490.5 467.01) scale(0.59 1)" font-size="31" fill="#fff" font-family="PressStart2P-Regular">Coins won:</text>
  <text transform="translate(1490.5 691.82) scale(0.59 1)" font-size="27" fill="#fff" font-family="PressStart2P-Regular">Spins left:</text>
  <rect x="620.11" y="1273.21" width="1212.89" height="207.68" fill="#540d05" stroke="#000" stroke-miterlimit="10" stroke-width="2"/>
  <path d="M1704.61,368.63S1556.88,101,1184.34,101,700.47,368.63,700.47,368.63" fill="#7f190b" stroke="#000" stroke-miterlimit="10" stroke-width="2"/>


  <text transform="translate(935.37 271.92) rotate(-24.83) scale(0.78 1)" font-size="100" fill="#fff" font-family="Righteous-Regular, Righteous">W</text>
  <text transform="translate(990.87 246.58) rotate(-15.76) scale(0.78 1)" font-size="100" fill="#fff" font-family="Righteous-Regular, Righteous">O</text>
  <text transform="matrix(0.76, -0.14, 0.17, 0.98, 1047.44, 230.91)" font-size="100" fill="#fff" font-family="Righteous-Regular, Righteous">R</text>
  <text transform="matrix(0.77, -0.08, 0.11, 0.99, 1096.11, 222.38)" font-size="100" fill="#fff" font-family="Righteous-Regular, Righteous">L</text>
  <text transform="matrix(0.78, -0.03, 0.04, 1, 1138.47, 217.76)" font-size="100" fill="#fff" font-family="Righteous-Regular, Righteous">D</text>
  <text transform="translate(1188.41 215.97) rotate(0.22) scale(0.78 1)" font-size="100" fill="#fff" font-family="Righteous-Regular, Righteous"> </text>
  <text transform="matrix(0.77, 0.04, -0.05, 1, 1209.31, 215.67)" font-size="100" fill="#fff" font-family="Righteous-Regular, Righteous">G</text>
  <text transform="translate(1259.65 218.16) rotate(7.06) scale(0.78 1)" font-size="100" fill="#fff" font-family="Righteous-Regular, Righteous">A</text>
  <text transform="matrix(0.76, 0.17, -0.22, 0.98, 1310.08, 223.97)" font-size="100" fill="#fff" font-family="Righteous-Regular, Righteous">M</text>
  <text transform="translate(1370.3 237.49) rotate(18.94) scale(0.78 1)" font-size="100" fill="#fff" font-family="Righteous-Regular, Righteous">E</text>
  <text transform="matrix(0.69, 0.35, -0.45, 0.89, 1410.21, 250.66)" font-size="100" fill="#fff" font-family="Righteous-Regular, Righteous">S</text>
</svg>
