<svg id="Layer_1" data-name="Layer 1" xmlns="http://www.w3.org/2000/svg" viewBox="0 0 204 110"><defs><style>.cls-1{fill:#ed7a1b;}.cls-1,.cls-2{stroke:#000;stroke-miterlimit:10;}.cls-2{fill:#d16819;}.cls-3{isolation:isolate;}</style></defs><title>spin_pressed</title><polygon class="cls-1" points="201.1 91.89 4.6 91.89 23.74 19.16 183.24 19.16 201.1 91.89"/><rect class="cls-2" x="4.23" y="92.5" width="196.97" height="9.21"/><g class="cls-3"><path d="M43.13,67.88V63.75H39V59.63h8.25v4.12H59.63V55.5H43.13V51.38H39V43.13h4.13V39H63.75v4.13h4.13v4.12H59.63V43.13H47.25v8.25h16.5V55.5h4.13v8.25H63.75v4.13Z"/><path d="M72,67.88V39H96.75v4.13h4.13V55.5H96.75v4.13H80.25v8.25ZM80.25,55.5H92.63V43.13H80.25Z"/><path d="M109.13,67.88V63.75h8.25V43.13h-8.25V39h24.75v4.13h-8.25V63.75h8.25v4.13Z"/><path d="M138,67.88V39h8.25v4.13h4.13v4.12h4.12v4.13h4.13V39h8.25V67.88h-8.25V59.63H154.5V55.5h-4.12V51.38h-4.13v16.5Z"/></g></svg>