<svg id="Layer_1" data-name="Layer 1" xmlns="http://www.w3.org/2000/svg" width="435" height="155" viewBox="0 0 435 155">
  <title>title_1</title>
  <g>
    <path d="M30.84,82.13a5.29,5.29,0,0,1,2.25,1.41,5.29,5.29,0,0,1,1.61,2.11,1.7,1.7,0,0,1-.49,1.68L33,88.63l34.06,37.15a4.31,4.31,0,0,1,1.3,2.31,2.55,2.55,0,0,1-.79,1.94q-1.8,2-4.63.27L37.53,115.25l17.28,24q1.93,2.69.11,4.68a2.46,2.46,0,0,1-1.86.93,4.21,4.21,0,0,1-2.38-1.09l-40-30.64L9.61,114.3a1.71,1.71,0,0,1-1.63.64,5.32,5.32,0,0,1-2.25-1.41,5.32,5.32,0,0,1-1.61-2.11,1.7,1.7,0,0,1,.49-1.69l7.54-8.27a1.7,1.7,0,0,1,1.63-.65A5.31,5.31,0,0,1,16,102.23a5.31,5.31,0,0,1,1.61,2.11,1.7,1.7,0,0,1-.49,1.69l-3.2,3.51L45.61,134,28.1,109.77q-1.42-1.91-.15-3.31a2.37,2.37,0,0,1,1.45-.85A2.57,2.57,0,0,1,31,106l26,15.48L29.82,92.14l-2.72,3a1.7,1.7,0,0,1-1.63.64,5.31,5.31,0,0,1-2.25-1.41,5.3,5.3,0,0,1-1.61-2.11,1.7,1.7,0,0,1,.49-1.69l7.1-7.79A1.7,1.7,0,0,1,30.84,82.13Z"/>
    <path d="M68.42,71.44A20.41,20.41,0,0,1,78,75.06a35.69,35.69,0,0,1,9,8.83,35.68,35.68,0,0,1,5.69,11.23,20.4,20.4,0,0,1,.54,10.25,12,12,0,0,1-13,9.48,20.39,20.39,0,0,1-9.6-3.62,35.68,35.68,0,0,1-9-8.83A35.66,35.66,0,0,1,56,91.17a20.4,20.4,0,0,1-.54-10.25,12,12,0,0,1,13-9.48ZM61.24,84.62a13.57,13.57,0,0,0,.52,7,29.66,29.66,0,0,0,10.26,14,13.56,13.56,0,0,0,6.48,2.61,8.32,8.32,0,0,0,9-6.55,13.58,13.58,0,0,0-.52-7,29.7,29.7,0,0,0-10.26-14,13.59,13.59,0,0,0-6.48-2.61,8.32,8.32,0,0,0-9,6.55Z"/>
    <path d="M112.86,45.56a4,4,0,0,1,2.54,2.19,8.92,8.92,0,0,1,.67,2q.65,2.85-.43,3.38a1.31,1.31,0,0,1-1,0,5.2,5.2,0,0,0-3.66.31q-2.62,1.3-3.9,5.4a23.77,23.77,0,0,0-.68,9.59,31.67,31.67,0,0,0,3.18,10.71l4.29,8.66L123.69,83a1.71,1.71,0,0,1,1.76,0,7.49,7.49,0,0,1,2.32,4.69,1.7,1.7,0,0,1-1.07,1.39l-18.78,9.29a1.7,1.7,0,0,1-1.76,0,7.48,7.48,0,0,1-2.32-4.69,1.7,1.7,0,0,1,1.07-1.39L109.49,90l-14.4-29.1-3.7,1.83a1.7,1.7,0,0,1-1.76,0A5.29,5.29,0,0,1,88,60.62a5.3,5.3,0,0,1-.74-2.55,1.7,1.7,0,0,1,1.07-1.39l5.95-2.94a1.7,1.7,0,0,1,1.76,0,5.31,5.31,0,0,1,1.58,2.13l4.46,9a34.3,34.3,0,0,1,0-8.55,19.6,19.6,0,0,1,2-6.65,8.49,8.49,0,0,1,3.64-3.8A7,7,0,0,1,112.86,45.56Z"/>
    <path d="M137.33,16.29a5.32,5.32,0,0,1,1.23,2.35l16.57,52.64,10-3.13a1.7,1.7,0,0,1,1.74.26,5.32,5.32,0,0,1,1.23,2.35,5.3,5.3,0,0,1,.33,2.63,1.7,1.7,0,0,1-1.27,1.21l-24.33,7.66a1.7,1.7,0,0,1-1.74-.26,7.49,7.49,0,0,1-1.57-5,1.7,1.7,0,0,1,1.27-1.21l9.71-3.06L134.93,23.34,126.46,26a1.7,1.7,0,0,1-1.74-.26,5.3,5.3,0,0,1-1.24-2.35,5.31,5.31,0,0,1-.34-2.64,1.7,1.7,0,0,1,1.27-1.21L135.6,16A1.7,1.7,0,0,1,137.33,16.29Z"/>
    <path d="M193.16,4.15a5.31,5.31,0,0,1,.9,2.5l9.08,54.43,2.63-.44a1.7,1.7,0,0,1,1.68.5,5.31,5.31,0,0,1,.9,2.5,5.31,5.31,0,0,1,0,2.66,1.7,1.7,0,0,1-1.43,1l-5.1.85a1.7,1.7,0,0,1-1.68-.5,5.3,5.3,0,0,1-.9-2.5l-.66-3.93a18.76,18.76,0,0,1-3.65,7,9.16,9.16,0,0,1-5.45,3.13,10.42,10.42,0,0,1-7.6-1.69,19.4,19.4,0,0,1-6.32-7.43,40.55,40.55,0,0,1-3.91-12.35,40.55,40.55,0,0,1-.31-12.95,19.38,19.38,0,0,1,3.56-9.08,10.41,10.41,0,0,1,6.64-4.06q6-1,11.52,6.41L189.8,10.79l-5.2.87a1.7,1.7,0,0,1-1.68-.5,5.3,5.3,0,0,1-.9-2.5,5.3,5.3,0,0,1,0-2.66,1.7,1.7,0,0,1,1.43-1l8-1.33A1.7,1.7,0,0,1,193.16,4.15ZM178.49,33.91a13.63,13.63,0,0,0-2.16,6.34,31.6,31.6,0,0,0,.36,8.78,31.58,31.58,0,0,0,2.51,8.42,13.61,13.61,0,0,0,4.1,5.3A6.74,6.74,0,0,0,188.56,64a7.57,7.57,0,0,0,4.76-2.81,13.13,13.13,0,0,0,2.55-6.28,27.94,27.94,0,0,0-.21-9.05,28,28,0,0,0-2.74-8.63,13.15,13.15,0,0,0-4.45-5.11A7.57,7.57,0,0,0,183,31,6.74,6.74,0,0,0,178.49,33.91Z"/>
    <path d="M287.76,11.85a4.28,4.28,0,0,1,.21,2.54L286,28.7a4.29,4.29,0,0,1-.89,2.39,2.76,2.76,0,0,1-3.74-.51,4.28,4.28,0,0,1-.21-2.54,12.82,12.82,0,0,0-.32-5.42,8.31,8.31,0,0,0-2.58-4,8.8,8.8,0,0,0-4.65-2,8.7,8.7,0,0,0-6.72,1.94A19.18,19.18,0,0,0,261.49,26a43.74,43.74,0,0,0-3.23,12A45.71,45.71,0,0,0,258,50.41,19,19,0,0,0,261.09,59a8.47,8.47,0,0,0,5.85,3.67,16.46,16.46,0,0,0,10-1.49L278.5,50l-8-1.1a1.7,1.7,0,0,1-1.46-1,5.3,5.3,0,0,1-.11-2.65,5.31,5.31,0,0,1,.82-2.53,1.7,1.7,0,0,1,1.67-.55l13.82,1.91a1.7,1.7,0,0,1,1.46,1,5.31,5.31,0,0,1,.11,2.65,5.31,5.31,0,0,1-.82,2.53,1.7,1.7,0,0,1-1.67.55l-1-.14-1.81,13.17a4.31,4.31,0,0,1-1.63,3.25,18.51,18.51,0,0,1-6.58,2.69,21.9,21.9,0,0,1-7.38.21,12.43,12.43,0,0,1-8.36-5,25,25,0,0,1-4.49-11.48,54.87,54.87,0,0,1,.08-16.2,53.42,53.42,0,0,1,4.36-15.59,25.76,25.76,0,0,1,7.5-9.88,12.25,12.25,0,0,1,9.27-2.59,10,10,0,0,1,5.17,2.19,11.85,11.85,0,0,1,3.34,4.71l.33-2.42a4.29,4.29,0,0,1,.89-2.39,2.76,2.76,0,0,1,3.74.52Z"/>
    <path d="M323.86,38.83q1.65,4.91-.83,12.75l-6,18.9q-1.19,3.75.86,4.4l1.09.34a1.7,1.7,0,0,1,1.27,1.21,7.47,7.47,0,0,1-1.58,5,1.7,1.7,0,0,1-1.74.26L315,81a4.79,4.79,0,0,1-3-2.64,8.62,8.62,0,0,1-.44-5.13,21.57,21.57,0,0,1-7.17,3.53,12.22,12.22,0,0,1-6.87-.14,10.06,10.06,0,0,1-5-3.39,11.33,11.33,0,0,1-2.26-6,19.5,19.5,0,0,1,1-7.89q2.38-7.5,7-10a12.7,12.7,0,0,1,10.19-.72,20.56,20.56,0,0,1,8.66,5.41l1.28-4q1.46-4.6.45-7.3t-4.76-3.88a13.74,13.74,0,0,0-5.15-.53,20.48,20.48,0,0,0-5.65,1.24,1.67,1.67,0,0,1-1.1.12q-1-.32-1-2.82a7.21,7.21,0,0,1,.26-2,3.22,3.22,0,0,1,2-2.2A21.15,21.15,0,0,1,310,31.29a18,18,0,0,1,6.35.78Q322.21,33.92,323.86,38.83Zm-23.73,16.7q-2.66,1.22-3.95,5.31a8.72,8.72,0,0,0-.14,5.88A5.6,5.6,0,0,0,299.82,70q6.17,2,13.61-4.31l1.64-5.18a21.18,21.18,0,0,0-4-3,23.13,23.13,0,0,0-4.7-2.09A8.44,8.44,0,0,0,300.13,55.53Z"/>
    <path d="M356.54,95.86a7.49,7.49,0,0,1-2.52,4.58,1.7,1.7,0,0,1-1.75-.09L348,98a1.7,1.7,0,0,1-1-1.44,5.3,5.3,0,0,1,.85-2.52l14.22-25.83a13.81,13.81,0,0,0,1.85-4.87,2.46,2.46,0,0,0-1.24-2.64q-1.34-.74-3.52.53a19.07,19.07,0,0,0-4.72,4.28,45.55,45.55,0,0,0-4.91,7.33l-7.71,14,1.62.89a1.7,1.7,0,0,1,1,1.44,7.48,7.48,0,0,1-2.52,4.58,1.7,1.7,0,0,1-1.75-.09l-4.1-2.26a1.7,1.7,0,0,1-1-1.44,5.29,5.29,0,0,1,.85-2.52l14.22-25.83A13.82,13.82,0,0,0,352,56.8a2.46,2.46,0,0,0-1.24-2.64q-1.34-.74-3.52.53A19.14,19.14,0,0,0,342.5,59a45.53,45.53,0,0,0-4.91,7.33l-7.71,14,1.48.82a1.71,1.71,0,0,1,1,1.44,7.49,7.49,0,0,1-2.52,4.58,1.7,1.7,0,0,1-1.75-.09L320,82.6a1.7,1.7,0,0,1-1-1.44,7.47,7.47,0,0,1,2.52-4.58,1.7,1.7,0,0,1,1.75.08L325.61,78l15.66-28.45-2.34-1.29a1.7,1.7,0,0,1-1-1.44,5.29,5.29,0,0,1,.85-2.52,5.3,5.3,0,0,1,1.67-2.06,1.7,1.7,0,0,1,1.75.09l4.25,2.34a1.71,1.71,0,0,1,1,1.44,5.31,5.31,0,0,1-.85,2.52l-2.38,4.32a20.28,20.28,0,0,1,6.33-4.56,5.52,5.52,0,0,1,4.85,0,4.75,4.75,0,0,1,2.29,3.87,14.82,14.82,0,0,1-1.28,7q6.88-6.5,10.9-4.29a4.8,4.8,0,0,1,2.3,2.94,10.21,10.21,0,0,1-.05,5.09,26.32,26.32,0,0,1-2.78,6.91l-13,23.65,1.77,1A1.7,1.7,0,0,1,356.54,95.86Z"/>
    <path d="M401.17,85.23a18.49,18.49,0,0,1-1.68,9.41A41.13,41.13,0,0,1,393,104.78a4.48,4.48,0,0,1-2,1.44,1.77,1.77,0,0,1-1.63-.55L372,89.75q-4.85,5.62-5.47,10.22a8.6,8.6,0,0,0,3,7.88,15.85,15.85,0,0,0,5.15,3.14,17.67,17.67,0,0,0,5.89,1.18,1.67,1.67,0,0,1,1,.35q.84.77-.42,3.2a7.12,7.12,0,0,1-1.06,1.59,3.66,3.66,0,0,1-3.14,1.31,21.78,21.78,0,0,1-12.35-5.45,12.71,12.71,0,0,1-4.23-7.8,17.86,17.86,0,0,1,1.71-9.71,40.67,40.67,0,0,1,7.38-10.74,36.92,36.92,0,0,1,10-7.95,19.77,19.77,0,0,1,9.79-2.54,12,12,0,0,1,8,3.21A11.82,11.82,0,0,1,401.17,85.23Zm-15.83-4.45a17,17,0,0,0-8.37,4l14.65,13.43q3.37-4.68,3.59-8.56A8.17,8.17,0,0,0,392.33,83,8.29,8.29,0,0,0,385.35,80.78Z"/>
    <path d="M433.46,126.06a4.29,4.29,0,0,1-1.86,1.75l-8.14,4.83a4.29,4.29,0,0,1-2.42.79,2.2,2.2,0,0,1-1.6-1.24,1.63,1.63,0,0,1,.32-2,10.44,10.44,0,0,0,2.88-6.43,12.56,12.56,0,0,0-2-6.67,6.79,6.79,0,0,0-4-3.36,6.38,6.38,0,0,0-5,.93,4.57,4.57,0,0,0-1.89,1.89,4.93,4.93,0,0,0-.41,2.53,10,10,0,0,0,.54,2.57q.46,1.37,1.31,3.48,1.14,3,1.72,4.9a15,15,0,0,1,.65,3.87,10,10,0,0,1-1.53,5.62,15.49,15.49,0,0,1-5.47,4.93,19.33,19.33,0,0,1-7.5,2.73,11.57,11.57,0,0,1-6.68-1.07,12.26,12.26,0,0,1-5.06-4.92,12.43,12.43,0,0,1-1.87-6.08,13.49,13.49,0,0,1,1.53-6.31l-2.4,1.42a4.27,4.27,0,0,1-2.42.79,2.75,2.75,0,0,1-1.92-3.25A4.28,4.28,0,0,1,382,126l10.28-6.1a4.28,4.28,0,0,1,2.42-.79,2.2,2.2,0,0,1,1.6,1.24,1.32,1.32,0,0,1,.14,1.17,4.28,4.28,0,0,1-1,1.39q-3.52,3.45-4,6.91a11.31,11.31,0,0,0,1.83,7.39,7.12,7.12,0,0,0,10.58,2.8,5,5,0,0,0,2-2,5.34,5.34,0,0,0,.5-2.68,13.91,13.91,0,0,0-.54-2.72q-.43-1.46-1.29-3.6-1.13-2.88-1.7-4.93a14.37,14.37,0,0,1-.55-4.06,9.86,9.86,0,0,1,1.57-5.22,14.68,14.68,0,0,1,5.09-4.55,17.22,17.22,0,0,1,7.16-2.52,10.72,10.72,0,0,1,6.14,1.13,11.19,11.19,0,0,1,4.4,4.29,11.75,11.75,0,0,1,1.7,5.7,13.82,13.82,0,0,1-1.17,5.93l1.93-1.14a4.28,4.28,0,0,1,2.42-.79,2.75,2.75,0,0,1,1.92,3.25Z"/>
  </g>
</svg>
