<svg id="Layer_1" data-name="Layer 1" xmlns="http://www.w3.org/2000/svg" width="900" height="900" viewBox="0 0 2000 2000">
  <title>title_1</title>
  <g>
    <path d="M41,45.3a1.5,1.5,0,0,1,1.09,1.09.93.93,0,0,1-.34.66l-.56.56,9,11.87a1,1,0,0,1,.26.79A1.54,1.54,0,0,1,50,61a1.37,1.37,0,0,1-1.73.38l-7.94-4.1,4.08,8A1.41,1.41,0,0,1,44,67a1.47,1.47,0,0,1-.77.46,1,1,0,0,1-.77-.26L30.66,58.17l-.51.51a.93.93,0,0,1-.66.34,1.5,1.5,0,0,1-1.09-1.09.94.94,0,0,1,.34-.66l3.56-3.56a.94.94,0,0,1,.66-.34,1.5,1.5,0,0,1,1.09,1.09.94.94,0,0,1-.34.66l-1.51,1.51,9.33,7.26-4.15-8a1,1,0,0,1,.26-1.23,1.49,1.49,0,0,1,.62-.41.73.73,0,0,1,.55.07l8.1,4.22L39.7,49.12,38.42,50.4a.94.94,0,0,1-.66.34,1.49,1.49,0,0,1-1.09-1.09A.94.94,0,0,1,37,49l3.35-3.36A.94.94,0,0,1,41,45.3Z"/>
    <path d="M55.19,39.95a6.55,6.55,0,0,1,3.53.55A7.75,7.75,0,0,1,63,46.4a6.53,6.53,0,0,1-.55,3.53,7.66,7.66,0,0,1-5.84,4.27,6.53,6.53,0,0,1-3.53-.55,7.75,7.75,0,0,1-4.32-5.9,6.54,6.54,0,0,1,.55-3.53,7.66,7.66,0,0,1,5.84-4.27Zm-3.82,5.13a4.24,4.24,0,0,0-.31,2.39,5.87,5.87,0,0,0,3,4.13,4.23,4.23,0,0,0,2.37.42,5.32,5.32,0,0,0,4-2.95,4.24,4.24,0,0,0,.31-2.39,5.87,5.87,0,0,0-3-4.13,4.25,4.25,0,0,0-2.37-.42,5.32,5.32,0,0,0-4,3Z"/>
    <path d="M74.37,28.64a1,1,0,0,1,.94.54,1.81,1.81,0,0,1,.17.61q.11.88-.37,1.13a.77.77,0,0,1-.42.08,3.15,3.15,0,0,0-1.55.35,4.66,4.66,0,0,0-1.94,2,7.16,7.16,0,0,0-.83,3.17,6.5,6.5,0,0,0,.72,3.27l1.3,2.52,4.39-2.26a.94.94,0,0,1,.74-.12,1.5,1.5,0,0,1,.71,1.37.94.94,0,0,1-.53.53l-8.38,4.33a.93.93,0,0,1-.73.12,1.5,1.5,0,0,1-.71-1.37.94.94,0,0,1,.53-.53l2-1.05-4.38-8.49-1.65.85a.94.94,0,0,1-.73.12A1.5,1.5,0,0,1,63,34.48.94.94,0,0,1,63.5,34l2.66-1.37a.94.94,0,0,1,.74-.12,1.12,1.12,0,0,1,.54.59l1.36,2.63a9.36,9.36,0,0,1,.48-2.78,7.83,7.83,0,0,1,1.2-2.3A5.27,5.27,0,0,1,72.2,29.1,4.15,4.15,0,0,1,74.37,28.64Z"/>
    <path d="M85.48,18.41a1.11,1.11,0,0,1,.45.66l5.14,15.4L95.52,33a.94.94,0,0,1,.75,0,1.5,1.5,0,0,1,.49,1.46.93.93,0,0,1-.6.44L85.26,38.51a.94.94,0,0,1-.75,0A1.51,1.51,0,0,1,84,37.06a.94.94,0,0,1,.6-.44L89,35.16,84.15,20.71,80.36,22a.94.94,0,0,1-.75,0,1.5,1.5,0,0,1-.49-1.46.94.94,0,0,1,.6-.44l5-1.67A.94.94,0,0,1,85.48,18.41Z"/>
    <path d="M109.72,12.89a1.11,1.11,0,0,1,.34.72l2.72,16,1.18-.2a.94.94,0,0,1,.74.1A1.49,1.49,0,0,1,115,31a.94.94,0,0,1-.66.34l-2.29.39a.94.94,0,0,1-.74-.1,1.11,1.11,0,0,1-.34-.72l-.2-1.16a6.61,6.61,0,0,1-1.8,2.18A5.58,5.58,0,0,1,106.42,33a6.22,6.22,0,0,1-3.35-.3,5.92,5.92,0,0,1-2.64-2A8.17,8.17,0,0,1,99,27.12a8.19,8.19,0,0,1,.18-3.86,5.94,5.94,0,0,1,1.81-2.8A6.22,6.22,0,0,1,104,19.06a5.71,5.71,0,0,1,5,1.6l-1-5.7-2.34.4a.94.94,0,0,1-.74-.1,1.12,1.12,0,0,1-.34-.72,1.11,1.11,0,0,1,.08-.79.94.94,0,0,1,.66-.34l3.6-.61A.94.94,0,0,1,109.72,12.89Zm-7.27,9.28a3.94,3.94,0,0,0-1.12,1.95,7,7,0,0,0,.86,5.05,3.92,3.92,0,0,0,1.7,1.47,4,4,0,0,0,2.31.24,4.57,4.57,0,0,0,2.19-1A4.07,4.07,0,0,0,109.69,28a5.65,5.65,0,0,0,.13-2.7,5.64,5.64,0,0,0-1-2.5,4.07,4.07,0,0,0-1.86-1.41,4.57,4.57,0,0,0-2.39-.19A4,4,0,0,0,102.45,22.17Z"/>
    <path d="M150.2,15.61a.93.93,0,0,1,.15.76l-.59,4.21a.93.93,0,0,1-.35.69,1.75,1.75,0,0,1-1.68-.23.94.94,0,0,1-.15-.76,2.69,2.69,0,0,0-.26-1.62,3.1,3.1,0,0,0-1.24-1.26,5.66,5.66,0,0,0-2.12-.69,5.06,5.06,0,0,0-3,.43,5.52,5.52,0,0,0-2.27,2.09,8.74,8.74,0,0,0-1.2,3.5,9.11,9.11,0,0,0,.16,3.68A5.36,5.36,0,0,0,139.24,29a4.91,4.91,0,0,0,2.69,1.22,10.43,10.43,0,0,0,4.45-.22l.46-3.29-3.58-.5a.94.94,0,0,1-.67-.32,1.49,1.49,0,0,1,.21-1.52.94.94,0,0,1,.73-.13l6.22.87a.94.94,0,0,1,.67.32,1.5,1.5,0,0,1-.21,1.52.93.93,0,0,1-.73.13L149,27l-.54,3.87a1.06,1.06,0,0,1-.66.93,10.08,10.08,0,0,1-2.89.66,14.75,14.75,0,0,1-3.3-.1,7.16,7.16,0,0,1-6.09-5.17,11,11,0,0,1-.3-4.81,10.75,10.75,0,0,1,1.63-4.54A7.61,7.61,0,0,1,140,15.12a7.17,7.17,0,0,1,4.09-.57,6.42,6.42,0,0,1,2.36.76,4.73,4.73,0,0,1,1.59,1.47l.1-.71a.93.93,0,0,1,.35-.69,1.76,1.76,0,0,1,1.68.23Z"/>
    <path d="M166,24.86a4.63,4.63,0,0,1,.27,3.89l-1.68,5.58q-.33,1.11.59,1.39l.49.15a.94.94,0,0,1,.62.42,1.5,1.5,0,0,1-.44,1.47.94.94,0,0,1-.75,0l-.9-.27a2.77,2.77,0,0,1-1.43-.93,2.22,2.22,0,0,1-.45-1.59,9.22,9.22,0,0,1-3,.81,7.76,7.76,0,0,1-3-.31A6.37,6.37,0,0,1,154,34.25a3.94,3.94,0,0,1-1.23-4.31,3.83,3.83,0,0,1,2.57-2.8,7.57,7.57,0,0,1,4.42.17,13.32,13.32,0,0,1,4,2l.36-1.19a2.57,2.57,0,0,0-.16-2.23,4,4,0,0,0-2.27-1.38,9,9,0,0,0-2.28-.36,11.13,11.13,0,0,0-2.41.16,1,1,0,0,1-.47,0c-.31-.09-.5-.39-.57-.9a1.49,1.49,0,0,1,0-.61.86.86,0,0,1,.75-.6,11.59,11.59,0,0,1,2.82-.19,12,12,0,0,1,2.81.49A6,6,0,0,1,166,24.86Zm-9.54,4.22A2,2,0,0,0,155,30.56a2,2,0,0,0,.23,1.8A3.24,3.24,0,0,0,157,33.53a7.18,7.18,0,0,0,5.73-.8l.46-1.53a13.26,13.26,0,0,0-1.91-1.09,15.69,15.69,0,0,0-2.15-.82A5.22,5.22,0,0,0,156.47,29.08Z"/>
    <path d="M183.44,44.35a1.5,1.5,0,0,1-.67,1.39.94.94,0,0,1-.74-.1l-2-.94a.94.94,0,0,1-.54-.51,1.11,1.11,0,0,1,.14-.78l3.75-7.82a2.81,2.81,0,0,0,.36-1.51,1.18,1.18,0,0,0-.74-.92,1.72,1.72,0,0,0-1.43,0,4.5,4.5,0,0,0-1.6,1.2,8.85,8.85,0,0,0-1.43,2.18l-2,4.24.75.36a.94.94,0,0,1,.54.51,1.5,1.5,0,0,1-.67,1.39.94.94,0,0,1-.74-.1l-1.9-.91a.93.93,0,0,1-.54-.51,1.11,1.11,0,0,1,.14-.78l3.75-7.82a2.8,2.8,0,0,0,.36-1.51,1.17,1.17,0,0,0-.74-.92,1.72,1.72,0,0,0-1.42,0,4.52,4.52,0,0,0-1.61,1.2A8.91,8.91,0,0,0,173,33.89l-2,4.24.69.33a1,1,0,0,1,.54.51,1.5,1.5,0,0,1-.67,1.39,1,1,0,0,1-.74-.1l-3.75-1.8a.94.94,0,0,1-.54-.51,1.5,1.5,0,0,1,.67-1.39.94.94,0,0,1,.74.1l1.08.52,4.13-8.61L172.08,28a.93.93,0,0,1-.54-.51,1.5,1.5,0,0,1,.67-1.39.94.94,0,0,1,.74.1l2,.94a.94.94,0,0,1,.54.51,1.11,1.11,0,0,1-.14.78l-.63,1.31a5.49,5.49,0,0,1,2.26-1.22,3,3,0,0,1,2,.2,2.53,2.53,0,0,1,1.28,1.36,3.52,3.52,0,0,1,.06,2.22q2.32-1.83,4.18-.93a2.82,2.82,0,0,1,1.21,1.06,3,3,0,0,1,.41,1.66,5.24,5.24,0,0,1-.58,2.14l-3.44,7.16.82.39A.94.94,0,0,1,183.44,44.35Z"/>
    <path d="M199.81,42a5.83,5.83,0,0,1,.56,3.26,8.41,8.41,0,0,1-1.22,3.4,1,1,0,0,1-.57.46,1,1,0,0,1-.7-.23l-8.74-6a4.63,4.63,0,0,0-.8,3.46,4.75,4.75,0,0,0,2.15,2.84,10.52,10.52,0,0,0,2.39,1.23,9.43,9.43,0,0,0,2.43.56,1,1,0,0,1,.45.15q.42.29.25,1.11a1.42,1.42,0,0,1-.21.53,1,1,0,0,1-1,.38,11.74,11.74,0,0,1-2.72-.75A13.87,13.87,0,0,1,189.28,51a7.82,7.82,0,0,1-2.63-2.84,5.66,5.66,0,0,1-.58-3.37,8.21,8.21,0,0,1,1.47-3.59,7.51,7.51,0,0,1,2.84-2.55,6.31,6.31,0,0,1,3.46-.66,7.28,7.28,0,0,1,3.48,1.32A7.19,7.19,0,0,1,199.81,42Zm-6.68-1.94a4.28,4.28,0,0,0-2.71,1.22l7.38,5.07a4.1,4.1,0,0,0,.29-2.92,5.43,5.43,0,0,0-5-3.37Z"/>
    <path d="M216.07,55.23a.93.93,0,0,1-.32.7l-1.91,2a.94.94,0,0,1-.68.36,1.29,1.29,0,0,1-.77-.42.73.73,0,0,1-.25-.76,3.54,3.54,0,0,0-.18-2.49,8.11,8.11,0,0,0-1.88-2.44,4.13,4.13,0,0,0-2-1.15,1.59,1.59,0,0,0-1.55.48,1,1,0,0,0-.3.76,2.24,2.24,0,0,0,.32,1,6.29,6.29,0,0,0,.65.95q.4.5,1.07,1.27.92,1.09,1.46,1.79a9.23,9.23,0,0,1,.92,1.43,4.06,4.06,0,0,1,.49,2.15,3.28,3.28,0,0,1-1,2,4,4,0,0,1-2.07,1.23,4.29,4.29,0,0,1-2.47-.22A7.87,7.87,0,0,1,203,62.15a8.07,8.07,0,0,1-1.73-2.23,5.69,5.69,0,0,1-.62-2.41l-.56.6a.93.93,0,0,1-.68.36,1.75,1.75,0,0,1-1.24-1.16.94.94,0,0,1,.32-.71L200.95,54a.93.93,0,0,1,.68-.36,1.29,1.29,0,0,1,.77.42.76.76,0,0,1,.26.43,1.11,1.11,0,0,1-.09.55,3.67,3.67,0,0,0-.12,2.7,7.1,7.1,0,0,0,2,2.72,4.63,4.63,0,0,0,2.32,1.34,1.9,1.9,0,0,0,1.79-.57,1.12,1.12,0,0,0,.33-.82,2.38,2.38,0,0,0-.31-1,8.75,8.75,0,0,0-.67-1c-.28-.36-.64-.79-1.09-1.31q-.9-1.05-1.46-1.8a8.58,8.58,0,0,1-.92-1.51,3.88,3.88,0,0,1-.41-2,3.1,3.1,0,0,1,.92-1.84,3.63,3.63,0,0,1,2-1.14,4.08,4.08,0,0,1,2.29.25,7.21,7.21,0,0,1,2.27,1.49,7.64,7.64,0,0,1,1.6,2.09,6.13,6.13,0,0,1,.67,2.25l.45-.48a.94.94,0,0,1,.68-.36,1.75,1.75,0,0,1,1.24,1.16Z"/>
  </g>
</svg>
