<svg id="Layer_1" data-name="Layer 1" xmlns="http://www.w3.org/2000/svg" width="900" height="200" viewBox="0 0 1400 200">
  <title>title_1</title>
  <g>
    <path d="M42.77,97.77a3.32,3.32,0,0,1,2.06,1.17A3.3,3.3,0,0,1,46,101a2.76,2.76,0,0,1-1,2l-1.65,1.66L70,139.75a3.05,3.05,0,0,1,.77,2.33,4.55,4.55,0,0,1-1.41,2.3q-2.51,2.52-5.12,1.14L40.76,133.37l12.09,23.55q1.34,2.64-1.2,5.18a4.34,4.34,0,0,1-2.28,1.36,3,3,0,0,1-2.29-.78l-35-26.82-1.5,1.5a2.75,2.75,0,0,1-2,1,3.29,3.29,0,0,1-2.05-1.17,3.29,3.29,0,0,1-1.17-2.05,2.78,2.78,0,0,1,1-2L17,122.65a2.78,2.78,0,0,1,2-1A3.29,3.29,0,0,1,21,122.81a3.29,3.29,0,0,1,1.17,2.05,2.79,2.79,0,0,1-1,2l-4.48,4.48,27.64,21.49L32,129q-1-1.87.76-3.65a4.42,4.42,0,0,1,1.83-1.21,2.15,2.15,0,0,1,1.64.2l24,12.5L38.85,109.09l-3.8,3.8a2.77,2.77,0,0,1-2,1A3.28,3.28,0,0,1,31,112.74a3.28,3.28,0,0,1-1.17-2.06,2.77,2.77,0,0,1,1-2l9.93-9.94A2.79,2.79,0,0,1,42.77,97.77Z"/>
    <path d="M78.71,79.94a19.4,19.4,0,0,1,10.45,1.62A22.94,22.94,0,0,1,101.95,99a19.34,19.34,0,0,1-1.62,10.45A22.67,22.67,0,0,1,83,122.13a19.35,19.35,0,0,1-10.45-1.62A23,23,0,0,1,59.81,103a19.37,19.37,0,0,1,1.62-10.45A22.68,22.68,0,0,1,78.71,79.94ZM67.39,95.13a12.55,12.55,0,0,0-.92,7.07,17.37,17.37,0,0,0,8.93,12.21,12.54,12.54,0,0,0,7,1.26,15.74,15.74,0,0,0,11.93-8.73,12.56,12.56,0,0,0,.93-7.07,17.38,17.38,0,0,0-8.94-12.21,12.57,12.57,0,0,0-7-1.26,15.76,15.76,0,0,0-11.94,8.73Z"/>
    <path d="M130.49,48.46A3.07,3.07,0,0,1,133.27,50a5.37,5.37,0,0,1,.49,1.8q.33,2.62-1.1,3.35a2.28,2.28,0,0,1-1.24.25,9.32,9.32,0,0,0-4.59,1,13.8,13.8,0,0,0-5.73,6,21.2,21.2,0,0,0-2.45,9.39,19.25,19.25,0,0,0,2.14,9.68L124.65,89l13-6.7a2.79,2.79,0,0,1,2.18-.37,4.43,4.43,0,0,1,2.09,4,2.78,2.78,0,0,1-1.56,1.56L115.53,100.4a2.75,2.75,0,0,1-2.17.37,4.44,4.44,0,0,1-2.09-4,2.79,2.79,0,0,1,1.56-1.56L118.87,92l-13-25.12L101,69.44a2.78,2.78,0,0,1-2.17.37,4.43,4.43,0,0,1-2.09-4,2.8,2.8,0,0,1,1.56-1.57l7.86-4.06a2.79,2.79,0,0,1,2.18-.37,3.32,3.32,0,0,1,1.6,1.73l4,7.79A27.7,27.7,0,0,1,115.37,61a23.17,23.17,0,0,1,3.56-6.82,15.59,15.59,0,0,1,5.14-4.41A12.28,12.28,0,0,1,130.49,48.46Z"/>
    <path d="M163.37,18.18a3.29,3.29,0,0,1,1.32,2l15.2,45.58,13.2-4.4a2.78,2.78,0,0,1,2.21,0,4.44,4.44,0,0,1,1.44,4.32,2.76,2.76,0,0,1-1.78,1.3L162.71,77.67a2.79,2.79,0,0,1-2.21,0,4.46,4.46,0,0,1-1.44-4.32,2.79,2.79,0,0,1,1.78-1.3l12.88-4.3L159.45,25l-11.23,3.75a2.78,2.78,0,0,1-2.21,0,3.33,3.33,0,0,1-1.32-2,3.3,3.3,0,0,1-.12-2.36,2.77,2.77,0,0,1,1.78-1.3l14.81-4.94A2.79,2.79,0,0,1,163.37,18.18Z"/>
    <path d="M235.14,1.84a3.28,3.28,0,0,1,1,2.14l8.06,47.37,3.5-.6a2.78,2.78,0,0,1,2.19.31,3.32,3.32,0,0,1,1,2.14,3.31,3.31,0,0,1-.24,2.35,2.78,2.78,0,0,1-2,1l-6.79,1.16a2.78,2.78,0,0,1-2.19-.31,3.29,3.29,0,0,1-1-2.14l-.58-3.42a19.56,19.56,0,0,1-5.33,6.45,16.52,16.52,0,0,1-7.42,3.19,18.42,18.42,0,0,1-9.91-.89,17.52,17.52,0,0,1-7.81-6.06,24.2,24.2,0,0,1-4.27-10.6,24.25,24.25,0,0,1,.52-11.42,17.58,17.58,0,0,1,5.37-8.3,18.42,18.42,0,0,1,9.06-4.12q8-1.36,14.75,4.75L230.22,8,223.3,9.16a2.79,2.79,0,0,1-2.19-.31,3.32,3.32,0,0,1-1-2.14,3.29,3.29,0,0,1,.24-2.35,2.77,2.77,0,0,1,2-1L233,1.53A2.78,2.78,0,0,1,235.14,1.84ZM213.62,29.3a11.65,11.65,0,0,0-3.31,5.77,18.66,18.66,0,0,0-.16,7.73,18.63,18.63,0,0,0,2.7,7.24,11.61,11.61,0,0,0,5,4.36,11.73,11.73,0,0,0,6.85.71,13.54,13.54,0,0,0,6.48-2.87A12.06,12.06,0,0,0,235,46.49a16.74,16.74,0,0,0,.38-8,16.71,16.71,0,0,0-3-7.41,12.06,12.06,0,0,0-5.5-4.17,13.53,13.53,0,0,0-7.07-.56A11.69,11.69,0,0,0,213.62,29.3Z"/>
    <path d="M355,9.9a2.77,2.77,0,0,1,.43,2.25L353.67,24.6a2.76,2.76,0,0,1-1,2,5.19,5.19,0,0,1-5-.69,2.78,2.78,0,0,1-.43-2.25,8,8,0,0,0-.76-4.79,9.18,9.18,0,0,0-3.66-3.73,16.75,16.75,0,0,0-6.29-2,15,15,0,0,0-8.78,1.27,16.33,16.33,0,0,0-6.71,6.2A25.88,25.88,0,0,0,317.49,31,27,27,0,0,0,318,41.9a15.86,15.86,0,0,0,4.57,7.75,14.54,14.54,0,0,0,8,3.61,30.87,30.87,0,0,0,13.18-.66L345,42.84l-10.61-1.47a2.78,2.78,0,0,1-2-1,3.3,3.3,0,0,1-.31-2.34,3.31,3.31,0,0,1,.94-2.17,2.78,2.78,0,0,1,2.17-.38l18.43,2.56a2.78,2.78,0,0,1,2,1,3.27,3.27,0,0,1,.31,2.34,3.27,3.27,0,0,1-.94,2.17,2.75,2.75,0,0,1-2.17.38l-1.38-.19-1.59,11.47a3.14,3.14,0,0,1-2,2.75,29.84,29.84,0,0,1-8.54,1.94,43.66,43.66,0,0,1-9.77-.29,21.21,21.21,0,0,1-18-15.31,32.56,32.56,0,0,1-.89-14.24,31.81,31.81,0,0,1,4.82-13.43,22.52,22.52,0,0,1,9.33-8.2A21.23,21.23,0,0,1,337,6.74a19,19,0,0,1,7,2.26,14,14,0,0,1,4.72,4.36l.29-2.11a2.77,2.77,0,0,1,1-2,5.2,5.2,0,0,1,5,.69Z"/>
    <path d="M401.78,37.28q2.85,4.67.79,11.52l-5,16.53q-1,3.28,1.75,4.1l1.45.44a2.79,2.79,0,0,1,1.82,1.25,4.44,4.44,0,0,1-1.31,4.36,2.79,2.79,0,0,1-2.21,0l-2.66-.8A8.21,8.21,0,0,1,392.22,72a6.56,6.56,0,0,1-1.32-4.72,27.3,27.3,0,0,1-8.76,2.39,23,23,0,0,1-8.9-.91,18.87,18.87,0,0,1-7-3.66,11.66,11.66,0,0,1-3.65-12.76q2-6.56,7.61-8.28t13.07.52a39.44,39.44,0,0,1,12,5.92l1.06-3.53q1.21-4-.48-6.6t-6.72-4.08a26.76,26.76,0,0,0-6.74-1.08,33,33,0,0,0-7.12.48,2.94,2.94,0,0,1-1.4,0c-.91-.27-1.47-1.17-1.68-2.68a4.4,4.4,0,0,1,0-1.8,2.55,2.55,0,0,1,2.21-1.78,34.31,34.31,0,0,1,8.34-.55,35.54,35.54,0,0,1,8.33,1.45Q398.93,32.62,401.78,37.28ZM373.54,49.77a5.87,5.87,0,0,0-4.33,4.38,5.94,5.94,0,0,0,.68,5.34,9.59,9.59,0,0,0,5.37,3.45q8.27,2.48,17-2.36l1.36-4.53a39.25,39.25,0,0,0-5.64-3.21,46.46,46.46,0,0,0-6.38-2.44A15.44,15.44,0,0,0,373.54,49.77Z"/>
    <path d="M453.37,95a4.44,4.44,0,0,1-2,4.11,2.79,2.79,0,0,1-2.19-.31L443.39,96a2.78,2.78,0,0,1-1.6-1.52,3.29,3.29,0,0,1,.42-2.32L453.31,69a8.31,8.31,0,0,0,1.06-4.47,3.48,3.48,0,0,0-2.19-2.71,5.08,5.08,0,0,0-4.22.07,13.34,13.34,0,0,0-4.75,3.54A26.2,26.2,0,0,0,439,71.87l-6,12.55,2.23,1.07A2.78,2.78,0,0,1,436.8,87a4.43,4.43,0,0,1-2,4.11,2.8,2.8,0,0,1-2.19-.3L427,88.1a2.77,2.77,0,0,1-1.6-1.52,3.28,3.28,0,0,1,.42-2.32l11.11-23.15A8.3,8.3,0,0,0,438,56.65a3.47,3.47,0,0,0-2.19-2.71,5.09,5.09,0,0,0-4.22.07,13.37,13.37,0,0,0-4.75,3.54A26.39,26.39,0,0,0,422.61,64l-6,12.55,2,1A2.8,2.8,0,0,1,420.22,79a4.44,4.44,0,0,1-2,4.11,2.8,2.8,0,0,1-2.19-.3L405,77.52A2.79,2.79,0,0,1,403.35,76a4.44,4.44,0,0,1,2-4.11,2.78,2.78,0,0,1,2.19.3l3.21,1.54L423,48.25l-3.2-1.54a2.76,2.76,0,0,1-1.61-1.51,3.29,3.29,0,0,1,.42-2.32,3.29,3.29,0,0,1,1.55-1.78,2.77,2.77,0,0,1,2.19.31l5.83,2.79a2.78,2.78,0,0,1,1.6,1.52,3.28,3.28,0,0,1-.42,2.32l-1.86,3.87a16.26,16.26,0,0,1,6.68-3.6,8.9,8.9,0,0,1,6,.58,7.48,7.48,0,0,1,3.79,4,10.41,10.41,0,0,1,.16,6.57q6.88-5.41,12.39-2.76A8.34,8.34,0,0,1,460,59.86a8.76,8.76,0,0,1,1.21,4.91,15.52,15.52,0,0,1-1.71,6.32L449.34,92.28l2.43,1.17A2.78,2.78,0,0,1,453.37,95Z"/>
    <path d="M497.85,90.14a17.26,17.26,0,0,1,1.65,9.66,24.89,24.89,0,0,1-3.61,10.07,2.82,2.82,0,0,1-1.7,1.36,3,3,0,0,1-2.08-.69L466.25,92.75q-3.41,5.5-2.38,10.23t6.36,8.4a31.15,31.15,0,0,0,7.08,3.63,27.93,27.93,0,0,0,7.18,1.65,2.9,2.9,0,0,1,1.33.44q1.25.86.73,3.29a4.21,4.21,0,0,1-.61,1.58,2.94,2.94,0,0,1-3.09,1.14,34.74,34.74,0,0,1-8.05-2.22,41.06,41.06,0,0,1-8.13-4.33,23.16,23.16,0,0,1-7.79-8.42,16.75,16.75,0,0,1-1.72-10,24.29,24.29,0,0,1,4.37-10.63,22.22,22.22,0,0,1,8.4-7.54,18.69,18.69,0,0,1,10.23-1.94A21.54,21.54,0,0,1,490.45,82,21.28,21.28,0,0,1,497.85,90.14Zm-19.78-5.76A12.67,12.67,0,0,0,470,88l21.83,15a12.14,12.14,0,0,0,.86-8.64q-1.21-4-5.86-7.21A13.93,13.93,0,0,0,478.08,84.39Z"/>
    <path d="M538,122.19a2.75,2.75,0,0,1-.95,2.08l-5.64,6a2.77,2.77,0,0,1-2,1.08,3.81,3.81,0,0,1-2.28-1.25,2.16,2.16,0,0,1-.75-2.24,10.47,10.47,0,0,0-.52-7.37,24,24,0,0,0-5.58-7.23,12.22,12.22,0,0,0-5.81-3.41,4.7,4.7,0,0,0-4.59,1.43,3,3,0,0,0-.9,2.25,6.63,6.63,0,0,0,.93,2.84,18.62,18.62,0,0,0,1.91,2.81q1.19,1.48,3.17,3.75,2.74,3.23,4.34,5.3a27.32,27.32,0,0,1,2.71,4.24,12,12,0,0,1,1.44,6.35,9.7,9.7,0,0,1-2.9,5.9,11.93,11.93,0,0,1-6.11,3.63,12.69,12.69,0,0,1-7.31-.64,23.3,23.3,0,0,1-7.72-5.05,23.89,23.89,0,0,1-5.11-6.59,16.85,16.85,0,0,1-1.82-7.12l-1.66,1.77a2.76,2.76,0,0,1-2,1.08,5.19,5.19,0,0,1-3.67-3.44,2.77,2.77,0,0,1,.95-2.09l7.13-7.58a2.76,2.76,0,0,1,2-1.08,3.82,3.82,0,0,1,2.28,1.25,2.25,2.25,0,0,1,.76,1.28,3.28,3.28,0,0,1-.27,1.62,10.86,10.86,0,0,0-.36,8,21,21,0,0,0,5.77,8q3.67,3.45,6.87,4a5.61,5.61,0,0,0,5.29-1.69,3.3,3.3,0,0,0,1-2.43,7,7,0,0,0-.92-3,25.9,25.9,0,0,0-2-3c-.82-1.06-1.89-2.35-3.22-3.89q-2.67-3.11-4.34-5.33a25.4,25.4,0,0,1-2.71-4.46,11.48,11.48,0,0,1-1.2-5.92,9.18,9.18,0,0,1,2.71-5.45,10.73,10.73,0,0,1,5.88-3.37,12.08,12.08,0,0,1,6.79.75,21.35,21.35,0,0,1,6.72,4.41,22.62,22.62,0,0,1,4.75,6.19,18.13,18.13,0,0,1,2,6.68l1.34-1.43a2.77,2.77,0,0,1,2-1.08,5.19,5.19,0,0,1,3.67,3.45Z"/>
  </g>
</svg>
