<svg id="Layer_1" data-name="Layer 1" xmlns="http://www.w3.org/2000/svg" xmlns:xlink="http://www.w3.org/1999/xlink" viewBox="0 0 427 117"><defs><style>.cls-1{fill:url(#linear-gradient);}.cls-2{isolation:isolate;}.cls-3{fill:#fff;}</style><linearGradient id="linear-gradient" y1="63.5" x2="427" y2="63.5" gradientTransform="matrix(1, 0, 0, -1, 0, 122)" gradientUnits="userSpaceOnUse"><stop offset="0.04" stop-color="#1a48c4"/><stop offset="0.51" stop-color="#29abe2"/><stop offset="1" stop-color="#1a45c3"/></linearGradient></defs><title>vikings_button</title><rect class="cls-1" width="427" height="117"/><g class="cls-2"><path class="cls-3" d="M147.64,72.27l-9.95-30.33H142l4.72,14.94c1.26,4.1,2.39,7.83,3.24,11.34H150c.86-3.51,2.07-7.33,3.47-11.29l5.13-15h4.18L152,72.27Z"/><path class="cls-3" d="M170,41.94V72.27h-4V41.94Z"/><path class="cls-3" d="M176.84,41.94h3.92V56.57h.13c.81-1.17,1.62-2.25,2.39-3.24l9.27-11.39h4.86l-11,12.87,11.83,17.46h-4.63l-9.95-14.89-2.92,3.33V72.27h-3.92Z"/><path class="cls-3" d="M205.15,41.94V72.27h-4V41.94Z"/><path class="cls-3" d="M212,72.27V41.94h4.32L226,57.29a83.53,83.53,0,0,1,5.4,9.85l.14,0c-.36-4.06-.45-7.74-.45-12.42V41.94h3.69V72.27h-4l-9.63-15.39a88.25,88.25,0,0,1-5.63-10.12l-.13,0c.22,3.83.27,7.47.27,12.51v13Z"/><path class="cls-3" d="M264.73,70.92a27.33,27.33,0,0,1-9.36,1.67c-4.59,0-8.37-1.17-11.34-4-2.61-2.52-4.23-6.57-4.23-11.29,0-9,6.25-15.66,16.42-15.66A19.08,19.08,0,0,1,263.83,43l-1,3.2a15,15,0,0,0-6.71-1.31c-7.38,0-12.19,4.59-12.19,12.2s4.59,12.24,11.7,12.24a13,13,0,0,0,5.22-.81V59.49h-6.12V56.34h10Z"/><path class="cls-3" d="M270.17,67.5a13.73,13.73,0,0,0,7,1.94c4,0,6.34-2.07,6.34-5.14,0-2.83-1.62-4.49-5.71-6-4.95-1.71-8-4.32-8-8.55,0-4.73,3.91-8.24,9.81-8.24a14.21,14.21,0,0,1,6.66,1.44l-1.08,3.24a11.3,11.3,0,0,0-5.72-1.44c-4.14,0-5.71,2.48-5.71,4.55,0,2.79,1.84,4.18,6,5.8,5.13,2,7.69,4.46,7.69,8.91,0,4.64-3.42,8.73-10.57,8.73a15.64,15.64,0,0,1-7.74-2Z"/></g></svg>