<svg id="Layer_1" data-name="Layer 1" xmlns="http://www.w3.org/2000/svg" xmlns:xlink="http://www.w3.org/1999/xlink" width="451" height="137" viewBox="0 0 451 137">
  <defs>
    <linearGradient id="linear-gradient" x1="12.87" y1="68.5" x2="439.87" y2="68.5" gradientUnits="userSpaceOnUse">
      <stop offset="0.04" stop-color="#2e3192"/>
      <stop offset="0.51" stop-color="#29abe2"/>
      <stop offset="1" stop-color="#2e3192"/>
    </linearGradient>
  </defs>
  <title>vikings_butoon</title>
  <rect x="12.87" y="10" width="427" height="117" fill="url(#linear-gradient)"/>
  <g>
    <path d="M160.52,81.71l-9.9-30.33h4.23l4.72,14.94c1.31,4.09,2.43,7.78,3.24,11.34h.09c.86-3.51,2.12-7.34,3.47-11.3l5.13-15h4.18L164.84,81.71Z" fill="#fff"/>
    <path d="M182.88,51.38V81.71H179V51.38Z" fill="#fff"/>
    <path d="M189.72,51.38h3.92V66h.13c.81-1.17,1.62-2.25,2.39-3.24l9.26-11.38h4.86l-11,12.87,11.83,17.46H206.5l-10-14.9-2.88,3.33V81.71h-3.92Z" fill="#fff"/>
    <path d="M218,51.38V81.71h-3.91V51.38Z" fill="#fff"/>
    <path d="M224.87,81.71V51.38h4.27l9.72,15.34a85.8,85.8,0,0,1,5.44,9.86l.09,0c-.36-4-.45-7.74-.45-12.46V51.38h3.69V81.71h-4L234,66.32a95.3,95.3,0,0,1-5.66-10.13l-.14.05c.22,3.82.32,7.47.32,12.51v13Z" fill="#fff"/>
    <path d="M277.56,80.36A28.32,28.32,0,0,1,268.24,82c-4.59,0-8.36-1.17-11.34-4-2.61-2.52-4.22-6.57-4.22-11.3,0-9,6.25-15.66,16.42-15.66a18.75,18.75,0,0,1,7.56,1.4l-1,3.19a15.71,15.71,0,0,0-6.7-1.3c-7.38,0-12.2,4.59-12.2,12.19s4.64,12.24,11.7,12.24a12.75,12.75,0,0,0,5.22-.81v-9h-6.16V65.78h10Z" fill="#fff"/>
    <path d="M283,76.94a13.89,13.89,0,0,0,7,2c4,0,6.35-2.12,6.35-5.18,0-2.83-1.62-4.45-5.72-6-4.95-1.75-8-4.32-8-8.59,0-4.73,3.91-8.24,9.8-8.24a13.72,13.72,0,0,1,6.71,1.49l-1.08,3.19a12.1,12.1,0,0,0-5.76-1.44c-4.14,0-5.72,2.48-5.72,4.55,0,2.83,1.85,4.23,6,5.85,5.13,2,7.74,4.45,7.74,8.91,0,4.68-3.46,8.73-10.62,8.73A15.62,15.62,0,0,1,282,80.22Z" fill="#fff"/>
  </g>
</svg>
