<svg id="Layer_1" data-name="Layer 1" xmlns="http://www.w3.org/2000/svg" width="1160" height="63" viewBox="0 0 1160 63">
  <title>lights</title>
  <circle cx="29.52" cy="32.52" r="28.52" stroke="#000" stroke-miterlimit="10" stroke-width="0.75"/>
  <circle cx="26.08" cy="23.84" r="14.26" fill="#fff"/>
  <circle cx="87.64" cy="32.76" r="28.52" fill="#fff24a" stroke="#000" stroke-miterlimit="10" stroke-width="0.75"/>
  <circle cx="82.82" cy="22.94" r="14.26" fill="#fff"/>
  <circle cx="145.52" cy="32.52" r="28.52" stroke="#000" stroke-miterlimit="10" stroke-width="0.75"/>
  <circle cx="142.08" cy="23.84" r="14.26" fill="#fff"/>
  <circle cx="203.64" cy="32.76" r="28.52" fill="#fff24a" stroke="#000" stroke-miterlimit="10" stroke-width="0.75"/>
  <circle cx="198.82" cy="22.94" r="14.26" fill="#fff"/>
  <circle cx="261.52" cy="32.52" r="28.52" stroke="#000" stroke-miterlimit="10" stroke-width="0.75"/>
  <circle cx="258.08" cy="23.84" r="14.26" fill="#fff"/>
  <circle cx="319.64" cy="32.76" r="28.52" fill="#fff24a" stroke="#000" stroke-miterlimit="10" stroke-width="0.75"/>
  <circle cx="314.82" cy="22.94" r="14.26" fill="#fff"/>
  <circle cx="377.52" cy="32.52" r="28.52" stroke="#000" stroke-miterlimit="10" stroke-width="0.75"/>
  <circle cx="374.08" cy="23.84" r="14.26" fill="#fff"/>
  <circle cx="435.64" cy="32.76" r="28.52" fill="#fff24a" stroke="#000" stroke-miterlimit="10" stroke-width="0.75"/>
  <circle cx="430.82" cy="22.94" r="14.26" fill="#fff"/>
  <circle cx="493.52" cy="32.52" r="28.52" stroke="#000" stroke-miterlimit="10" stroke-width="0.75"/>
  <circle cx="490.08" cy="23.84" r="14.26" fill="#fff"/>
  <circle cx="551.64" cy="32.76" r="28.52" fill="#fff24a" stroke="#000" stroke-miterlimit="10" stroke-width="0.75"/>
  <circle cx="546.82" cy="22.94" r="14.26" fill="#fff"/>
  <circle cx="609.52" cy="32.52" r="28.52" stroke="#000" stroke-miterlimit="10" stroke-width="0.75"/>
  <circle cx="606.08" cy="23.84" r="14.26" fill="#fff"/>
  <circle cx="667.64" cy="32.76" r="28.52" fill="#fff24a" stroke="#000" stroke-miterlimit="10" stroke-width="0.75"/>
  <circle cx="662.82" cy="22.94" r="14.26" fill="#fff"/>
  <circle cx="725.52" cy="32.52" r="28.52" stroke="#000" stroke-miterlimit="10" stroke-width="0.75"/>
  <circle cx="722.08" cy="23.84" r="14.26" fill="#fff"/>
  <circle cx="783.64" cy="32.76" r="28.52" fill="#fff24a" stroke="#000" stroke-miterlimit="10" stroke-width="0.75"/>
  <circle cx="778.82" cy="22.94" r="14.26" fill="#fff"/>
  <circle cx="841.52" cy="32.52" r="28.52" stroke="#000" stroke-miterlimit="10" stroke-width="0.75"/>
  <circle cx="838.08" cy="23.84" r="14.26" fill="#fff"/>
  <circle cx="899.64" cy="32.76" r="28.52" fill="#fff24a" stroke="#000" stroke-miterlimit="10" stroke-width="0.75"/>
  <circle cx="894.82" cy="22.94" r="14.26" fill="#fff"/>
  <circle cx="957.52" cy="32.52" r="28.52" stroke="#000" stroke-miterlimit="10" stroke-width="0.75"/>
  <circle cx="954.08" cy="23.84" r="14.26" fill="#fff"/>
  <circle cx="1015.64" cy="32.76" r="28.52" fill="#fff24a" stroke="#000" stroke-miterlimit="10" stroke-width="0.75"/>
  <circle cx="1010.82" cy="22.94" r="14.26" fill="#fff"/>
  <circle cx="1073.52" cy="32.52" r="28.52" stroke="#000" stroke-miterlimit="10" stroke-width="0.75"/>
  <circle cx="1070.08" cy="23.84" r="14.26" fill="#fff"/>
  <circle cx="1131.64" cy="32.76" r="28.52" fill="#fff24a" stroke="#000" stroke-miterlimit="10" stroke-width="0.75"/>
  <circle cx="1126.82" cy="22.94" r="14.26" fill="#fff"/>
</svg>
