<svg id="Layer_1" data-name="Layer 1" xmlns="http://www.w3.org/2000/svg" xmlns:xlink="http://www.w3.org/1999/xlink" width="1391" height="1485" viewBox="0 0 1391 1485">
  <defs>
    <linearGradient id="linear-gradient" x1="-0.5" y1="1125" x2="1391.5" y2="1125" gradientUnits="userSpaceOnUse">
      <stop offset="0" stop-color="#39b54a"/>
      <stop offset="1" stop-color="#0f5109" stop-opacity="0.96"/>
    </linearGradient>
    <linearGradient id="linear-gradient-2" x1="-3" y1="387.5" x2="1389" y2="387.5" gradientUnits="userSpaceOnUse">
      <stop offset="0" stop-color="#fff"/>
      <stop offset="1" stop-color="#8fd2ea"/>
    </linearGradient>
    <linearGradient id="linear-gradient-3" x1="30.94" y1="727" x2="162.01" y2="727" gradientUnits="userSpaceOnUse">
      <stop offset="0" stop-color="#fbb03b"/>
      <stop offset="1" stop-color="#9e8613"/>
    </linearGradient>
    <linearGradient id="linear-gradient-4" x1="141.78" y1="745.95" x2="328.26" y2="745.95" xlink:href="#linear-gradient-3"/>
    <linearGradient id="linear-gradient-5" x1="138.13" y1="1216.6" x2="230.92" y2="1377.32" gradientUnits="userSpaceOnUse">
      <stop offset="0" stop-color="#603813" stop-opacity="0.96"/>
      <stop offset="1" stop-color="#6b070c"/>
    </linearGradient>
    <linearGradient id="linear-gradient-6" x1="1157.75" y1="771" x2="1157.75" y2="359.5" gradientUnits="userSpaceOnUse">
      <stop offset="0.02" stop-color="#333"/>
      <stop offset="0.2" stop-color="#4b4946"/>
      <stop offset="0.4" stop-color="#605c56"/>
      <stop offset="0.53" stop-color="#68635c"/>
      <stop offset="0.55" stop-color="#736e67"/>
      <stop offset="0.66" stop-color="#a4a19d"/>
      <stop offset="0.77" stop-color="#cbcac7"/>
      <stop offset="0.86" stop-color="#e8e7e6"/>
      <stop offset="0.94" stop-color="#f9f9f8"/>
      <stop offset="1" stop-color="#fff"/>
    </linearGradient>
    <radialGradient id="radial-gradient" cx="1574.89" cy="956.95" r="51.32" gradientTransform="translate(-274.48 -17.2) scale(0.95 1.02)" gradientUnits="userSpaceOnUse">
      <stop offset="0" stop-color="#f7931e"/>
      <stop offset="0.05" stop-color="#e98a1d"/>
      <stop offset="0.2" stop-color="#bf711a"/>
      <stop offset="0.35" stop-color="#9d5d17"/>
      <stop offset="0.51" stop-color="#824d15"/>
      <stop offset="0.66" stop-color="#6f4114"/>
      <stop offset="0.83" stop-color="#643a13"/>
      <stop offset="1" stop-color="#603813"/>
    </radialGradient>
    <linearGradient id="linear-gradient-7" x1="828.16" y1="767.61" x2="828.16" y2="479.61" xlink:href="#linear-gradient-6"/>
    <linearGradient id="linear-gradient-8" x1="1002.94" y1="724" x2="1134.01" y2="724" xlink:href="#linear-gradient-3"/>
    <linearGradient id="linear-gradient-9" x1="1113.78" y1="742.95" x2="1300.26" y2="742.95" xlink:href="#linear-gradient-3"/>
    <linearGradient id="linear-gradient-10" x1="326.75" y1="739.02" x2="390.99" y2="739.02" xlink:href="#linear-gradient-3"/>
    <linearGradient id="linear-gradient-11" x1="1224.28" y1="984.72" x2="1224.28" y2="874.95" gradientUnits="userSpaceOnUse">
      <stop offset="0" stop-color="#ed1c24"/>
      <stop offset="0.07" stop-color="#ee2c23"/>
      <stop offset="0.26" stop-color="#f15121"/>
      <stop offset="0.45" stop-color="#f46e20"/>
      <stop offset="0.64" stop-color="#f6821f"/>
      <stop offset="0.82" stop-color="#f78f1e"/>
      <stop offset="1" stop-color="#f7931e"/>
    </linearGradient>
  </defs>
  <title>indiginous_background</title>
  <rect x="-0.5" y="765.5" width="1392" height="719" fill="url(#linear-gradient)"/>
  <rect x="-3" y="10" width="1392" height="755" fill="url(#linear-gradient-2)"/>
  <g>
    <polygon points="162.01 783.73 96.47 783.75 30.93 783.77 63.69 727 96.44 670.23 129.23 726.98 162.01 783.73" stroke="#000" stroke-miterlimit="10" fill="url(#linear-gradient-3)"/>
    <polygon points="114.24 783.4 93.78 783.41 73.32 783.41 83.54 755.7 93.76 727.98 104 755.69 114.24 783.4"/>
  </g>
  <polygon points="328.26 826.66 235.02 826.68 141.78 826.71 188.38 745.95 234.97 665.19 281.62 745.92 328.26 826.66" stroke="#000" stroke-miterlimit="10" fill="url(#linear-gradient-4)"/>
  <polygon points="264.15 825.95 232.04 825.96 199.92 825.97 215.97 782.46 232.01 738.96 248.08 782.46 264.15 825.95"/>
  <g>
    <g>
      <polygon points="140.55 216.21 125.25 245.61 118.26 210.74 104.56 227.55 108.25 203.13 70.77 247.6 90.4 185.66 35.38 204.7 82.17 162.64 22.1 156.41 82.56 138.9 61.27 116.21 90.2 120.21 43.76 60.14 105.58 102.28 101 67.15 138.2 90.15 156.54 64.34 175.31 94.9 209.71 84.81 190 121.5 215.02 121.5 199.67 137.55 255.94 126.7 209.95 160.83 244.61 171.04 204.95 183.14 232.21 209.07 191.56 197.72 197.62 237.22 174.45 210.19 154.57 270.68 140.55 216.21" fill="#f7b541"/>
      <path d="M46.08,62.33l58.29,39.74,1.85,1.25-.29-2.21-4.3-33,35.91,22.19.8.5.54-.77,17.63-24.81,18.18,29.6.4.65.73-.22,32.88-9.65L190,120.53l-.8,1.47h24.69l-13.46,14.07-2.16,2.27,3.08-.6,52.57-10.13-43.42,32.22-1.61,1.2,1.92.56,32.1,9.46-37.25,11.36-1.64.5,1.24,1.18,25.19,24-38-10.61L191,197l.23,1.53,5.68,37-21.45-25-1.16-1.35-.55,1.69-19.07,58-13.27-51.55-.66-2.53-1.2,2.31-14,27L119,211.68l-.42-2.08-1.34,1.64-11.87,14.58L108.48,205l.53-3.5-2.28,2.71L72,245.36l18.58-58.6.6-1.89-1.88.65-51.75,17.9,44.11-39.65,1.68-1.51L81.1,162l-56.4-5.86,57.21-16.56,1.57-.46L82.36,138,62.6,116.9l26.32,3.64,2.43.33-1.5-1.93L46.08,62.33M41.43,58l47.63,61.6-29.12-4,21.69,23.13-62.13,18L81,163,33.21,206l56.42-19.52-20.1,63.38,38-45-3.69,24.48L118,211.87,125,247.1l15.35-29.5,14.12,54.86,20.14-61.27,23.73,27.69-6.21-40.47L234,210.09l-28.1-26.72L246.35,171l-35.3-10.39L258,125.8l-56.88,11L216.19,121H190.84l19.87-37L175.54,94.31l-19-30.88-18.51,26-37.69-23.3,4.57,35.07L41.43,58Z"/>
    </g>
    <path d="M194.61,153.55a52.73,52.73,0,1,1-31.35-48.24A52.78,52.78,0,0,1,194.61,153.55Z" fill="#f5ff7b"/>
  </g>
  <path d="M1249.53,333.69H1372c-14.83-28.63-33.39-42.71-57.22-22.59,1.28-27.32-49.26-34.89-55.21.51,0,0,7-42.67-31.12-32.63s-12,54.71-12,54.71Z" fill="#fff" stroke="#000" stroke-miterlimit="10" opacity="0.8"/>
  <path d="M1223.16,343.23H1311c-10.64-20.55-24-30.65-41-16.21.91-19.6-35.35-25-39.61.36,0,0,5-30.6-22.33-23.4s-8.64,39.25-8.64,39.25Z" fill="#fff" stroke="#000" stroke-miterlimit="10"/>
  <path d="M1007.76,196.72H1194c-22.55-43.54-50.77-64.95-87-34.34,1.94-41.55-74.92-53.06-84,.76,0,0,10.68-64.88-47.33-49.61s-18.32,83.19-18.32,83.19Z" fill="#fff" stroke="#000" stroke-miterlimit="10" opacity="0.8"/>
  <path d="M967.65,211.23h133.61c-16.18-31.24-36.42-46.6-62.42-24.65,1.39-29.8-53.75-38.06-60.24.55,0,0,7.67-46.54-34-35.59s-13.14,59.69-13.14,59.69Z" fill="#fff" stroke="#000" stroke-miterlimit="10"/>
  <path d="M505.82,174.39H312.14c23.46-45.28,52.8-67.55,90.49-35.72-2-43.21,77.91-55.18,87.31.8,0,0-11.11-67.47,49.21-51.6s19.05,86.52,19.05,86.52Z" fill="#fff" stroke="#000" stroke-miterlimit="10" opacity="0.8"/>
  <path d="M547.53,189.47H408.58C425.41,157,446.46,141,473.5,163.85c-1.45-31,55.9-39.59,62.64.56,0,0-8-48.4,35.31-37s13.66,62.07,13.66,62.07Z" fill="#fff" stroke="#000" stroke-miterlimit="10"/>
  <g>
    <path d="M163.92,1334.72c-4,13.27-3.18,33-1.61,53.75h15.38c-2.6-21.24-4.26-41.75,0-57.66" fill="#4d0b00" stroke="#000" stroke-miterlimit="10" stroke-width="0.5"/>
    <path d="M72.22,1307.91c-11.32,23.58-17.62,47.82-17.55,72.87l14.09,7.69c1.59-19.64,7-40.34,15.38-61.83C87.6,1308.78,80.53,1307.37,72.22,1307.91Z" fill="#4d0b00" stroke="#000" stroke-miterlimit="10" stroke-width="0.5"/>
    <path d="M246.89,1210.35c-3.52-10.44,1.1-18.15,10.25-24.35a69.32,69.32,0,0,0,1.4,14.44c1,4.24,2.55,7.67,5,9.91,12.89,13.62,27.31,25.38,44.85,33.32,0,0,5.12,6.4,0,16.66s-10.26,11.53-10.26,11.53c-8.72-7.67-20.82-11.79-35.88-12.82,0,0-12.81,1.29-21.78-2.56s-5.13-19.22-5.13-19.22c-5.27,18.36-13.34,32.53-24.35,42.29,3.93-.68,22.91,12.18,7.93,33.45-.22.32-10.73,11.36-11.77,19.09-1.2,8.88-2.27,60,0,59H190.5c3-21.77,3.29-42.41,0-61.52-49.35,11.67-70.6,7.19-87.14,0-4.74,18.06-3.8,39,0,61.52H84.14a369,369,0,0,1,0-74.33s-19.22-2.56-15.38-33.32,15.38-38.44,26.91-39.72,48.89,14.55,78.17,7.68c0,0,39.73-35.88,51.26-43.57S246.89,1210.35,246.89,1210.35Z" stroke="#000" stroke-miterlimit="10" stroke-width="0.5" fill="url(#linear-gradient-5)"/>
    <path d="M81.43,1252.73c-3.39-14.22-13.31-18.64-25.88-19.06-13.76,2-20.07,11.13-19.35,27.12,11.11,26.31,6.78,44.66-2.48,62.53-6.64,8.49-13.74,2.78-20.56-2.07-2.85,11.55,21.88,27.83,29.18,18.2,3.53-4.64,10.42-20.41,16-37.21,6-18,10.46-37.25,7.62-45.16l9.53,10.07C81.73,1266.08,83.53,1261.12,81.43,1252.73Z" stroke="#000" stroke-miterlimit="10" stroke-width="0.5"/>
    <path d="M244.32,1198.81c-19.47,2.36-46,28.43-69.2,46.14,1.95,16.25,5.3,21.35,2.57,35.88,9.09-9.34,16.26-18.71,16.66-28.19l5.12,15.37c5.16-7,8.67-17.59,11.53-29.47l5.13,15.38c4.79-8.59,8.66-17.59,9-28.19,5.12,2.86,8,6.14,6.41,10.25,5.36-4,8.11-10.66,9-19.22l9,10.25a83.3,83.3,0,0,1-3.85-28.2H243" stroke="#000" stroke-miterlimit="10" stroke-width="0.5"/>
    <path d="M284.05,1210.35a49.2,49.2,0,0,0-26.21-13.77l4.77,12.8A90.78,90.78,0,0,1,270,1234.7c3-2.84,3.95-7.37,3.85-12.82,3.74,7.65,6,16.42,7.69,25.63,2.26-6.73,3.22-13.21,1.63-19.22a39.25,39.25,0,0,1,9.9,14.09C295.8,1242.26,292,1216.47,284.05,1210.35Z" stroke="#000" stroke-miterlimit="10" stroke-width="0.5"/>
    <circle cx="302.63" cy="1249.43" r="1.92" stroke="#000" stroke-miterlimit="10" stroke-width="0.5"/>
    <path d="M307.45,1262.12a192.36,192.36,0,0,1-28.53-10.77" stroke="#000" stroke-miterlimit="10" stroke-width="0.5"/>
    <polygon points="191.66 1381.28 205.96 1381.28 211 1391.04 187.94 1391.04 191.66 1381.28" stroke="#000" stroke-miterlimit="10" stroke-width="0.5"/>
    <polygon points="161.03 1380.78 177.69 1380.78 181.53 1391.04 157.18 1391.04 161.03 1380.78" stroke="#000" stroke-miterlimit="10" stroke-width="0.5"/>
    <polygon points="83.3 1381.28 101.82 1380.78 107.21 1391.04 80.3 1391.04 83.3 1381.28" stroke="#000" stroke-miterlimit="10" stroke-width="0.5"/>
    <polygon points="54.67 1370.53 69.85 1379.93 72.61 1391.04 52.1 1383.35 54.67 1370.53" stroke="#000" stroke-miterlimit="10" stroke-width="0.5"/>
    <ellipse cx="219.33" cy="1216.04" rx="15.45" ry="1.99" transform="translate(-702.36 393.03) rotate(-38.01)" fill="#fff" opacity="0.3"/>
    <ellipse cx="48.75" cy="1243.69" rx="8.25" ry="5.21" transform="translate(-716.95 262.44) rotate(-35.72)" fill="#fff" opacity="0.3"/>
  </g>
  <g>
    <path d="M240.15,1385.21c-3.5,11.71-2.81,29.09-1.43,47.43h13.57c-1.53-12.49-8.6-26.76-2.18-35.58,4-5.52,8.3-10.52,5.79-15.16" fill="#fff" stroke="#000" stroke-miterlimit="10" stroke-width="0.5"/>
    <path d="M159.24,1361.55c-10,20.81-15.54,42.19-15.49,64.3l12.44,6.79c1-12.06-4-30.48,7.58-37.45,6.08-3.67,7.51-9.63,6-17.11C172.81,1362.32,166.58,1361.08,159.24,1361.55Z" fill="#fff" stroke="#000" stroke-miterlimit="10" stroke-width="0.5"/>
    <path d="M313.34,1275.48c-3.1-9.21,1-16,9.05-21.48a62.14,62.14,0,0,0,1.23,12.74c.86,3.74,2.25,6.77,4.42,8.74,11.38,12,24.1,22.4,39.57,29.4,0,0,4.53,5.65,0,14.7s-9,10.17-9,10.17c-7.7-6.76-18.37-10.4-31.66-11.31,0,0-11.3,1.14-19.22-2.26s-4.52-17-4.52-17c-4.66,16.2-11.77,28.71-21.48,37.31,3.46-.59,24.47,14.65,7,29.52-7.84,6.67-14.91,73.7-10.38,68.85H263.6c2.62-19.2,2.9-37.41,0-54.27-43.54,10.29-62.3,6.34-76.88,0,2,6,3.22,12.28-2.72,18.9-7.41,8.24.61,23,2.72,35.37h-17a325.7,325.7,0,0,1,0-65.58s-17-2.26-13.57-29.39,13.57-33.92,23.74-35,43.13,12.84,69,6.78c0,0,35-31.66,45.22-38.44S313.34,1275.48,313.34,1275.48Z" fill="#fff" stroke="#000" stroke-miterlimit="10" stroke-width="0.5"/>
    <path d="M311.08,1265.31c-17.17,2.07-40.61,25.08-61,40.7,1.71,14.33,4.67,18.83,2.26,31.65,8-8.23,14.35-16.5,14.7-24.87l4.52,13.57c4.56-6.22,7.65-15.53,10.18-26l4.52,13.57c4.22-7.58,7.64-15.52,7.91-24.87,4.52,2.53,7.07,5.42,5.66,9,4.73-3.52,7.15-9.39,7.91-17l7.92,9a73.43,73.43,0,0,1-3.4-24.87H310" stroke="#000" stroke-miterlimit="10" stroke-width="0.5"/>
    <path d="M346.13,1275.48A43.42,43.42,0,0,0,323,1263.33l4.2,11.3A80.36,80.36,0,0,1,333.7,1297c2.61-2.5,3.48-6.5,3.39-11.3,3.3,6.74,5.3,14.48,6.78,22.61,2-5.93,2.84-11.65,1.45-17a34.69,34.69,0,0,1,8.73,12.44C356.5,1303.64,353.13,1280.88,346.13,1275.48Z" stroke="#000" stroke-miterlimit="10" stroke-width="0.5"/>
    <path d="M366.78,1321.16a170,170,0,0,1-25.17-9.5" stroke="#000" stroke-miterlimit="10" stroke-width="0.5"/>
    <polygon points="264.62 1426.29 277.23 1426.29 281.69 1434.9 261.34 1434.9 264.62 1426.29" stroke="#000" stroke-miterlimit="10" stroke-width="0.5"/>
    <polygon points="237.59 1425.85 252.29 1425.85 255.68 1434.9 234.2 1434.9 237.59 1425.85" stroke="#000" stroke-miterlimit="10" stroke-width="0.5"/>
    <polygon points="169.02 1426.29 185.36 1425.85 190.11 1434.9 166.37 1434.9 169.02 1426.29" stroke="#000" stroke-miterlimit="10" stroke-width="0.5"/>
    <polygon points="143.75 1416.81 157.15 1425.1 159.58 1434.9 141.49 1428.11 143.75 1416.81" stroke="#000" stroke-miterlimit="10" stroke-width="0.5"/>
    <ellipse cx="289.03" cy="1280.5" rx="13.63" ry="1.76" transform="translate(-727.27 449.63) rotate(-38.01)" fill="#fff" opacity="0.3"/>
    <ellipse cx="138.54" cy="1304.9" rx="7.28" ry="4.59" transform="translate(-735.79 326.38) rotate(-35.72)" fill="#fff" opacity="0.3"/>
    <path d="M201.48,1308.27c-3.7,6.6,4,6.25,6.24,13.78,3.15,10.4-2.39,11.51-5.93,15.58-.77,8.91-5.62,12.29-14.76,9.84-3.92-7.65-10.43-5.59-17.22-2.46.27,9.15-12.38,11.24-13.67,7.38-1.46-16.32,2.71-30.06,11.21-41.82C171.88,1303.74,183.61,1303.28,201.48,1308.27Z" fill="#6d270f" stroke="#000" stroke-miterlimit="10" stroke-width="0.5"/>
    <path d="M167.36,1312.88c-3-12.56-11.74-16.45-22.82-16.82-12.14,1.73-17.72,9.82-17.08,23.93,9.8,23.21,6,39.39-2.18,55.17-5.86,7.48-12.13,2.45-18.14-1.83-2.52,10.19,19.3,24.55,25.74,16.06,3.11-4.1,9.2-18,14.12-32.84,5.29-15.91,9.24-32.86,6.73-39.83l8.4,8.88C167.63,1324.65,169.22,1320.27,167.36,1312.88Z" stroke="#000" stroke-miterlimit="10" stroke-width="0.5"/>
    <path d="M210.33,1386.62c-3.48-4.67-2.28-7.9,3.76-9.64.38-7.27,4.18-9.84,9.84-9.84l9.84,4.92s0-7.38,4.91-2.46,0,9.84,0,9.84c5.23-.42,8.28.6,6.26,5C231.85,1386.42,220.08,1387.33,210.33,1386.62Z" fill="#6d270f" stroke="#000" stroke-miterlimit="10" stroke-width="0.5"/>
    <path d="M280.5,1330.25a11.74,11.74,0,0,0,6.28,8.5s3.56,3.8-1.36,6.26-7.38,2.46-7.38,2.46-7.38,9.83-12.3,7.38,0-9.84,0-9.84c2.77-2.32,4.26-6.66,4.92-12.3C273.7,1328.82,277,1328.67,280.5,1330.25Z" fill="#6d270f" stroke="#000" stroke-miterlimit="10" stroke-width="0.5"/>
  </g>
  <path d="M924.5,737.5c73.55-176.78,156.27-326.35,272-378C1299.64,436.35,1346.17,533.8,1391,645l-1,126-465-3Z" stroke="#000" stroke-miterlimit="10" stroke-width="2" fill="url(#linear-gradient-6)"/>
  <ellipse cx="1224.4" cy="960.23" rx="57.56" ry="41" stroke="#000" stroke-miterlimit="10" fill="url(#radial-gradient)"/>
  <path d="M1195.7,958.93a140.53,140.53,0,0,0,7.82,20.43c13.69,7.42,27.08,6.86,40.23,0,6.41-6.05,9.82-13.65,11-22.41-1.57-4.67-6.79-17.22-11.46-20.23-3.27,4.95-4.24,16.17-7.13,17.49-5.46-4.39-10.14-14.09-11.21-20.77-3.58,1.28-2.88,12.33-2,20.77-7.33-2.27-11.68-8.65-14.26-17.49C1203.2,941.55,1198.86,948.88,1195.7,958.93Z" fill="none" stroke="#000" stroke-miterlimit="10" stroke-width="0.75"/>
  <path d="M977,767.61C984.74,661.69,845.66,461,784.33,481S687.22,682.23,679,765Z" stroke="#000" stroke-miterlimit="10" stroke-width="2" fill="url(#linear-gradient-7)"/>
  <g>
    <polygon points="1134.02 780.73 1068.47 780.75 1002.93 780.77 1035.69 724 1068.44 667.23 1101.23 723.98 1134.02 780.73" stroke="#000" stroke-miterlimit="10" fill="url(#linear-gradient-8)"/>
    <polygon points="1086.24 780.4 1065.78 780.41 1045.32 780.41 1055.54 752.7 1065.76 724.98 1076 752.69 1086.24 780.4"/>
  </g>
  <polygon points="1300.26 823.66 1207.02 823.68 1113.78 823.71 1160.38 742.95 1206.97 662.19 1253.62 742.92 1300.26 823.66" stroke="#000" stroke-miterlimit="10" fill="url(#linear-gradient-9)"/>
  <polygon points="390.99 766.83 358.87 766.84 326.75 766.84 342.8 739.02 358.85 711.2 374.92 739.01 390.99 766.83" stroke="#000" stroke-miterlimit="10" fill="url(#linear-gradient-10)"/>
  <polygon points="377.01 767.06 358.88 767.07 340.74 767.07 349.81 751.37 358.87 735.66 367.94 751.36 377.01 767.06" stroke="#000" stroke-miterlimit="10"/>
  <polygon points="1236.15 822.95 1204.04 822.96 1171.92 822.97 1187.97 779.46 1204.02 735.96 1220.08 779.46 1236.15 822.95"/>
  <g>
    <ellipse cx="1186.1" cy="998.29" rx="13.64" ry="14.64" fill="#757372" stroke="#000" stroke-miterlimit="10"/>
    <ellipse cx="1168.23" cy="981.13" rx="13.64" ry="14.64" fill="#757372" stroke="#000" stroke-miterlimit="10"/>
    <ellipse cx="1161.64" cy="955.88" rx="13.64" ry="14.64" fill="#757372" stroke="#000" stroke-miterlimit="10"/>
    <ellipse cx="1173.87" cy="930.64" rx="13.64" ry="14.64" fill="#757372" stroke="#000" stroke-miterlimit="10"/>
    <ellipse cx="1195.51" cy="915.5" rx="13.64" ry="14.64" fill="#757372" stroke="#000" stroke-miterlimit="10"/>
    <ellipse cx="1220.91" cy="911.46" rx="13.64" ry="14.64" fill="#757372" stroke="#000" stroke-miterlimit="10"/>
    <ellipse cx="1246.32" cy="915.5" rx="13.64" ry="14.64" fill="#757372" stroke="#000" stroke-miterlimit="10"/>
    <ellipse cx="1270.78" cy="926.6" rx="13.64" ry="14.64" fill="#757372" stroke="#000" stroke-miterlimit="10"/>
    <ellipse cx="1282.07" cy="951.85" rx="13.64" ry="14.64" fill="#757372" stroke="#000" stroke-miterlimit="10"/>
    <ellipse cx="1279.25" cy="980.12" rx="13.64" ry="14.64" fill="#757372" stroke="#000" stroke-miterlimit="10"/>
    <ellipse cx="1260.43" cy="998.29" rx="13.64" ry="14.64" fill="#757372" stroke="#000" stroke-miterlimit="10"/>
    <ellipse cx="1235.03" cy="1005.36" rx="13.64" ry="14.64" fill="#757372" stroke="#000" stroke-miterlimit="10"/>
    <ellipse cx="1210.57" cy="1005.36" rx="13.64" ry="14.64" fill="#757372" stroke="#000" stroke-miterlimit="10"/>
  </g>
  <path d="M1203.34,978.88a132.71,132.71,0,0,1-8-21.25,65.43,65.43,0,0,1-1.56-7.42c-1.91-13.14,11.47-35.84,11.47-35.84,2.8-15-1.25-27.46-6.69-39.42,6.81,3.52,13.71,6.73,18.16,17.92l1-13.14c4.66,9.44,7.51,20.81,9.56,22.7-.5-3,6.71-9,12.43-14.34-3.09,13.53-2.45,23.71,0,32.25l4.78-10.75s10.51,27.48,10.51,43a38.53,38.53,0,0,1-9.37,25.18C1239.54,984.46,1214.52,988.81,1203.34,978.88Z" stroke="#000" stroke-miterlimit="10" fill="url(#linear-gradient-11)"/>
</svg>
