<svg id="Layer_1" data-name="Layer 1" xmlns="http://www.w3.org/2000/svg" xmlns:xlink="http://www.w3.org/1999/xlink" width="1391" height="1485" viewBox="0 0 1391 1485">
  <defs>
    <linearGradient id="linear-gradient" x1="-0.5" y1="1125" x2="1391.5" y2="1125" gradientUnits="userSpaceOnUse">
      <stop offset="0" stop-color="#39b54a"/>
      <stop offset="1" stop-color="#0f5109" stop-opacity="0.96"/>
    </linearGradient>
    <linearGradient id="linear-gradient-2" y1="382.5" x2="1392" y2="382.5" gradientUnits="userSpaceOnUse">
      <stop offset="0" stop-color="#fff"/>
      <stop offset="1" stop-color="#8fd2ea"/>
    </linearGradient>
    <linearGradient id="linear-gradient-3" x1="41.94" y1="763.49" x2="89.58" y2="763.49" gradientUnits="userSpaceOnUse">
      <stop offset="0" stop-color="#fbb03b"/>
      <stop offset="1" stop-color="#9e8613"/>
    </linearGradient>
    <linearGradient id="linear-gradient-4" x1="82.22" y1="770.38" x2="149.99" y2="770.38" xlink:href="#linear-gradient-3"/>
    <linearGradient id="linear-gradient-5" x1="113.88" y1="1277.08" x2="168.68" y2="1371.99" gradientUnits="userSpaceOnUse">
      <stop offset="0" stop-color="#603813" stop-opacity="0.96"/>
      <stop offset="1" stop-color="#6b070c"/>
    </linearGradient>
    <linearGradient id="linear-gradient-6" x1="224.91" y1="815.02" x2="238.98" y2="839.38" gradientTransform="matrix(-1, 0, 0, 1, 465.94, 0)" xlink:href="#linear-gradient-5"/>
    <linearGradient id="linear-gradient-7" x1="-811.84" y1="1225.95" x2="-779.06" y2="1282.72" gradientTransform="matrix(-1, 0, 0, 1, 465.94, 0)" xlink:href="#linear-gradient-5"/>
    <linearGradient id="linear-gradient-8" x1="1157.75" y1="771" x2="1157.75" y2="359.5" gradientUnits="userSpaceOnUse">
      <stop offset="0.02" stop-color="#333"/>
      <stop offset="0.2" stop-color="#4b4946"/>
      <stop offset="0.4" stop-color="#605c56"/>
      <stop offset="0.53" stop-color="#68635c"/>
      <stop offset="0.55" stop-color="#736e67"/>
      <stop offset="0.66" stop-color="#a4a19d"/>
      <stop offset="0.77" stop-color="#cbcac7"/>
      <stop offset="0.86" stop-color="#e8e7e6"/>
      <stop offset="0.94" stop-color="#f9f9f8"/>
      <stop offset="1" stop-color="#fff"/>
    </linearGradient>
    <radialGradient id="radial-gradient" cx="1559.03" cy="968.21" r="37.15" gradientTransform="translate(-274.48 -17.2) scale(0.95 1.02)" gradientUnits="userSpaceOnUse">
      <stop offset="0" stop-color="#f7931e"/>
      <stop offset="0.05" stop-color="#e98a1d"/>
      <stop offset="0.2" stop-color="#bf711a"/>
      <stop offset="0.35" stop-color="#9d5d17"/>
      <stop offset="0.51" stop-color="#824d15"/>
      <stop offset="0.66" stop-color="#6f4114"/>
      <stop offset="0.83" stop-color="#643a13"/>
      <stop offset="1" stop-color="#603813"/>
    </radialGradient>
    <linearGradient id="linear-gradient-9" x1="814.82" y1="767.61" x2="814.82" y2="471.97" xlink:href="#linear-gradient-8"/>
    <linearGradient id="linear-gradient-10" x1="1162.94" y1="807.89" x2="1238.97" y2="807.89" xlink:href="#linear-gradient-3"/>
    <linearGradient id="linear-gradient-11" x1="1227.23" y1="818.88" x2="1335.4" y2="818.88" xlink:href="#linear-gradient-3"/>
    <linearGradient id="linear-gradient-12" x1="149.45" y1="767.86" x2="172.79" y2="767.86" xlink:href="#linear-gradient-3"/>
    <linearGradient id="linear-gradient-13" x1="1209.22" y1="989.46" x2="1209.22" y2="910" gradientUnits="userSpaceOnUse">
      <stop offset="0" stop-color="#ed1c24"/>
      <stop offset="0.07" stop-color="#ee2c23"/>
      <stop offset="0.26" stop-color="#f15121"/>
      <stop offset="0.45" stop-color="#f46e20"/>
      <stop offset="0.64" stop-color="#f6821f"/>
      <stop offset="0.82" stop-color="#f78f1e"/>
      <stop offset="1" stop-color="#f7931e"/>
    </linearGradient>
  </defs>
  <title>indiginous_background</title>
  <rect x="-0.5" y="765.5" width="1392" height="719" fill="url(#linear-gradient)"/>
  <rect width="1392" height="765" fill="url(#linear-gradient-2)"/>
  <g>
    <polygon points="89.58 784.11 65.76 784.12 41.94 784.12 53.85 763.49 65.75 742.86 77.67 763.49 89.58 784.11" stroke="#000" stroke-miterlimit="10" fill="url(#linear-gradient-3)"/>
    <polygon points="72.22 783.99 64.78 783.99 57.35 783.99 61.06 773.92 64.78 763.85 68.5 773.92 72.22 783.99"/>
  </g>
  <polygon points="150 799.71 116.11 799.72 82.22 799.73 99.16 770.38 116.09 741.03 133.04 770.37 150 799.71" stroke="#000" stroke-miterlimit="10" fill="url(#linear-gradient-4)"/>
  <polygon points="126.7 799.45 115.03 799.45 103.36 799.46 109.19 783.65 115.02 767.84 120.86 783.64 126.7 799.45"/>
  <g>
    <g>
      <polygon points="140.55 216.21 125.25 245.61 118.26 210.74 104.56 227.55 108.25 203.13 70.77 247.6 90.4 185.66 35.38 204.7 82.17 162.64 22.1 156.41 82.56 138.9 61.27 116.21 90.2 120.21 43.76 60.14 105.58 102.28 101 67.15 138.2 90.15 156.54 64.34 175.31 94.9 209.71 84.81 190 121.5 215.02 121.5 199.67 137.55 255.94 126.7 209.95 160.83 244.61 171.04 204.95 183.14 232.21 209.07 191.56 197.72 197.62 237.22 174.45 210.19 154.57 270.68 140.55 216.21" fill="#f7b541"/>
      <path d="M46.08,62.33l58.29,39.74,1.85,1.25-.29-2.21-4.3-33,35.91,22.19.8.5.54-.77,17.63-24.81,18.18,29.6.4.65.73-.22,32.88-9.65L190,120.53l-.8,1.47h24.69l-13.46,14.07-2.16,2.27,3.08-.6,52.57-10.13-43.42,32.22-1.61,1.2,1.92.56,32.1,9.46-37.25,11.36-1.64.5,1.24,1.18,25.19,24-38-10.61L191,197l.23,1.53,5.68,37-21.45-25-1.16-1.35-.55,1.69-19.07,58-13.27-51.55-.66-2.53-1.2,2.31-14,27L119,211.68l-.42-2.08-1.34,1.64-11.87,14.58L108.48,205l.53-3.5-2.28,2.71L72,245.36l18.58-58.6.6-1.89-1.88.65-51.75,17.9,44.11-39.65,1.68-1.51L81.1,162l-56.4-5.86,57.21-16.56,1.57-.46L82.36,138,62.6,116.9l26.32,3.64,2.43.33-1.5-1.93L46.08,62.33M41.43,58l47.63,61.6-29.12-4,21.69,23.13-62.13,18L81,163,33.21,206l56.42-19.52-20.1,63.38,38-45-3.69,24.48L118,211.87,125,247.1l15.35-29.5,14.12,54.86,20.14-61.27,23.73,27.69-6.21-40.47L234,210.09l-28.1-26.72L246.35,171l-35.3-10.39L258,125.8l-56.88,11L216.19,121H190.84l19.87-37L175.54,94.31l-19-30.88-18.51,26-37.69-23.3,4.57,35.07L41.43,58Z"/>
    </g>
    <path d="M194.61,153.55a52.73,52.73,0,1,1-31.35-48.24A52.78,52.78,0,0,1,194.61,153.55Z" fill="#f5ff7b"/>
  </g>
  <path d="M1249.53,333.69H1372c-14.83-28.63-33.39-42.71-57.22-22.59,1.28-27.32-49.26-34.89-55.21.51,0,0,7-42.67-31.12-32.63s-12,54.71-12,54.71Z" fill="#fff" stroke="#000" stroke-miterlimit="10" opacity="0.8"/>
  <path d="M1223.16,343.23H1311c-10.64-20.55-24-30.65-41-16.21.91-19.6-35.35-25-39.61.36,0,0,5-30.6-22.33-23.4s-8.64,39.25-8.64,39.25Z" fill="#fff" stroke="#000" stroke-miterlimit="10"/>
  <path d="M1007.76,196.72H1194c-22.55-43.54-50.77-64.95-87-34.34,1.94-41.55-74.92-53.06-84,.76,0,0,10.68-64.88-47.33-49.61s-18.32,83.19-18.32,83.19Z" fill="#fff" stroke="#000" stroke-miterlimit="10" opacity="0.8"/>
  <path d="M967.65,211.23h133.61c-16.18-31.24-36.42-46.6-62.42-24.65,1.39-29.8-53.75-38.06-60.24.55,0,0,7.67-46.54-34-35.59s-13.14,59.69-13.14,59.69Z" fill="#fff" stroke="#000" stroke-miterlimit="10"/>
  <path d="M505.82,174.39H312.14c23.46-45.28,52.8-67.55,90.49-35.72-2-43.21,77.91-55.18,87.31.8,0,0-11.11-67.47,49.21-51.6s19.05,86.52,19.05,86.52Z" fill="#fff" stroke="#000" stroke-miterlimit="10" opacity="0.8"/>
  <path d="M547.53,189.47H408.58C425.41,157,446.46,141,473.5,163.85c-1.45-31,55.9-39.59,62.64.56,0,0-8-48.4,35.31-37s13.66,62.07,13.66,62.07Z" fill="#fff" stroke="#000" stroke-miterlimit="10"/>
  <g>
    <path d="M129.11,1346.83c-2.34,7.84-1.88,19.48-1,31.75h9.08c-1.54-12.54-2.52-24.66,0-34.06" fill="#4d0b00" stroke="#000" stroke-miterlimit="10" stroke-width="0.5"/>
    <path d="M75,1331c-6.69,13.93-10.4,28.24-10.37,43l8.33,4.54c.94-11.6,4.14-23.82,9.08-36.52C84,1331.51,79.86,1330.68,75,1331Z" fill="#4d0b00" stroke="#000" stroke-miterlimit="10" stroke-width="0.5"/>
    <path d="M178.11,1273.38c-2.08-6.17.65-10.72,6-14.38a41,41,0,0,0,.83,8.53,11,11,0,0,0,3,5.85c7.62,8,16.13,15,26.49,19.68,0,0,3,3.78,0,9.84s-6.06,6.81-6.06,6.81c-5.15-4.53-12.3-7-21.19-7.57,0,0-7.57.76-12.87-1.51s-3-11.36-3-11.36c-3.12,10.85-7.88,19.22-14.38,25,2.31-.4,13.52,7.19,4.68,19.76-.13.18-6.34,6.71-6.95,11.27-.71,5.25-1.35,35.46,0,34.81h-9.84c1.75-12.85,1.94-25,0-36.32-29.15,6.89-41.7,4.24-51.47,0-2.8,10.66-2.25,23,0,36.32H82a218.08,218.08,0,0,1,0-43.89s-11.35-1.52-9.08-19.68,9.08-22.71,15.89-23.46,28.87,8.59,46.17,4.54c0,0,23.46-21.19,30.27-25.73S178.11,1273.38,178.11,1273.38Z" stroke="#000" stroke-miterlimit="10" stroke-width="0.5" fill="url(#linear-gradient-5)"/>
    <path d="M80.39,1298.41c-2-8.4-7.86-11-15.28-11.26-8.13,1.16-11.86,6.58-11.43,16,6.56,15.54,4,26.38-1.47,36.93-3.92,5-8.11,1.64-12.14-1.22-1.69,6.82,12.92,16.44,17.23,10.75,2.09-2.74,6.16-12.06,9.46-22,3.53-10.65,6.18-22,4.5-26.67l5.62,6C80.56,1306.29,81.63,1303.36,80.39,1298.41Z" stroke="#000" stroke-miterlimit="10" stroke-width="0.5"/>
    <path d="M176.59,1266.57c-11.49,1.39-27.18,16.79-40.87,27.24,1.15,9.6,3.13,12.61,1.52,21.2,5.37-5.52,9.6-11,9.84-16.65l3,9.08c3.05-4.17,5.12-10.39,6.82-17.41l3,9.08c2.83-5.07,5.12-10.39,5.3-16.65,3,1.69,4.73,3.63,3.79,6.06,3.16-2.36,4.78-6.29,5.29-11.36l5.3,6.06a49.34,49.34,0,0,1-2.27-16.65h-1.51" stroke="#000" stroke-miterlimit="10" stroke-width="0.5"/>
    <path d="M200.06,1273.38a29,29,0,0,0-15.48-8.13l2.81,7.56a53.59,53.59,0,0,1,4.34,15c1.75-1.68,2.33-4.35,2.27-7.57a58.35,58.35,0,0,1,4.54,15.14c1.34-4,1.9-7.8,1-11.35a23,23,0,0,1,5.84,8.32C207,1292.23,204.74,1277,200.06,1273.38Z" stroke="#000" stroke-miterlimit="10" stroke-width="0.5"/>
    <circle cx="211.03" cy="1296.46" r="1.14" stroke="#000" stroke-miterlimit="10" stroke-width="0.5"/>
    <path d="M213.88,1304A115.31,115.31,0,0,1,197,1297.6" stroke="#000" stroke-miterlimit="10" stroke-width="0.5"/>
    <polygon points="145.49 1374.34 153.93 1374.34 156.92 1380.1 143.29 1380.1 145.49 1374.34" stroke="#000" stroke-miterlimit="10" stroke-width="0.5"/>
    <polygon points="127.4 1374.04 137.24 1374.04 139.51 1380.1 125.13 1380.1 127.4 1374.04" stroke="#000" stroke-miterlimit="10" stroke-width="0.5"/>
    <polygon points="81.49 1374.34 92.43 1374.04 95.61 1380.1 79.72 1380.1 81.49 1374.34" stroke="#000" stroke-miterlimit="10" stroke-width="0.5"/>
    <polygon points="64.58 1367.98 73.55 1373.54 75.18 1380.1 63.07 1375.55 64.58 1367.98" stroke="#000" stroke-miterlimit="10" stroke-width="0.5"/>
    <ellipse cx="161.83" cy="1276.74" rx="9.12" ry="1.18" transform="translate(-751.94 370.5) rotate(-38.01)" fill="#fff" opacity="0.3"/>
    <ellipse cx="61.09" cy="1293.07" rx="4.87" ry="3.07" transform="matrix(0.81, -0.58, 0.58, 0.81, -743.46, 278.94)" fill="#fff" opacity="0.3"/>
  </g>
  <g>
    <path d="M174.13,1376.65c-2.07,6.92-1.66,17.19-.84,28h8c-.9-7.37-5.08-15.8-1.29-21,2.37-3.26,4.9-6.21,3.42-9" fill="#fff" stroke="#000" stroke-miterlimit="10" stroke-width="0.5"/>
    <path d="M126.34,1362.68c-5.89,12.29-9.17,24.92-9.14,38l7.34,4c.58-7.12-2.34-18,4.48-22.11,3.59-2.17,4.44-5.69,3.54-10.1C134.36,1363.14,130.68,1362.4,126.34,1362.68Z" fill="#fff" stroke="#000" stroke-miterlimit="10" stroke-width="0.5"/>
    <path d="M217.36,1311.85c-1.83-5.44.58-9.46,5.34-12.69a36.14,36.14,0,0,0,.73,7.53,9.8,9.8,0,0,0,2.61,5.16c6.72,7.1,14.23,13.23,23.37,17.36,0,0,2.67,3.34,0,8.68s-5.34,6-5.34,6c-4.55-4-10.85-6.14-18.7-6.68,0,0-6.68.67-11.35-1.33s-2.67-10-2.67-10c-2.75,9.57-6.95,17-12.69,22,2.05-.35,14.46,8.64,4.13,17.43-4.63,3.94-8.8,43.53-6.13,40.66H188c1.55-11.34,1.71-22.09,0-32-25.72,6.08-36.79,3.74-45.41,0,1.19,3.52,1.91,7.25-1.61,11.16-4.37,4.87.37,13.56,1.61,20.89h-10a191.94,191.94,0,0,1,0-38.73s-10-1.33-8-17.36,8-20,14-20.7,25.48,7.58,40.74,4c0,0,20.7-18.7,26.71-22.71S217.36,1311.85,217.36,1311.85Z" fill="#fff" stroke="#000" stroke-miterlimit="10" stroke-width="0.5"/>
    <path d="M216,1305.84c-10.14,1.22-24,14.81-36.06,24,1,8.46,2.76,11.12,1.34,18.69,4.74-4.86,8.47-9.74,8.68-14.69l2.67,8c2.69-3.68,4.52-9.17,6-15.36l2.67,8c2.5-4.48,4.52-9.17,4.68-14.69,2.66,1.49,4.17,3.2,3.34,5.34,2.79-2.08,4.22-5.55,4.67-10l4.67,5.34a43.28,43.28,0,0,1-2-14.69h-1.33" stroke="#000" stroke-miterlimit="10" stroke-width="0.5"/>
    <path d="M236.72,1311.85a25.64,25.64,0,0,0-13.66-7.18l2.49,6.68a47.24,47.24,0,0,1,3.83,13.19c1.54-1.48,2.05-3.84,2-6.68a51.58,51.58,0,0,1,4,13.35c1.18-3.5,1.68-6.88.85-10a20.37,20.37,0,0,1,5.16,7.34C242.85,1328.48,240.85,1315,236.72,1311.85Z" stroke="#000" stroke-miterlimit="10" stroke-width="0.5"/>
    <path d="M248.92,1338.83a101.39,101.39,0,0,1-14.87-5.61" stroke="#000" stroke-miterlimit="10" stroke-width="0.5"/>
    <polygon points="188.58 1400.92 196.03 1400.92 198.66 1406 186.64 1406 188.58 1400.92" stroke="#000" stroke-miterlimit="10" stroke-width="0.5"/>
    <polygon points="172.62 1400.66 181.3 1400.66 183.3 1406 170.62 1406 172.62 1400.66" stroke="#000" stroke-miterlimit="10" stroke-width="0.5"/>
    <polygon points="132.12 1400.92 141.77 1400.66 144.57 1406 130.55 1406 132.12 1400.92" stroke="#000" stroke-miterlimit="10" stroke-width="0.5"/>
    <polygon points="117.2 1395.32 125.11 1400.21 126.55 1406 115.86 1401.99 117.2 1395.32" stroke="#000" stroke-miterlimit="10" stroke-width="0.5"/>
    <ellipse cx="203" cy="1314.81" rx="8.05" ry="1.04" transform="translate(-766.65 403.93) rotate(-38.01)" fill="#fff" opacity="0.3"/>
    <ellipse cx="114.12" cy="1329.22" rx="4.3" ry="2.71" transform="matrix(0.81, -0.58, 0.58, 0.81, -754.59, 316.7)" fill="#fff" opacity="0.3"/>
    <path d="M151.29,1331.21c-2.18,3.9,2.33,3.69,3.68,8.14,1.87,6.14-1.41,6.8-3.5,9.2-.45,5.27-3.31,7.26-8.71,5.81-2.32-4.51-6.16-3.3-10.17-1.45.16,5.41-7.32,6.64-8.08,4.36a35.31,35.31,0,0,1,6.63-24.7C133.81,1328.54,140.74,1328.27,151.29,1331.21Z" fill="#6d270f" stroke="#000" stroke-miterlimit="10" stroke-width="0.5"/>
    <path d="M131.14,1333.93c-1.77-7.41-6.93-9.71-13.48-9.93-7.17,1-10.46,5.8-10.08,14.13,5.78,13.71,3.53,23.27-1.3,32.59-3.46,4.42-7.16,1.44-10.71-1.08-1.49,6,11.4,14.5,15.21,9.48,1.83-2.42,5.43-10.64,8.33-19.39,3.13-9.4,5.46-19.41,4-23.53l5,5.25C131.3,1340.89,132.24,1338.3,131.14,1333.93Z" stroke="#000" stroke-miterlimit="10" stroke-width="0.5"/>
    <path d="M156.52,1377.49c-2.06-2.76-1.35-4.67,2.22-5.69.22-4.3,2.46-5.82,5.81-5.82l5.81,2.91s0-4.36,2.9-1.45,0,5.81,0,5.81c3.09-.25,4.89.35,3.7,3A95.93,95.93,0,0,1,156.52,1377.49Z" fill="#6d270f" stroke="#000" stroke-miterlimit="10" stroke-width="0.5"/>
    <path d="M198,1344.19a7,7,0,0,0,3.71,5,2.19,2.19,0,0,1-.8,3.69,11.28,11.28,0,0,1-4.36,1.45s-4.36,5.81-7.27,4.36,0-5.81,0-5.81c1.64-1.37,2.52-3.93,2.91-7.26A4.33,4.33,0,0,1,198,1344.19Z" fill="#6d270f" stroke="#000" stroke-miterlimit="10" stroke-width="0.5"/>
  </g>
  <g>
    <path d="M237.11,832.93c.6,2,.49,5,.25,8.14H235c.39-3.22.64-6.33,0-8.74" fill="#4d0b00" stroke="#000" stroke-miterlimit="10" stroke-width="0.5"/>
    <path d="M251,828.86a25.16,25.16,0,0,1,2.66,11l-2.13,1.16a33.9,33.9,0,0,0-2.33-9.37C248.68,829,249.75,828.78,251,828.86Z" fill="#4d0b00" stroke="#000" stroke-miterlimit="10" stroke-width="0.5"/>
    <path d="M224.54,814.07c.53-1.58-.17-2.75-1.55-3.69a10.2,10.2,0,0,1-.22,2.19,2.68,2.68,0,0,1-.76,1.5,21.6,21.6,0,0,1-6.79,5,2.38,2.38,0,0,0,0,2.53c.77,1.55,1.55,1.75,1.55,1.75a8.92,8.92,0,0,1,5.44-1.94,8,8,0,0,0,3.3-.39c1.36-.59.78-2.92.78-2.92a13.16,13.16,0,0,0,3.69,6.41c-.6-.1-3.47,1.85-1.2,5.07,0,0,1.62,1.73,1.78,2.9.18,1.34.35,9.1,0,8.93h2.53a30.62,30.62,0,0,1,0-9.32c7.48,1.77,10.7,1.09,13.2,0a22.45,22.45,0,0,1,0,9.32h2.92a55.72,55.72,0,0,0,0-11.26s2.91-.39,2.33-5.05-2.33-5.83-4.08-6-7.41,2.21-11.85,1.17c0,0-6-5.44-7.77-6.6A2.67,2.67,0,0,0,224.54,814.07Z" stroke="#000" stroke-miterlimit="10" stroke-width="0.5" fill="url(#linear-gradient-6)"/>
    <path d="M249.62,820.5c.51-2.16,2-2.83,3.92-2.89,2.09.3,3,1.69,2.93,4.11a10.11,10.11,0,0,0,.38,9.48c1,1.28,2.08.42,3.12-.32.43,1.75-3.32,4.22-4.43,2.76a26.93,26.93,0,0,1-2.42-5.64c-.91-2.73-1.59-5.64-1.16-6.84l-1.44,1.52C249.57,822.52,249.3,821.77,249.62,820.5Z" stroke="#000" stroke-miterlimit="10" stroke-width="0.5"/>
    <path d="M224.93,812.33c2.95.35,7,4.31,10.49,7-.3,2.46-.81,3.23-.39,5.44-1.38-1.42-2.47-2.84-2.53-4.28l-.77,2.34a12.79,12.79,0,0,1-1.75-4.47l-.78,2.33a9.31,9.31,0,0,1-1.36-4.27c-.77.43-1.21.93-1,1.55a4,4,0,0,1-1.36-2.91l-1.36,1.55a12.57,12.57,0,0,0,.58-4.27h.39" stroke="#000" stroke-miterlimit="10" stroke-width="0.5"/>
    <path d="M218.91,814.07a7.41,7.41,0,0,1,4-2.08l-.72,1.94a13.62,13.62,0,0,0-1.12,3.84,2.58,2.58,0,0,1-.58-1.95,14.7,14.7,0,0,0-1.16,3.89,5,5,0,0,1-.25-2.92,6,6,0,0,0-1.5,2.14C217.12,818.91,217.71,815,218.91,814.07Z" stroke="#000" stroke-miterlimit="10" stroke-width="0.5"/>
    <circle cx="216.09" cy="820" r="0.29" stroke="#000" stroke-miterlimit="10" stroke-width="0.5"/>
    <path d="M215.36,821.92a29,29,0,0,0,4.32-1.63" stroke="#000" stroke-miterlimit="10" stroke-width="0.5"/>
    <polygon points="232.91 839.98 230.74 839.98 229.98 841.46 233.47 841.46 232.91 839.98" stroke="#000" stroke-miterlimit="10" stroke-width="0.5"/>
    <polygon points="237.55 839.91 235.03 839.91 234.45 841.46 238.14 841.46 237.55 839.91" stroke="#000" stroke-miterlimit="10" stroke-width="0.5"/>
    <polygon points="249.33 839.98 246.53 839.91 245.71 841.46 249.79 841.46 249.33 839.98" stroke="#000" stroke-miterlimit="10" stroke-width="0.5"/>
    <polygon points="253.68 838.35 251.37 839.78 250.96 841.46 254.06 840.3 253.68 838.35" stroke="#000" stroke-miterlimit="10" stroke-width="0.5"/>
    <ellipse cx="228.72" cy="814.94" rx="0.3" ry="2.34" transform="translate(-554.2 493.26) rotate(-51.99)" fill="#fff" opacity="0.3"/>
    <ellipse cx="254.57" cy="819.13" rx="0.79" ry="1.25" transform="translate(-559.08 547.56) rotate(-54.28)" fill="#fff" opacity="0.3"/>
  </g>
  <g>
    <path d="M225.56,840.58c.53,1.77.43,4.41.22,7.19h-2.06c.23-1.89,1.3-4.06.33-5.4-.61-.83-1.26-1.59-.88-2.29" fill="#fff" stroke="#000" stroke-miterlimit="10" stroke-width="0.5"/>
    <path d="M237.82,837a22.17,22.17,0,0,1,2.35,9.75l-1.88,1c-.15-1.83.6-4.62-1.15-5.68a2.2,2.2,0,0,1-.91-2.59C235.77,837.11,236.71,836.92,237.82,837Z" fill="#fff" stroke="#000" stroke-miterlimit="10" stroke-width="0.5"/>
    <path d="M214.47,824c.47-1.4-.15-2.43-1.37-3.26a9.2,9.2,0,0,1-.19,1.93,2.51,2.51,0,0,1-.67,1.33,19.17,19.17,0,0,1-6,4.45,2.11,2.11,0,0,0,0,2.23c.69,1.37,1.37,1.54,1.37,1.54a8,8,0,0,1,4.8-1.71,7.08,7.08,0,0,0,2.91-.34c1.2-.52.69-2.57.69-2.57a11.59,11.59,0,0,0,3.25,5.65c-.52-.09-3.71,2.22-1.06,4.47,1.19,1,2.26,11.18,1.58,10.44H222a27,27,0,0,1,0-8.23c6.6,1.56,9.44,1,11.65,0a2.58,2.58,0,0,0,.41,2.87c1.12,1.25-.09,3.48-.41,5.36h2.57a49.25,49.25,0,0,0,0-9.94s2.57-.34,2.06-4.45-2.06-5.15-3.6-5.32-6.54,2-10.46,1c0,0-5.31-4.8-6.85-5.83A2.37,2.37,0,0,0,214.47,824Z" fill="#fff" stroke="#000" stroke-miterlimit="10" stroke-width="0.5"/>
    <path d="M214.81,822.4c2.6.32,6.15,3.81,9.25,6.17-.26,2.18-.71,2.86-.34,4.8-1.22-1.25-2.17-2.5-2.23-3.77l-.68,2.06a11.56,11.56,0,0,1-1.55-3.94l-.68,2a8.1,8.1,0,0,1-1.2-3.77c-.69.39-1.07.82-.86,1.37a3.49,3.49,0,0,1-1.2-2.57l-1.2,1.37a10.93,10.93,0,0,0,.52-3.77H215" stroke="#000" stroke-miterlimit="10" stroke-width="0.5"/>
    <path d="M209.5,824a6.49,6.49,0,0,1,3.5-1.84l-.64,1.71a12.34,12.34,0,0,0-1,3.38,2.23,2.23,0,0,1-.51-1.71,13,13,0,0,0-1,3.43,4.53,4.53,0,0,1-.22-2.57,5.16,5.16,0,0,0-1.32,1.88C207.92,828.22,208.44,824.77,209.5,824Z" stroke="#000" stroke-miterlimit="10" stroke-width="0.5"/>
    <path d="M206.37,830.87a25.07,25.07,0,0,0,3.81-1.44" stroke="#000" stroke-miterlimit="10" stroke-width="0.5"/>
    <polygon points="221.85 846.81 219.94 846.81 219.26 848.11 222.35 848.11 221.85 846.81" stroke="#000" stroke-miterlimit="10" stroke-width="0.5"/>
    <polygon points="225.95 846.74 223.72 846.74 223.21 848.11 226.46 848.11 225.95 846.74" stroke="#000" stroke-miterlimit="10" stroke-width="0.5"/>
    <polygon points="236.34 846.81 233.87 846.74 233.15 848.11 236.74 848.11 236.34 846.81" stroke="#000" stroke-miterlimit="10" stroke-width="0.5"/>
    <polygon points="240.17 845.37 238.14 846.63 237.77 848.11 240.51 847.08 240.17 845.37" stroke="#000" stroke-miterlimit="10" stroke-width="0.5"/>
    <ellipse cx="218.15" cy="824.71" rx="0.27" ry="2.07" transform="translate(-565.96 488.69) rotate(-51.99)" fill="#fff" opacity="0.3"/>
    <ellipse cx="240.96" cy="828.41" rx="0.7" ry="1.1" transform="translate(-572.28 540.38) rotate(-54.28)" fill="#fff" opacity="0.3"/>
    <path d="M231.42,828.92c.56,1-.6.94-.94,2.09-.48,1.57.36,1.74.89,2.36.12,1.35.86,1.86,2.24,1.49.6-1.16,1.58-.85,2.61-.37,0,1.38,1.88,1.7,2.07,1.11a9,9,0,0,0-1.7-6.33C235.91,828.23,234.13,828.16,231.42,828.92Z" fill="#6d270f" stroke="#000" stroke-miterlimit="10" stroke-width="0.5"/>
    <path d="M236.59,829.62c.46-1.91,1.78-2.5,3.46-2.55,1.84.26,2.69,1.48,2.59,3.62a8.92,8.92,0,0,0,.33,8.37c.89,1.13,1.84.37,2.75-.28.38,1.54-2.92,3.72-3.9,2.43a24.28,24.28,0,0,1-2.14-5c-.8-2.42-1.4-5-1-6l-1.27,1.34C236.55,831.4,236.31,830.74,236.59,829.62Z" stroke="#000" stroke-miterlimit="10" stroke-width="0.5"/>
    <path d="M230.08,840.79c.53-.71.35-1.2-.57-1.46-.06-1.1-.63-1.49-1.49-1.49l-1.49.75s0-1.12-.75-.38a1,1,0,0,0,0,1.49c-.79-.06-1.25.1-.95.76A24.38,24.38,0,0,0,230.08,840.79Z" fill="#6d270f" stroke="#000" stroke-miterlimit="10" stroke-width="0.5"/>
    <path d="M219.44,832.25a1.77,1.77,0,0,1-.95,1.29.56.56,0,0,0,.21,1,2.88,2.88,0,0,0,1.12.37s1.12,1.49,1.86,1.12,0-1.49,0-1.49a2.85,2.85,0,0,1-.74-1.87A1.12,1.12,0,0,0,219.44,832.25Z" fill="#6d270f" stroke="#000" stroke-miterlimit="10" stroke-width="0.5"/>
  </g>
  <path d="M1268.66,1267.67c1.4,4.69,1.13,11.65.57,19h-5.43c.92-7.5,1.51-14.75,0-20.37" fill="#4d0b00" stroke="#000" stroke-miterlimit="10" stroke-width="0.5"/>
  <path d="M1301.06,1258.2a58.73,58.73,0,0,1,6.2,25.74l-5,2.72a78.35,78.35,0,0,0-5.43-21.84C1295.62,1258.51,1298.12,1258,1301.06,1258.2Z" fill="#4d0b00" stroke="#000" stroke-miterlimit="10" stroke-width="0.5"/>
  <path d="M1239.36,1223.74c1.24-3.69-.39-6.41-3.62-8.6a25,25,0,0,1-.5,5.1,6.58,6.58,0,0,1-1.77,3.5,50.73,50.73,0,0,1-15.84,11.77s-1.81,2.26,0,5.88,3.62,4.08,3.62,4.08c3.08-2.71,7.36-4.17,12.67-4.53,0,0,4.53.45,7.7-.91s1.81-6.79,1.81-6.79c1.87,6.49,4.71,11.5,8.6,14.94-1.38-.24-8.09,4.31-2.8,11.82.08.11,3.79,4,4.16,6.74.42,3.14.8,21.21,0,20.83h5.88a71.56,71.56,0,0,1,0-21.73c17.44,4.12,25,2.54,30.79,0,1.67,6.37,1.34,13.79,0,21.73h6.79a130.85,130.85,0,0,0,0-26.26s6.79-.91,5.43-11.77-5.43-13.58-9.51-14-17.27,5.14-27.61,2.71c0,0-14-12.67-18.11-15.39S1239.36,1223.74,1239.36,1223.74Z" stroke="#000" stroke-miterlimit="10" stroke-width="0.5" fill="url(#linear-gradient-7)"/>
  <path d="M1297.81,1238.71c1.19-5,4.7-6.59,9.14-6.73,4.86.69,7.09,3.93,6.83,9.58-3.92,9.29-2.39,15.77.88,22.09,2.34,3,4.85,1,7.26-.74,1,4.08-7.73,9.84-10.31,6.43-1.24-1.64-3.68-7.21-5.65-13.14-2.12-6.37-3.7-13.16-2.69-16l-3.37,3.55C1297.7,1243.42,1297.06,1241.67,1297.81,1238.71Z" stroke="#000" stroke-miterlimit="10" stroke-width="0.5"/>
  <path d="M1240.26,1219.66c6.88.83,16.26,10,24.45,16.3-.69,5.74-1.87,7.54-.91,12.67-3.21-3.29-5.74-6.6-5.88-10l-1.81,5.43c-1.83-2.49-3.06-6.22-4.08-10.41l-1.81,5.43a21.52,21.52,0,0,1-3.17-10c-1.81,1-2.83,2.17-2.26,3.62-1.9-1.41-2.86-3.76-3.17-6.79l-3.17,3.62a29.29,29.29,0,0,0,1.36-10h.9" stroke="#000" stroke-miterlimit="10" stroke-width="0.5"/>
  <path d="M1226.23,1223.74a17.37,17.37,0,0,1,9.26-4.87l-1.69,4.53a32.14,32.14,0,0,0-2.59,8.94c-1-1-1.39-2.6-1.36-4.53a35.2,35.2,0,0,0-2.72,9.06,11.86,11.86,0,0,1-.57-6.8,14,14,0,0,0-3.5,5C1222.08,1235,1223.43,1225.9,1226.23,1223.74Z" stroke="#000" stroke-miterlimit="10" stroke-width="0.5"/>
  <circle cx="1219.67" cy="1237.54" r="0.68" stroke="#000" stroke-miterlimit="10" stroke-width="0.5"/>
  <path d="M1218,1242a68,68,0,0,0,10.08-3.81" stroke="#000" stroke-miterlimit="10" stroke-width="0.5"/>
  <polygon points="1258.87 1284.12 1253.82 1284.12 1252.03 1287.57 1260.18 1287.57 1258.87 1284.12" stroke="#000" stroke-miterlimit="10" stroke-width="0.5"/>
  <polygon points="1269.69 1283.94 1263.8 1283.94 1262.44 1287.57 1271.05 1287.57 1269.69 1283.94" stroke="#000" stroke-miterlimit="10" stroke-width="0.5"/>
  <polygon points="1297.14 1284.12 1290.6 1283.94 1288.7 1287.57 1298.2 1287.57 1297.14 1284.12" stroke="#000" stroke-miterlimit="10" stroke-width="0.5"/>
  <polygon points="1307.26 1280.32 1301.89 1283.64 1300.92 1287.57 1308.16 1284.85 1307.26 1280.32" stroke="#000" stroke-miterlimit="10" stroke-width="0.5"/>
  <ellipse cx="1249.09" cy="1225.75" rx="0.7" ry="5.46" transform="translate(-485.88 1455) rotate(-51.99)" fill="#fff" opacity="0.3"/>
  <ellipse cx="1309.35" cy="1235.52" rx="1.84" ry="2.91" transform="translate(-458.18 1577.19) rotate(-54.28)" fill="#fff" opacity="0.3"/>
  <path d="M1241.74,1285.51c1.23,4.13,1,10.28.5,16.75h-4.79c.54-4.41,3-9.45.77-12.57-1.42-2-2.93-3.71-2-5.35" fill="#fff" stroke="#000" stroke-miterlimit="10" stroke-width="0.5"/>
  <path d="M1270.32,1277.15a51.77,51.77,0,0,1,5.47,22.71l-4.39,2.4c-.35-4.26,1.4-10.76-2.68-13.23-2.15-1.29-2.66-3.4-2.12-6C1265.52,1277.42,1267.73,1277,1270.32,1277.15Z" fill="#fff" stroke="#000" stroke-miterlimit="10" stroke-width="0.5"/>
  <path d="M1215.88,1246.75c1.1-3.26-.34-5.66-3.19-7.59a21.65,21.65,0,0,1-.44,4.5,5.82,5.82,0,0,1-1.56,3.09,44.65,44.65,0,0,1-14,10.38s-1.6,2,0,5.19,3.2,3.6,3.2,3.6c2.71-2.39,6.48-3.68,11.18-4a16.38,16.38,0,0,0,6.79-.8c2.79-1.19,1.6-6,1.6-6,1.64,5.72,4.15,10.14,7.58,13.18-1.22-.21-8.64,5.18-2.47,10.43,2.77,2.36,5.27,26,3.67,24.32h5.19a63.44,63.44,0,0,1,0-19.17c15.38,3.63,22,2.24,27.16,0-.71,2.1-1.14,4.34,1,6.68,2.62,2.91-.22,8.11-1,12.49h6a114.83,114.83,0,0,0,0-23.16s6-.8,4.8-10.39-4.8-12-8.39-12.38-15.24,4.54-24.36,2.4c0,0-12.39-11.19-16-13.58S1215.88,1246.75,1215.88,1246.75Z" fill="#fff" stroke="#000" stroke-miterlimit="10" stroke-width="0.5"/>
  <path d="M1216.68,1243.15c6.07.73,14.35,8.86,21.57,14.38-.61,5.06-1.65,6.65-.8,11.18-2.84-2.91-5.07-5.83-5.19-8.78l-1.6,4.79c-1.61-2.2-2.7-5.49-3.6-9.19l-1.59,4.8a18.92,18.92,0,0,1-2.8-8.79c-1.6.89-2.5,1.91-2,3.19-1.67-1.24-2.52-3.32-2.79-6l-2.8,3.2a25.84,25.84,0,0,0,1.2-8.79h.8" stroke="#000" stroke-miterlimit="10" stroke-width="0.5"/>
  <path d="M1204.3,1246.75a15.34,15.34,0,0,1,8.17-4.3l-1.49,4a28.4,28.4,0,0,0-2.29,7.88,5.23,5.23,0,0,1-1.2-4,30.89,30.89,0,0,0-2.39,8,10.36,10.36,0,0,1-.51-6,12,12,0,0,0-3.09,4.39C1200.63,1256.69,1201.83,1248.65,1204.3,1246.75Z" stroke="#000" stroke-miterlimit="10" stroke-width="0.5"/>
  <path d="M1197,1262.88a61,61,0,0,0,8.89-3.35" stroke="#000" stroke-miterlimit="10" stroke-width="0.5"/>
  <polygon points="1233.09 1300.02 1228.64 1300.02 1227.06 1303.06 1234.25 1303.06 1233.09 1300.02" stroke="#000" stroke-miterlimit="10" stroke-width="0.5"/>
  <polygon points="1242.64 1299.86 1237.45 1299.86 1236.25 1303.06 1243.84 1303.06 1242.64 1299.86" stroke="#000" stroke-miterlimit="10" stroke-width="0.5"/>
  <polygon points="1266.86 1300.02 1261.09 1299.86 1259.41 1303.06 1267.8 1303.06 1266.86 1300.02" stroke="#000" stroke-miterlimit="10" stroke-width="0.5"/>
  <polygon points="1275.79 1296.67 1271.06 1299.6 1270.2 1303.06 1276.59 1300.66 1275.79 1296.67" stroke="#000" stroke-miterlimit="10" stroke-width="0.5"/>
  <ellipse cx="1224.47" cy="1248.52" rx="0.62" ry="4.81" transform="translate(-513.28 1444.35) rotate(-51.99)" fill="#fff" opacity="0.3"/>
  <ellipse cx="1277.63" cy="1257.14" rx="1.62" ry="2.57" transform="translate(-488.93 1560.44) rotate(-54.28)" fill="#fff" opacity="0.3"/>
  <path d="M1255.4,1258.33c1.3,2.33-1.4,2.2-2.21,4.87-1.11,3.67.85,4.06,2.1,5.5.27,3.15,2,4.34,5.21,3.47,1.39-2.7,3.68-2,6.08-.86-.09,3.23,4.38,4,4.83,2.6a21.08,21.08,0,0,0-4-14.77C1265.85,1256.73,1261.71,1256.57,1255.4,1258.33Z" fill="#6d270f" stroke="#000" stroke-miterlimit="10" stroke-width="0.5"/>
  <path d="M1267.45,1260c1.06-4.44,4.15-5.81,8.06-6,4.29.62,6.26,3.47,6,8.46-3.46,8.2-2.11,13.91.78,19.49,2.07,2.64,4.28.86,6.4-.65.89,3.6-6.81,8.67-9.09,5.67-1.1-1.44-3.25-6.36-5-11.6-1.87-5.62-3.26-11.61-2.37-14.07l-3,3.14C1267.35,1264.11,1266.79,1262.57,1267.45,1260Z" stroke="#000" stroke-miterlimit="10" stroke-width="0.5"/>
  <path d="M1252.27,1286c1.23-1.65.8-2.79-1.33-3.4-.13-2.57-1.47-3.47-3.47-3.47l-3.48,1.73s0-2.6-1.74-.87a2.42,2.42,0,0,0,0,3.48c-1.84-.15-2.92.21-2.21,1.77A57.07,57.07,0,0,0,1252.27,1286Z" fill="#6d270f" stroke="#000" stroke-miterlimit="10" stroke-width="0.5"/>
  <path d="M1227.48,1266.09a4.15,4.15,0,0,1-2.22,3,1.31,1.31,0,0,0,.49,2.21,6.73,6.73,0,0,0,2.6.86s2.61,3.48,4.35,2.61,0-3.47,0-3.47c-1-.82-1.51-2.36-1.74-4.35A2.6,2.6,0,0,0,1227.48,1266.09Z" fill="#6d270f" stroke="#000" stroke-miterlimit="10" stroke-width="0.5"/>
  <path d="M924.5,737.5c73.55-176.78,156.27-326.35,272-378C1299.64,436.35,1346.17,533.8,1391,645l-1,126-465-3Z" stroke="#000" stroke-miterlimit="10" stroke-width="2" fill="url(#linear-gradient-8)"/>
  <ellipse cx="1209.31" cy="971.73" rx="41.66" ry="29.68" stroke="#000" stroke-miterlimit="10" fill="url(#radial-gradient)"/>
  <path d="M1188.53,970.79a101.09,101.09,0,0,0,5.66,14.79c9.91,5.38,19.6,5,29.12,0a26.18,26.18,0,0,0,7.94-16.22c-1.14-3.39-4.92-12.47-8.3-14.65-2.37,3.59-3.07,11.71-5.16,12.67-4-3.18-7.34-10.21-8.11-15-2.6.93-2.09,8.92-1.48,15-5.3-1.65-8.46-6.27-10.32-12.67C1194,958.21,1190.82,963.52,1188.53,970.79Z" fill="none" stroke="#000" stroke-miterlimit="10" stroke-width="0.75"/>
  <path d="M977,767.61C1033.88,625.2,895,427.24,784.33,481,704,520,607.05,691.44,650,765Z" stroke="#000" stroke-miterlimit="10" stroke-width="2" fill="url(#linear-gradient-9)"/>
  <g>
    <polygon points="1238.97 840.79 1200.95 840.8 1162.94 840.81 1181.94 807.89 1200.94 774.96 1219.95 807.88 1238.97 840.79" stroke="#000" stroke-miterlimit="10" fill="url(#linear-gradient-10)"/>
    <polygon points="1211.26 840.6 1199.39 840.6 1187.52 840.61 1193.45 824.53 1199.38 808.46 1205.32 824.53 1211.26 840.6"/>
  </g>
  <polygon points="1335.4 865.69 1281.31 865.71 1227.23 865.72 1254.26 818.88 1281.29 772.03 1308.34 818.86 1335.4 865.69" stroke="#000" stroke-miterlimit="10" fill="url(#linear-gradient-11)"/>
  <polygon points="172.79 777.97 161.12 777.97 149.45 777.97 155.28 767.86 161.11 757.75 166.95 767.86 172.79 777.97" stroke="#000" stroke-miterlimit="10" fill="url(#linear-gradient-12)"/>
  <polygon points="167.71 778.05 161.12 778.05 154.53 778.05 157.83 772.35 161.12 766.64 164.41 772.35 167.71 778.05" stroke="#000" stroke-miterlimit="10"/>
  <polygon points="1298.21 865.28 1279.59 865.28 1260.96 865.29 1270.27 840.06 1279.57 814.83 1288.89 840.05 1298.21 865.28"/>
  <g>
    <ellipse cx="1181.58" cy="999.29" rx="9.88" ry="10.6" fill="#757372" stroke="#000" stroke-miterlimit="10"/>
    <ellipse cx="1168.64" cy="986.86" rx="9.88" ry="10.6" fill="#757372" stroke="#000" stroke-miterlimit="10"/>
    <ellipse cx="1163.88" cy="968.59" rx="9.88" ry="10.6" fill="#757372" stroke="#000" stroke-miterlimit="10"/>
    <ellipse cx="1172.73" cy="950.31" rx="9.88" ry="10.6" fill="#757372" stroke="#000" stroke-miterlimit="10"/>
    <ellipse cx="1188.39" cy="939.35" rx="9.88" ry="10.6" fill="#757372" stroke="#000" stroke-miterlimit="10"/>
    <ellipse cx="1206.78" cy="936.43" rx="9.88" ry="10.6" fill="#757372" stroke="#000" stroke-miterlimit="10"/>
    <ellipse cx="1225.17" cy="939.35" rx="9.88" ry="10.6" fill="#757372" stroke="#000" stroke-miterlimit="10"/>
    <ellipse cx="1242.88" cy="947.39" rx="9.88" ry="10.6" fill="#757372" stroke="#000" stroke-miterlimit="10"/>
    <ellipse cx="1251.05" cy="965.66" rx="9.88" ry="10.6" fill="#757372" stroke="#000" stroke-miterlimit="10"/>
    <ellipse cx="1249.01" cy="986.13" rx="9.88" ry="10.6" fill="#757372" stroke="#000" stroke-miterlimit="10"/>
    <ellipse cx="1235.39" cy="999.29" rx="9.88" ry="10.6" fill="#757372" stroke="#000" stroke-miterlimit="10"/>
    <ellipse cx="1217" cy="1004.4" rx="9.88" ry="10.6" fill="#757372" stroke="#000" stroke-miterlimit="10"/>
    <ellipse cx="1199.29" cy="1004.4" rx="9.88" ry="10.6" fill="#757372" stroke="#000" stroke-miterlimit="10"/>
  </g>
  <path d="M1194.06,985.23a95.72,95.72,0,0,1-5.79-15.38,48.51,48.51,0,0,1-1.13-5.37c-1.38-9.51,8.3-25.94,8.3-25.94,2-10.86-.9-19.88-4.84-28.54,4.93,2.55,9.93,4.87,13.15,13l.69-9.51c3.37,6.83,5.44,15.07,6.92,16.43-.36-2.17,4.86-6.48,9-10.38-2.23,9.8-1.77,17.16,0,23.35l3.46-7.78s7.61,19.89,7.61,31.13a27.89,27.89,0,0,1-6.78,18.23C1220.26,989.27,1202.15,992.42,1194.06,985.23Z" stroke="#000" stroke-miterlimit="10" fill="url(#linear-gradient-13)"/>
</svg>
