<svg id="Layer_1" data-name="Layer 1" xmlns="http://www.w3.org/2000/svg" xmlns:xlink="http://www.w3.org/1999/xlink" width="1390" height="1483" viewBox="0 0 1390 1483">
  <defs>
    <linearGradient id="linear-gradient" y1="371.96" x2="1390" y2="371.96" gradientTransform="matrix(1, 0, 0, -1, 0, 1483)" gradientUnits="userSpaceOnUse">
      <stop offset="0" stop-color="#f7931e"/>
      <stop offset="1" stop-color="#8c6239"/>
    </linearGradient>
    <linearGradient id="linear-gradient-2" y1="1113.89" x2="1390" y2="1113.89" gradientTransform="matrix(1, 0, 0, -1, 0, 1483)" gradientUnits="userSpaceOnUse">
      <stop offset="0" stop-color="#8fd2ea"/>
      <stop offset="1" stop-color="#1271c6"/>
    </linearGradient>
    <linearGradient id="linear-gradient-3" x1="46.8" y1="721.42" x2="180" y2="721.42" gradientTransform="matrix(1, 0, 0, -1, 0, 1483)" gradientUnits="userSpaceOnUse">
      <stop offset="0" stop-color="#3aff2a"/>
      <stop offset="0.13" stop-color="#39fa29"/>
      <stop offset="0.27" stop-color="#35ed27"/>
      <stop offset="0.42" stop-color="#2ed722" stop-opacity="0.99"/>
      <stop offset="0.58" stop-color="#25b81c" stop-opacity="0.99"/>
      <stop offset="0.74" stop-color="#199015" stop-opacity="0.98"/>
      <stop offset="0.9" stop-color="#0a610b" stop-opacity="0.97"/>
      <stop offset="1" stop-color="#003f05" stop-opacity="0.96"/>
    </linearGradient>
    <linearGradient id="linear-gradient-4" x1="1199.72" y1="659.87" x2="1376.71" y2="659.87" gradientTransform="matrix(1, 0, 0, -1, 0, 1483)" gradientUnits="userSpaceOnUse">
      <stop offset="0" stop-color="#00aa27"/>
      <stop offset="0.28" stop-color="#00a726"/>
      <stop offset="0.46" stop-color="#009f23"/>
      <stop offset="0.61" stop-color="#00901f" stop-opacity="0.99"/>
      <stop offset="0.75" stop-color="#007c18" stop-opacity="0.98"/>
      <stop offset="0.87" stop-color="#006110" stop-opacity="0.97"/>
      <stop offset="0.99" stop-color="#004106" stop-opacity="0.96"/>
      <stop offset="1" stop-color="#003f05" stop-opacity="0.96"/>
    </linearGradient>
    <linearGradient id="linear-gradient-5" x1="1669.23" y1="780.89" x2="1748.29" y2="780.89" gradientTransform="translate(1984.34 1483) rotate(180)" xlink:href="#linear-gradient-3"/>
    <linearGradient id="linear-gradient-6" x1="1664.71" y1="208.62" x2="1834.87" y2="208.62" gradientTransform="translate(1844.71 1483) rotate(180)" gradientUnits="userSpaceOnUse">
      <stop offset="0" stop-color="#003f05" stop-opacity="0.96"/>
      <stop offset="0.01" stop-color="#004106" stop-opacity="0.96"/>
      <stop offset="0.13" stop-color="#006110" stop-opacity="0.97"/>
      <stop offset="0.25" stop-color="#007c18" stop-opacity="0.98"/>
      <stop offset="0.39" stop-color="#00901f" stop-opacity="0.99"/>
      <stop offset="0.54" stop-color="#009f23"/>
      <stop offset="0.72" stop-color="#00a726"/>
      <stop offset="1" stop-color="#00aa27"/>
    </linearGradient>
  </defs>
  <title>Artboard 1</title>
  <rect y="739.07" width="1390" height="743.93" fill="url(#linear-gradient)"/>
  <rect y="-2.85" width="1390" height="743.93" fill="url(#linear-gradient-2)"/>
  <g>
    <g>
      <polygon points="182.62 233.58 161.98 273.37 152.53 226.1 133.9 249.04 138.87 216.01 88.18 276.31 114.81 192.1 40.15 218 103.57 160.83 22.1 152.36 104.18 128.53 75.34 97.71 114.41 103.13 51.39 21.41 135.31 78.77 129.15 31.31 179.46 62.49 204.24 27.53 229.62 68.94 276.25 55.23 249.63 104.93 283.48 104.93 262.88 126.52 338.94 111.82 276.61 158.2 323.55 172.05 269.82 188.49 306.87 223.82 251.65 208.35 259.87 262.09 228.44 225.32 201.56 307.34 182.62 233.58" fill="#f7b541"/>
      <path d="M53.72,23.61l80.39,54.94L136,79.81l-.29-2.21-5.88-45.31,49,30.38.8.5.54-.77,24.07-34L229,68.88l.4.66.74-.21L275.25,56,249.59,104l-.79,1.47h33.5L263.6,125l-2.17,2.27,3.08-.6,72.37-14-59.76,44.46-1.61,1.2,1.92.57,44.38,13.1L270.5,187.75l-1.64.5,1.24,1.19,35,33.35-52.54-14.71-1.56-.39.23,1.55,7.84,51.22L229.4,225.67l-1.15-1.35-.56,1.68-26.07,79.56-18.19-70.8-.66-2.53-1.2,2.32L162.2,271.86l-9-44.83-.42-2.08-1.33,1.65-16.78,20.7,4.43-29.46.53-3.52L137.35,217l-47.94,57L115,193.21l.6-1.91-1.88.65-71.4,24.77L103.06,162l1.68-1.52-2.24-.23-77.8-8.1,78.83-22.88,1.57-.46-1.1-1.19L76.67,98.41l36.46,5,2.43.35-1.5-2L53.72,23.62m-4.66-4.41,64.21,83.21L74,97l29.25,31.26L19.5,152.55l82.9,8.63L38,219.28l76-26.38L86.94,278.56l51.17-60.84-5,33.09,19.12-23.53,9.54,47.59L182.46,235l19,74.19,27.14-82.81,32,37.42-8.37-54.7,56.41,15.8L270.76,188.8l54.5-16.68-47.57-14L341,111l-76.68,14.82,20.36-21.35H250.46l26.79-50L229.84,68.33l-25.57-41.7L179.33,61.82l-50.82-31.5,6.16,47.41Z"/>
    </g>
    <path d="M255.54,148.42a71.12,71.12,0,1,1-42.26-65.17A71.16,71.16,0,0,1,255.54,148.42Z" fill="#f5ff7b"/>
  </g>
  <path d="M126.29,735.22c-3.27-28.39,1.23-60.71,10-95.18C131,617.28,121,616.75,106,640L94.78,724.68c-6.93,9-39.82,5.27-40.07,5.58-12.18,15-9,25,.77,32.75,18.67-2.72,31.6-2.48,37.74,1.27-8.33,21.78,11.46,178.46,33.69,125.08L123.79,763c18.72,5.59,36,8.8,48.66,4.21,8.9-18.15,8.27-40.3,6.4-63-4.13-8.2-9.3-11.17-16.85-2.1l-3.43,40.43C148.64,745.23,137.73,741.88,126.29,735.22Z" stroke="#030000" stroke-miterlimit="10" stroke-width="2" fill="url(#linear-gradient-3)"/>
  <path d="M1299,622V829.67c12.26,4.33,23.64,5.79,32.8,0,11.94-11.66,5.85-35.59,0-59.35,14.94-23.27,28.44-28.51,39.25,0,6.64,37,8.41,71.42,0,100.62-18.42,6.8-43.6,5.4-72,0l1.28,152.22c-12.54,24.54-29.67,20.74-49.53,0,10.72-48,5.1-131.91,0-221.23-16,17.21-31.59,15.73-47,5.16-5.8-25.13-5.06-52.47,0-81.26,10.89-19.19,21.72-31.74,32.23-.15l-2,58.15,18-3.87,2.57-158C1253.28,609.08,1288,593.86,1299,622Z" stroke="#030000" stroke-miterlimit="10" stroke-width="2" fill="url(#linear-gradient-4)"/>
  <path d="M1371.56,1211.3c21.63,24.06,37,57.8,49,96.77,20.31,17.3,31.85,10.19,34-23.06l-41-87.86c2.12-13.7,41.39-35.29,41.47-35.77,4.13-23.42-5.76-30.28-21.59-30.08-19.24,16.79-33.91,26.42-43.18,27.59-4.43-26.77-125.81-158.41-117-91.49l83.46,116c-24.55,9-46,19.22-57.3,33.15,1.51,23.8,16.23,44.06,32.67,63.86,9.83,4.55,17.5,3.38,20.24-10.86L1330.6,1229C1340.13,1218.91,1354.49,1213.72,1371.56,1211.3Z" stroke="#030000" stroke-miterlimit="10" stroke-width="2" opacity="0.5" style="isolation: isolate"/>
  <path d="M177.11,993.6c12.2,14.23,21.62,33.45,29.52,55.42,11.22,10.42,16.83,7,16.44-11.17l-25-50.13c.47-7.44,19.71-17.56,19.73-17.82,1.08-12.7-4.31-16.91-12.44-17.53-9.15,8.39-16.27,13-21,13.25-3.47-14.92-71.76-92.77-64.24-55.54l48.09,67.51c-12.23,3.87-22.8,8.51-28,15.67,1.84,13.15,10.31,25,19.65,36.59,5.25,2.93,9.15,2.63,9.92-5.08l-13-23.24C161.28,996.41,168.44,994.2,177.11,993.6Z" stroke="#030000" stroke-miterlimit="10" stroke-width="2" opacity="0.5" style="isolation: isolate"/>
  <path d="M267.92,686.48c1.93-16.85-.73-36-5.93-56.47,3.13-13.51,9.05-13.82,18,0l6.66,50.22c4.11,5.32,23.62,3.12,23.77,3.31,7.23,9,5.33,14.84-.45,19.43-11.08-1.62-18.75-1.48-22.4.75,5,12.92-6.8,105.88-20,74.19L269.4,703c-11.11,3.32-21.37,5.22-28.87,2.49-5.28-10.76-4.91-23.91-3.8-37.34,2.45-4.87,5.52-6.64,10-1.26l2,24C254.65,692.42,261.13,690.44,267.92,686.48Z" stroke="#030000" stroke-miterlimit="10" stroke-width="2" fill="url(#linear-gradient-5)"/>
  <path d="M344.76,856.31c9.49,14,24,26.83,41.22,38.94,6.42,12.27,2.14,16.38-13.6,11.74l-37.73-33.72c-6.58-1.34-19.94,13-20.17,13-11.3-2.06-13.69-7.77-12.3-15,9.45-6,15.17-11.14,16.49-15.21-12.16-6.56-63.73-84.71-33.13-69.32l47.37,58c6.26-9.78,12.8-17.93,20.26-20.78,11,4.71,19.27,14.92,27.17,25.84,1.32,5.29.14,8.63-6.76,7.48l-17.15-16.86C351,843.13,347.33,848.88,344.76,856.31Z" stroke="#030000" stroke-miterlimit="10" stroke-width="2" opacity="0.5" style="isolation: isolate"/>
  <path d="M84.55,1081v199.65c-11.78,4.16-22.73,5.57-31.53,0-11.48-11.21-5.62-34.21,0-57-14.37-22.38-27.34-27.42-37.73,0-6.39,35.52-8.09,68.64,0,96.72,17.7,6.54,41.91,5.18,69.26,0l-1.23,146.32c12.06,23.6,28.52,19.94,47.61,0-10.3-46.12-4.9-126.81,0-212.66,15.4,16.54,30.37,15.12,45.15,5,5.58-24.15,4.87-50.43,0-78.11-10.47-18.45-20.89-30.52-31-.15l1.92,55.94-17.31-3.72L127.21,1081C128.45,1068.62,95,1054,84.55,1081Z" stroke="#030000" stroke-miterlimit="10" stroke-width="2" fill="url(#linear-gradient-6)"/>
</svg>
