<svg id="Layer_1" data-name="Layer 1" xmlns="http://www.w3.org/2000/svg" xmlns:xlink="http://www.w3.org/1999/xlink" width="1390" height="1483" viewBox="0 0 1390 1483">
  <defs>
    <linearGradient id="linear-gradient" y1="1112" x2="1390" y2="1112" gradientUnits="userSpaceOnUse">
      <stop offset="0" stop-color="#f7931e"/>
      <stop offset="1" stop-color="#8c6239"/>
    </linearGradient>
    <linearGradient id="linear-gradient-2" y1="372" x2="1390" y2="372" gradientUnits="userSpaceOnUse">
      <stop offset="0" stop-color="#8fd2ea"/>
      <stop offset="1" stop-color="#1271c6"/>
    </linearGradient>
    <linearGradient id="linear-gradient-3" x1="46.81" y1="763.45" x2="180" y2="763.45" gradientUnits="userSpaceOnUse">
      <stop offset="0" stop-color="#3aff2a"/>
      <stop offset="0.13" stop-color="#39fa29"/>
      <stop offset="0.27" stop-color="#35ed27"/>
      <stop offset="0.42" stop-color="#2ed722" stop-opacity="0.99"/>
      <stop offset="0.58" stop-color="#25b81c" stop-opacity="0.99"/>
      <stop offset="0.74" stop-color="#199015" stop-opacity="0.98"/>
      <stop offset="0.9" stop-color="#0a610b" stop-opacity="0.97"/>
      <stop offset="1" stop-color="#003f05" stop-opacity="0.96"/>
    </linearGradient>
    <linearGradient id="linear-gradient-4" x1="1095.66" y1="891.88" x2="1370.81" y2="891.88" gradientUnits="userSpaceOnUse">
      <stop offset="0" stop-color="#00aa27"/>
      <stop offset="0.28" stop-color="#00a726"/>
      <stop offset="0.46" stop-color="#009f23"/>
      <stop offset="0.61" stop-color="#00901f" stop-opacity="0.99"/>
      <stop offset="0.75" stop-color="#007c18" stop-opacity="0.98"/>
      <stop offset="0.87" stop-color="#006110" stop-opacity="0.97"/>
      <stop offset="0.99" stop-color="#004106" stop-opacity="0.96"/>
      <stop offset="1" stop-color="#003f05" stop-opacity="0.96"/>
    </linearGradient>
  </defs>
  <title>mexican_background</title>
  <rect y="741" width="1390" height="742" fill="url(#linear-gradient)"/>
  <rect y="1" width="1390" height="742" fill="url(#linear-gradient-2)"/>
  <g>
    <g>
      <polygon points="182.62 236.82 161.98 276.5 152.53 229.36 133.9 252.24 138.87 219.29 88.18 279.44 114.81 195.45 40.15 221.28 103.57 164.26 22.1 155.81 104.18 132.04 75.34 101.3 114.41 106.71 51.39 25.2 135.31 82.41 129.15 35.07 179.46 66.17 204.24 31.3 229.62 72.61 276.25 58.93 249.63 108.5 283.48 108.5 262.88 130.04 338.94 115.37 276.61 161.63 323.55 175.45 269.82 191.84 306.87 227.08 251.65 211.65 259.87 265.25 228.44 228.58 201.56 310.39 182.62 236.82" fill="#f7b541"/>
      <path d="M53.72,27.39l80.39,54.8L136,83.45l-.29-2.21-5.88-45.19,49,30.3.8.5.54-.77,24.07-33.87L229,72.55l.4.65.74-.21,45.11-13.25-25.66,47.79-.79,1.47H282.3l-18.7,19.56-2.17,2.26,3.08-.59,72.37-13.95-59.76,44.35-1.61,1.19,1.92.57,44.38,13.07L270.5,191.11l-1.64.5,1.24,1.18,35,33.27-52.54-14.68L251,211l.23,1.54,7.84,51.09L229.4,228.93l-1.15-1.35-.56,1.68-26.07,79.35L183.43,238l-.66-2.53-1.2,2.32L162.2,275l-9-44.71-.42-2.08-1.33,1.65L134.67,250.5l4.43-29.38.53-3.51-2.28,2.71L89.41,277.2,115,196.55l.6-1.9-1.88.65L42.32,220l60.74-54.61,1.68-1.51-2.24-.23-77.8-8.08,78.83-22.82,1.57-.46L104,131.1,76.67,102l36.46,5,2.43.34-1.5-1.94-60.34-78M49.06,23l64.21,83L74,100.61l29.25,31.18L19.5,156l82.9,8.61L38,222.56,114,196.24,86.94,281.68,138.11,221l-5,33,19.12-23.47L161.77,278l20.69-39.78,19,74,27.14-82.59,32,37.32-8.37-54.56,56.41,15.76-37.88-36,54.5-16.63-47.57-14,63.28-47-76.68,14.78L284.65,108H250.46l26.79-49.89L229.84,72,204.27,30.4,179.33,65.5,128.51,34.09l6.16,47.28L49.06,23Z"/>
    </g>
    <path d="M255.54,151.88a71.07,71.07,0,1,1-42.26-65A71.14,71.14,0,0,1,255.54,151.88Z" fill="#f5ff7b"/>
  </g>
  <path d="M126.29,737.16c-3.27-28.32,1.23-60.55,10-94.94C131,619.52,121,619,106,642.22L94.78,726.65c-6.93,9-39.82,5.25-40.07,5.56-12.18,15-9,24.95.77,32.67,18.67-2.72,31.6-2.48,37.74,1.26-8.33,21.73,11.46,178,33.69,124.76l-3.12-126c18.72,5.57,36,8.77,48.66,4.2,8.9-18.11,8.27-40.2,6.4-62.8-4.13-8.18-9.3-11.14-16.85-2.1l-3.43,40.33C148.64,747.14,137.73,743.8,126.29,737.16Z" stroke="#030000" stroke-miterlimit="10" stroke-width="2" fill="url(#linear-gradient-3)"/>
  <path d="M1250,580V902c19.06,6.72,36.76,9,51,0,18.55-18.07,9.09-55.16,0-92,23.22-36.09,44.21-44.22,61,0,10.33,57.3,13.08,110.72,0,156-28.62,10.54-67.76,8.36-112,0l2,236c-19.5,38.06-46.12,32.16-77,0,16.67-74.36,7.93-204.52,0-343-24.89,26.69-49.11,24.39-73,8-9-39-7.87-81.35,0-126,16.92-29.74,33.77-49.21,50.11-.23L1149,831l28-6,4-245C1179,560,1233,536.39,1250,580Z" stroke="#030000" stroke-miterlimit="10" stroke-width="2" fill="url(#linear-gradient-4)"/>
  <path d="M1362.88,1493.62c33.62,37.37,57.57,89.63,76.21,150.05,31.58,26.83,49.51,15.8,52.81-35.77l-63.68-136.23c3.29-21.22,64.33-54.71,64.46-55.45,6.42-36.32-9-47-33.57-46.67-29.9,26-52.7,41-67.11,42.78-6.89-41.51-195.57-245.68-181.85-141.86l129.74,179.83c-38.17,14-71.51,29.8-89.07,51.4,2.34,36.9,25.23,68.31,50.78,99,15.28,7,27.21,5.24,31.47-16.85l-33.79-62.78C1314,1505.5,1336.35,1497.47,1362.88,1493.62Z" stroke="#030000" stroke-miterlimit="10" stroke-width="2" opacity="0.5"/>
  <path d="M211.48,1038.44c18.58,21.61,32.94,50.82,45,84.2,17.09,15.84,25.65,10.69,25.06-17l-38.06-76.2c.73-11.3,30-26.67,30.07-27.07,1.64-19.29-6.57-25.69-19-26.62-13.94,12.72-24.77,19.77-32,20.12-5.28-22.67-109.31-141-97.85-84.4L198,1014.09c-18.63,5.88-34.74,12.93-42.65,23.81,2.8,20,15.71,37.92,29.93,55.58,8,4.46,13.94,4,15.12-7.71l-19.77-35.31C187.37,1042.71,198.28,1039.36,211.48,1038.44Z" stroke="#030000" stroke-miterlimit="10" stroke-width="2" opacity="0.5"/>
</svg>
