<svg id="Layer_1" data-name="Layer 1" xmlns="http://www.w3.org/2000/svg" xmlns:xlink="http://www.w3.org/1999/xlink" width="1390" height="1483" viewBox="0 0 1390 1483">
  <defs>
    <linearGradient id="linear-gradient" y1="1112" x2="1390" y2="1112" gradientUnits="userSpaceOnUse">
      <stop offset="0" stop-color="#f7931e"/>
      <stop offset="1" stop-color="#8c6239"/>
    </linearGradient>
    <linearGradient id="linear-gradient-2" y1="372" x2="1390" y2="372" gradientUnits="userSpaceOnUse">
      <stop offset="0" stop-color="#8fd2ea"/>
      <stop offset="1" stop-color="#1271c6"/>
    </linearGradient>
    <linearGradient id="linear-gradient-3" x1="46.81" y1="763.45" x2="180" y2="763.45" gradientUnits="userSpaceOnUse">
      <stop offset="0" stop-color="#3aff2a"/>
      <stop offset="0.13" stop-color="#39fa29"/>
      <stop offset="0.27" stop-color="#35ed27"/>
      <stop offset="0.42" stop-color="#2ed722" stop-opacity="0.99"/>
      <stop offset="0.58" stop-color="#25b81c" stop-opacity="0.99"/>
      <stop offset="0.74" stop-color="#199015" stop-opacity="0.98"/>
      <stop offset="0.9" stop-color="#0a610b" stop-opacity="0.97"/>
      <stop offset="1" stop-color="#003f05" stop-opacity="0.96"/>
    </linearGradient>
    <linearGradient id="linear-gradient-4" x1="1199.66" y1="824.85" x2="1376.66" y2="824.85" gradientUnits="userSpaceOnUse">
      <stop offset="0" stop-color="#00aa27"/>
      <stop offset="0.28" stop-color="#00a726"/>
      <stop offset="0.46" stop-color="#009f23"/>
      <stop offset="0.61" stop-color="#00901f" stop-opacity="0.99"/>
      <stop offset="0.75" stop-color="#007c18" stop-opacity="0.98"/>
      <stop offset="0.87" stop-color="#006110" stop-opacity="0.97"/>
      <stop offset="0.99" stop-color="#004106" stop-opacity="0.96"/>
      <stop offset="1" stop-color="#003f05" stop-opacity="0.96"/>
    </linearGradient>
    <linearGradient id="linear-gradient-5" x1="315.27" y1="704.14" x2="394.29" y2="704.14" gradientTransform="matrix(-1, 0, 0, 1, 630.34, 0)" xlink:href="#linear-gradient-3"/>
    <linearGradient id="linear-gradient-6" x1="310.71" y1="1274.92" x2="480.87" y2="1274.92" gradientTransform="matrix(-1, 0, 0, 1, 490.71, 0)" gradientUnits="userSpaceOnUse">
      <stop offset="0" stop-color="#003f05" stop-opacity="0.96"/>
      <stop offset="0.01" stop-color="#004106" stop-opacity="0.96"/>
      <stop offset="0.13" stop-color="#006110" stop-opacity="0.97"/>
      <stop offset="0.25" stop-color="#007c18" stop-opacity="0.98"/>
      <stop offset="0.39" stop-color="#00901f" stop-opacity="0.99"/>
      <stop offset="0.54" stop-color="#009f23"/>
      <stop offset="0.72" stop-color="#00a726"/>
      <stop offset="1" stop-color="#00aa27"/>
    </linearGradient>
  </defs>
  <title>mexican_background</title>
  <rect y="741" width="1390" height="742" fill="url(#linear-gradient)"/>
  <rect y="1" width="1390" height="742" fill="url(#linear-gradient-2)"/>
  <g>
    <g>
      <polygon points="182.62 236.82 161.98 276.5 152.53 229.36 133.9 252.24 138.87 219.29 88.18 279.44 114.81 195.45 40.15 221.28 103.57 164.26 22.1 155.81 104.18 132.04 75.34 101.3 114.41 106.71 51.39 25.2 135.31 82.41 129.15 35.07 179.46 66.17 204.24 31.3 229.62 72.61 276.25 58.93 249.63 108.5 283.48 108.5 262.88 130.04 338.94 115.37 276.61 161.63 323.55 175.45 269.82 191.84 306.87 227.08 251.65 211.65 259.87 265.25 228.44 228.58 201.56 310.39 182.62 236.82" fill="#f7b541"/>
      <path d="M53.72,27.39l80.39,54.8L136,83.45l-.29-2.21-5.88-45.19,49,30.3.8.5.54-.77,24.07-33.87L229,72.55l.4.65.74-.21,45.11-13.25-25.66,47.79-.79,1.47H282.3l-18.7,19.56-2.17,2.26,3.08-.59,72.37-13.95-59.76,44.35-1.61,1.19,1.92.57,44.38,13.07L270.5,191.11l-1.64.5,1.24,1.18,35,33.27-52.54-14.68L251,211l.23,1.54,7.84,51.09L229.4,228.93l-1.15-1.35-.56,1.68-26.07,79.35L183.43,238l-.66-2.53-1.2,2.32L162.2,275l-9-44.71-.42-2.08-1.33,1.65L134.67,250.5l4.43-29.38.53-3.51-2.28,2.71L89.41,277.2,115,196.55l.6-1.9-1.88.65L42.32,220l60.74-54.61,1.68-1.51-2.24-.23-77.8-8.08,78.83-22.82,1.57-.46L104,131.1,76.67,102l36.46,5,2.43.34-1.5-1.94-60.34-78M49.06,23l64.21,83L74,100.61l29.25,31.18L19.5,156l82.9,8.61L38,222.56,114,196.24,86.94,281.68,138.11,221l-5,33,19.12-23.47L161.77,278l20.69-39.78,19,74,27.14-82.59,32,37.32-8.37-54.56,56.41,15.76-37.88-36,54.5-16.63-47.57-14,63.28-47-76.68,14.78L284.65,108H250.46l26.79-49.89L229.84,72,204.27,30.4,179.33,65.5,128.51,34.09l6.16,47.28L49.06,23Z"/>
    </g>
    <path d="M255.54,151.88a71.07,71.07,0,1,1-42.26-65A71.14,71.14,0,0,1,255.54,151.88Z" fill="#f5ff7b"/>
  </g>
  <path d="M126.29,737.16c-3.27-28.32,1.23-60.55,10-94.94C131,619.52,121,619,106,642.22L94.78,726.65c-6.93,9-39.82,5.25-40.07,5.56-12.18,15-9,24.95.77,32.67,18.67-2.72,31.6-2.48,37.74,1.26-8.33,21.73,11.46,178,33.69,124.76l-3.12-126c18.72,5.57,36,8.77,48.66,4.2,8.9-18.11,8.27-40.2,6.4-62.8-4.13-8.18-9.3-11.14-16.85-2.1l-3.43,40.33C148.64,747.14,137.73,743.8,126.29,737.16Z" stroke="#030000" stroke-miterlimit="10" stroke-width="2" fill="url(#linear-gradient-3)"/>
  <path d="M1299,624.22V831.36c12.26,4.32,23.64,5.78,32.8,0,11.94-11.63,5.85-35.49,0-59.19,14.94-23.21,28.44-28.44,39.25,0,6.64,36.87,8.41,71.23,0,100.36-18.42,6.78-43.6,5.38-72,0l1.28,151.82c-12.54,24.48-29.67,20.69-49.53,0,10.72-47.84,5.1-131.57,0-220.65-16,17.16-31.59,15.68-47,5.14-5.8-25.06-5.06-52.33,0-81.05,10.89-19.14,21.72-31.66,32.23-.15l-2,58,18-3.86,2.57-157.6C1253.28,611.35,1288,596.16,1299,624.22Z" stroke="#030000" stroke-miterlimit="10" stroke-width="2" fill="url(#linear-gradient-4)"/>
  <path d="M1371.56,1212c21.63,24,37,57.65,49,96.52,20.31,17.26,31.85,10.17,34-23l-41-87.63c2.12-13.66,41.39-35.2,41.47-35.68,4.13-23.36-5.76-30.2-21.59-30-19.24,16.75-33.91,26.35-43.18,27.52-4.43-26.7-125.81-158-117-91.25l83.46,115.68c-24.55,9-46,19.17-57.3,33.06,1.51,23.74,16.23,43.95,32.67,63.7,9.83,4.53,17.5,3.37,20.24-10.84l-21.73-40.39C1340.13,1219.59,1354.49,1214.42,1371.56,1212Z" stroke="#030000" stroke-miterlimit="10" stroke-width="2" opacity="0.5"/>
  <path d="M177.11,994.87c12.2,14.19,21.62,33.36,29.52,55.27,11.22,10.4,16.83,7,16.44-11.14l-25-50c.47-7.42,19.71-17.51,19.73-17.77,1.08-12.67-4.31-16.87-12.44-17.48-9.15,8.36-16.27,13-21,13.21-3.47-14.88-71.76-92.53-64.24-55.4l48.09,67.34c-12.23,3.86-22.8,8.49-28,15.63,1.84,13.12,10.31,24.89,19.65,36.49,5.25,2.93,9.15,2.63,9.92-5.06l-13-23.18C161.28,997.67,168.44,995.47,177.11,994.87Z" stroke="#030000" stroke-miterlimit="10" stroke-width="2" opacity="0.5"/>
  <path d="M267.92,688.54c1.93-16.8-.73-35.92-5.93-56.32,3.13-13.47,9.05-13.78,18,0l6.66,50.09c4.11,5.31,23.62,3.11,23.77,3.3,7.23,8.93,5.33,14.8-.45,19.38-11.08-1.61-18.75-1.47-22.4.75,5,12.89-6.8,105.61-20,74L269.4,705c-11.11,3.31-21.37,5.21-28.87,2.49-5.28-10.74-4.91-23.85-3.8-37.25,2.45-4.86,5.52-6.62,10-1.25l2,23.93C254.65,694.47,261.13,692.49,267.92,688.54Z" stroke="#030000" stroke-miterlimit="10" stroke-width="2" fill="url(#linear-gradient-5)"/>
  <path d="M344.76,857.93c9.49,14,24,26.76,41.22,38.84,6.42,12.24,2.14,16.34-13.6,11.71l-37.73-33.63c-6.58-1.34-19.94,13-20.17,13-11.3-2.06-13.69-7.75-12.3-15,9.45-6,15.17-11.12,16.49-15.18-12.16-6.54-63.73-84.49-33.13-69.14l47.37,57.88c6.26-9.75,12.8-17.88,20.26-20.72,11,4.7,19.27,14.88,27.17,25.77,1.32,5.28.14,8.61-6.76,7.46l-17.15-16.81C351,844.79,347.33,850.52,344.76,857.93Z" stroke="#030000" stroke-miterlimit="10" stroke-width="2" opacity="0.5"/>
  <path d="M84.55,1082.05v199.13c-11.78,4.15-22.73,5.56-31.53,0-11.48-11.18-5.62-34.12,0-56.89-14.37-22.32-27.34-27.35-37.73,0-6.39,35.43-8.09,68.46,0,96.47,17.7,6.52,41.91,5.17,69.26,0L83.32,1466.7c12.06,23.54,28.52,19.89,47.61,0-10.3-46-4.9-126.48,0-212.11,15.4,16.5,30.37,15.08,45.15,4.94,5.58-24.09,4.87-50.3,0-77.91-10.47-18.4-20.89-30.44-31-.15l1.92,55.8-17.31-3.71-2.48-151.51C128.45,1069.69,95,1055.08,84.55,1082.05Z" stroke="#030000" stroke-miterlimit="10" stroke-width="2" fill="url(#linear-gradient-6)"/>
</svg>
